SplineFontDB: 3.0
FontName: WanchoDipangkar
FullName: Wancho Dipangkar Unicode
FamilyName: Wancho_Dipangkar_Unicode
Weight: Book
Copyright: Wancho Dipangkar (c) Copyrights,2018. \nAll Rights Reserved. Pirating, Redistribution or Unauthorised usage of this typeface is strictly prohibited.\nWancho script created by: Banwang Losu\nTypeface designed & created by:  Dipangkar Baruah. 
Version: 3.00, 30 May 2018, (c) Copyrights by Dipangkar Baruah of Naharkatia, Assam. Mobile : (+91)7002312626)
ItalicAngle: 0
UnderlinePosition: -292
UnderlineWidth: 150
Ascent: 1638
Descent: 410
InvalidEm: 0
sfntRevision: 0x00016666
LayerCount: 2
Layer: 0 1 "Back" 1
Layer: 1 1 "Fore" 0
XUID: [1021 341 221541093 8575526]
StyleMap: 0x0040
FSType: 4
OS2Version: 3
OS2_WeightWidthSlopeOnly: 0
OS2_UseTypoMetrics: 0
CreationTime: 1527706830
ModificationTime: 1572380725
PfmFamily: 17
TTFWeight: 400
TTFWidth: 5
LineGap: 222
VLineGap: 0
Panose: 2 0 5 0 0 0 0 0 0 0
OS2TypoAscent: 1434
OS2TypoAOffset: 0
OS2TypoDescent: -410
OS2TypoDOffset: 0
OS2TypoLinegap: 205
OS2WinAscent: 2500
OS2WinAOffset: 0
OS2WinDescent: 1000
OS2WinDOffset: 0
HheadAscent: 1716
HheadAOffset: 0
HheadDescent: -418
HheadDOffset: 0
OS2SubXSize: 1434
OS2SubYSize: 1331
OS2SubXOff: 0
OS2SubYOff: 283
OS2SupXSize: 1434
OS2SupYSize: 1331
OS2SupXOff: 0
OS2SupYOff: 977
OS2StrikeYSize: 102
OS2StrikeYPos: 530
OS2CapHeight: 1453
OS2XHeight: 1453
OS2Vendor: 'ADBE'
OS2CodePages: 20000111.41000000
OS2UnicodeRanges: 800000a7.5000004a.00000000.00000000
Lookup: 258 0 0 "'kern' Horizontal Kerning in Latin lookup 0" { "'kern' Horizontal Kerning in Latin lookup 0 subtable"  } ['kern' ('DFLT' <'dflt' > 'latn' <'dflt' > ) ]
MarkAttachClasses: 1
DEI: 91125
ShortTable: maxp 16
  1
  0
  104
  2895
  286
  0
  0
  0
  0
  0
  0
  0
  0
  0
  0
  0
EndShort

StartChar: Wancho_AA
Encoding: 104 123584 0
Width: 1344
Flags: W
LayerCount: 2
Fore
SplineSet
670 1463 m 0,0,1
 770 1463 770 1463 791 1429 c 0,2,3
 800 1416 800 1416 800 1401 c 2,4,-1
 800 1396 l 2,5,6
 800 1379 800 1379 768 1326 c 1,7,-1
 619 1032 l 1,8,-1
 621 1032 l 1,9,10
 664 1023 664 1023 727 1016 c 1,11,12
 825 1025 825 1025 907 1048 c 1,13,14
 986 1076 986 1076 1047 1120 c 1,15,16
 1111 1175 1111 1175 1152 1232 c 1,17,18
 1169 1244 1169 1244 1186 1244 c 2,19,-1
 1191 1244 l 2,20,21
 1226 1244 1226 1244 1241 1204 c 0,22,23
 1244 1196 1244 1196 1244 1187 c 0,24,25
 1244 1169 1244 1169 1189 1066 c 0,26,27
 733 143 733 143 673 28 c 1,28,29
 652 10 652 10 631 10 c 0,30,31
 582 10 582 10 574 68 c 0,32,33
 574 83 574 83 612 153 c 2,34,-1
 1018 972 l 1,35,36
 890 920 890 920 849 920 c 1,37,38
 799 908 799 908 727 904 c 0,39,40
 688 904 688 904 565 929 c 1,41,42
 158 130 158 130 101 22 c 1,43,44
 81 0 81 0 55 0 c 1,45,46
 2 10 2 10 2 52 c 1,47,48
 0 52 0 52 0 56 c 0,49,50
 0 76 0 76 63 189 c 1,51,52
 86 239 86 239 460 966 c 1,53,54
 410 987 410 987 358 1037 c 1,55,56
 301 1099 301 1099 301 1168 c 2,57,-1
 301 1180 l 2,58,59
 301 1282 301 1282 416 1378 c 1,60,61
 534 1463 534 1463 670 1463 c 0,0,1
413 1171 m 0,62,63
 413 1113 413 1113 510 1066 c 1,64,-1
 655 1348 l 1,65,-1
 655 1350 l 1,66,-1
 651 1350 l 2,67,68
 567 1350 567 1350 474 1281 c 1,69,70
 413 1226 413 1226 413 1171 c 0,62,63
EndSplineSet
Validated: 1
EndChar

StartChar: Wancho_A
Encoding: 105 123585 1
Width: 1344
Flags: W
LayerCount: 2
Fore
SplineSet
670 1463 m 0,0,1
 770 1463 770 1463 791 1429 c 0,2,3
 800 1416 800 1416 800 1401 c 2,4,-1
 800 1396 l 2,5,6
 800 1379 800 1379 768 1326 c 1,7,-1
 619 1032 l 1,8,-1
 621 1032 l 1,9,10
 664 1023 664 1023 727 1016 c 1,11,12
 825 1025 825 1025 907 1048 c 1,13,14
 986 1076 986 1076 1047 1120 c 1,15,16
 1111 1175 1111 1175 1152 1232 c 1,17,18
 1169 1244 1169 1244 1186 1244 c 2,19,-1
 1191 1244 l 2,20,21
 1226 1244 1226 1244 1241 1204 c 0,22,23
 1244 1196 1244 1196 1244 1187 c 0,24,25
 1244 1169 1244 1169 1189 1066 c 0,26,27
 733 143 733 143 673 28 c 1,28,29
 652 10 652 10 631 10 c 0,30,31
 582 10 582 10 574 68 c 0,32,33
 574 83 574 83 612 153 c 2,34,-1
 1018 972 l 1,35,36
 890 920 890 920 849 920 c 1,37,38
 799 908 799 908 727 904 c 0,39,40
 688 904 688 904 565 929 c 1,41,42
 158 130 158 130 101 22 c 1,43,44
 81 0 81 0 55 0 c 1,45,46
 2 10 2 10 2 52 c 1,47,48
 0 52 0 52 0 56 c 0,49,50
 0 76 0 76 63 189 c 1,51,52
 86 239 86 239 460 966 c 1,53,54
 410 987 410 987 358 1037 c 1,55,56
 301 1099 301 1099 301 1168 c 2,57,-1
 301 1180 l 2,58,59
 301 1282 301 1282 416 1378 c 1,60,61
 534 1463 534 1463 670 1463 c 0,0,1
413 1171 m 0,62,63
 413 1113 413 1113 510 1066 c 1,64,-1
 655 1348 l 1,65,-1
 655 1350 l 1,66,-1
 651 1350 l 2,67,68
 567 1350 567 1350 474 1281 c 1,69,70
 413 1226 413 1226 413 1171 c 0,62,63
574 605 m 2,71,-1
 582 605 l 2,72,73
 637 605 637 605 665 544 c 0,74,75
 671 529 671 529 671 514 c 2,76,-1
 671 507 l 2,77,78
 671 447 671 447 603 419 c 0,79,80
 592 416 592 416 582 416 c 2,81,-1
 579 416 l 2,82,83
 522 416 522 416 494 471 c 0,84,85
 485 487 485 487 485 511 c 2,86,-1
 485 514 l 2,87,88
 485 572 485 572 549 601 c 0,89,90
 563 605 563 605 574 605 c 2,71,-1
EndSplineSet
Validated: 1
EndChar

StartChar: Wancho_ba
Encoding: 106 123586 2
Width: 944
Flags: W
LayerCount: 2
Fore
SplineSet
727 1471 m 0,0,1
 816 1471 816 1471 831 1445 c 0,2,3
 844 1427 844 1427 844 1414 c 2,4,-1
 844 1404 l 2,5,6
 844 1365 844 1365 727 1117 c 0,7,8
 525 697 525 697 276 210 c 1,9,10
 333 169 333 169 382 147 c 0,11,12
 470 111 470 111 519 111 c 0,13,14
 631 111 631 111 704 219 c 0,15,16
 733 269 733 269 733 311 c 0,17,18
 733 413 733 413 595 467 c 1,19,20
 571 486 571 486 571 513 c 1,21,22
 580 568 580 568 624 568 c 1,23,24
 624 570 624 570 628 570 c 0,25,26
 691 557 691 557 764 495 c 1,27,28
 844 415 844 415 844 311 c 0,29,30
 844 164 844 164 700 55 c 1,31,32
 612 0 612 0 518 0 c 0,33,34
 402 0 402 0 245 95 c 1,35,-1
 224 110 l 1,36,37
 188 33 188 33 169 19 c 0,38,39
 153 10 153 10 139 10 c 2,40,-1
 136 10 l 2,41,42
 90 10 90 10 81 67 c 0,43,44
 81 85 81 85 121 152 c 0,45,46
 121 154 121 154 139 189 c 1,47,48
 0 351 0 351 0 592 c 0,49,50
 0 867 0 867 178 1141 c 1,51,52
 332 1366 332 1366 567 1447 c 1,53,54
 651 1471 651 1471 727 1471 c 0,0,1
112 592 m 0,55,56
 112 424 112 424 194 299 c 1,57,-1
 195 299 l 1,58,59
 492 881 492 881 671 1263 c 1,60,-1
 712 1357 l 1,61,-1
 710 1357 l 2,62,63
 541 1357 541 1357 366 1193 c 1,64,65
 258 1075 258 1075 218 990 c 0,66,67
 112 784 112 784 112 592 c 0,55,56
EndSplineSet
Validated: 1
EndChar

StartChar: exclam
Encoding: 1 33 4
Width: 794
Flags: W
LayerCount: 2
Fore
SplineSet
216 1365 m 0,0,1
 257 1365 257 1365 272 1320 c 1,2,-1
 272 1316 l 2,3,4
 272 1002 272 1002 267 425 c 1,5,6
 250 380 250 380 218 380 c 2,7,-1
 209 380 l 2,8,9
 169 380 169 380 157 426 c 0,10,11
 157 428 157 428 155 431 c 0,12,13
 160 1050 160 1050 160 1305 c 1,14,15
 167 1365 167 1365 216 1365 c 0,0,1
193 189 m 2,16,-1
 205 189 l 2,17,18
 258 189 258 189 288 126 c 0,19,20
 294 108 294 108 294 92 c 0,21,22
 294 27 294 27 224 0 c 0,23,24
 210 -3 210 -3 205 -3 c 2,25,-1
 193 -3 l 2,26,27
 139 -3 139 -3 109 53 c 0,28,29
 100 74 100 74 100 94 c 0,30,31
 100 154 100 154 163 183 c 0,32,33
 178 189 178 189 193 189 c 2,16,-1
EndSplineSet
Validated: 1
EndChar

StartChar: quotedbl
Encoding: 2 34 5
Width: 601
Flags: W
LayerCount: 2
Fore
SplineSet
157 1760 m 1,0,1
 198 1760 198 1760 212 1714 c 1,2,-1
 279 1256 l 1,3,4
 269 1200 269 1200 225 1200 c 2,5,-1
 219 1200 l 2,6,7
 172 1200 172 1200 164 1265 c 2,8,-1
 100 1705 l 1,9,10
 100 1744 100 1744 146 1758 c 1,11,-1
 157 1760 l 1,0,1
448 1760 m 1,12,13
 501 1749 501 1749 501 1706 c 2,14,-1
 501 1703 l 1,15,16
 437 1242 437 1242 431 1232 c 0,17,18
 411 1200 411 1200 386 1200 c 2,19,-1
 378 1200 l 2,20,21
 333 1200 333 1200 324 1256 c 1,22,23
 389 1714 389 1714 394 1727 c 0,24,25
 414 1760 414 1760 448 1760 c 1,12,13
EndSplineSet
Validated: 1
EndChar

StartChar: numbersign
Encoding: 3 35 6
Width: 1322
Flags: W
LayerCount: 2
Fore
SplineSet
827 1455 m 2,0,-1
 830 1455 l 2,1,2
 876 1455 876 1455 885 1398 c 0,3,4
 885 1380 885 1380 831 1280 c 0,5,6
 831 1277 831 1277 670 953 c 1,7,-1
 877 953 l 2,8,9
 880 954 880 954 1101 1401 c 0,10,11
 1119 1443 1119 1443 1156 1443 c 0,12,13
 1205 1443 1205 1443 1213 1385 c 0,14,15
 1213 1370 1213 1370 1153 1255 c 2,16,-1
 1004 953 l 1,17,18
 1080 955 1080 955 1124 955 c 2,19,-1
 1162 955 l 2,20,21
 1204 955 1204 955 1219 918 c 0,22,23
 1222 912 1222 912 1222 906 c 2,24,-1
 1222 895 l 2,25,26
 1222 859 1222 859 1180 844 c 0,27,28
 1178 843 1178 843 1174 843 c 0,29,30
 1018 841 1018 841 949 841 c 1,31,-1
 822 586 l 1,32,-1
 900 586 l 2,33,34
 964 586 964 586 1079 588 c 0,35,36
 1116 588 1116 588 1132 542 c 1,37,-1
 1132 530 l 2,38,39
 1132 492 1132 492 1089 476 c 1,40,41
 1012 474 1012 474 967 474 c 2,42,-1
 768 474 l 2,43,44
 766 474 766 474 546 30 c 0,45,46
 529 -10 529 -10 489 -10 c 0,47,48
 453 -10 453 -10 436 36 c 1,49,-1
 436 48 l 2,50,51
 436 65 436 65 476 140 c 0,52,53
 640 471 640 471 640 474 c 1,54,55
 564 473 564 473 528 473 c 2,56,-1
 431 473 l 1,57,58
 265 135 265 135 207 22 c 1,59,60
 185 2 185 2 163 2 c 0,61,62
 107 12 107 12 107 57 c 2,63,-1
 107 60 l 2,64,65
 107 77 107 77 143 143 c 2,66,-1
 306 473 l 1,67,-1
 149 473 l 1,68,69
 100 485 100 485 100 530 c 1,70,71
 111 583 111 583 152 583 c 1,72,73
 152 585 152 585 166 585 c 2,74,-1
 363 585 l 1,75,-1
 488 840 l 1,76,-1
 243 840 l 2,77,78
 207 840 207 840 191 885 c 1,79,-1
 191 898 l 2,80,81
 191 945 191 945 251 952 c 1,82,-1
 545 952 l 1,83,84
 716 1301 716 1301 785 1435 c 1,85,86
 805 1455 805 1455 827 1455 c 2,0,-1
613 840 m 1,87,-1
 488 585 l 1,88,-1
 489 585 l 2,89,90
 612 586 612 586 682 586 c 2,91,-1
 695 586 l 2,92,93
 698 588 698 588 824 841 c 1,94,-1
 676 841 l 2,95,96
 653 841 653 841 613 840 c 1,87,-1
EndSplineSet
Validated: 1
EndChar

StartChar: percent
Encoding: 5 37 7
Width: 1644
Flags: W
LayerCount: 2
Fore
SplineSet
1171 1459 m 2,0,-1
 1174 1459 l 1,1,2
 1228 1450 1228 1450 1228 1405 c 2,3,-1
 1228 1401 l 2,4,5
 1228 1381 1228 1381 1180 1298 c 0,6,7
 1169 1273 1169 1273 537 53 c 1,8,9
 518 6 518 6 477 6 c 0,10,11
 447 6 447 6 428 38 c 0,12,13
 424 48 424 48 422 62 c 0,14,15
 422 80 422 80 474 176 c 0,16,17
 1092 1371 1092 1371 1129 1439 c 1,18,19
 1148 1459 1148 1459 1171 1459 c 2,0,-1
400 1445 m 2,20,-1
 403 1445 l 2,21,22
 559 1445 559 1445 657 1263 c 1,23,24
 703 1160 703 1160 703 1054 c 0,25,26
 703 870 703 870 583 741 c 1,27,28
 498 662 498 662 401 662 c 0,29,30
 265 662 265 662 169 805 c 1,31,32
 100 918 100 918 100 1053 c 0,33,34
 100 1261 100 1261 245 1390 c 1,35,36
 320 1445 320 1445 400 1445 c 2,20,-1
213 1066 m 2,37,-1
 213 1042 l 2,38,39
 213 910 213 910 304 814 c 1,40,41
 353 775 353 775 397 775 c 2,42,-1
 406 775 l 2,43,44
 499 775 499 775 563 910 c 1,45,46
 589 978 589 978 589 1047 c 2,47,-1
 589 1063 l 2,48,49
 589 1204 589 1204 492 1299 c 1,50,51
 447 1333 447 1333 400 1333 c 0,52,53
 305 1333 305 1333 242 1202 c 1,54,55
 213 1132 213 1132 213 1066 c 2,37,-1
1243 783 m 0,56,57
 1402 783 1402 783 1499 599 c 1,58,59
 1544 501 1544 501 1544 389 c 0,60,61
 1544 195 1544 195 1414 68 c 1,62,63
 1334 0 1334 0 1243 0 c 0,64,65
 1097 0 1097 0 1000 161 c 1,66,67
 943 268 943 268 943 385 c 2,68,-1
 943 398 l 2,69,70
 943 586 943 586 1073 716 c 1,71,72
 1154 783 1154 783 1243 783 c 0,56,57
1055 390 m 0,73,74
 1055 228 1055 228 1165 137 c 1,75,76
 1210 111 1210 111 1240 111 c 0,77,78
 1243 113 1243 113 1244 113 c 0,79,80
 1246 113 1246 113 1246 111 c 1,81,82
 1319 111 1319 111 1382 202 c 1,83,84
 1432 288 1432 288 1432 392 c 0,85,86
 1432 542 1432 542 1335 635 c 1,87,88
 1290 671 1290 671 1241 671 c 0,89,90
 1154 671 1154 671 1091 555 c 1,91,92
 1055 479 1055 479 1055 390 c 0,73,74
EndSplineSet
Validated: 1
EndChar

StartChar: ampersand
Encoding: 6 38 8
Width: 1127
Flags: W
LayerCount: 2
Fore
SplineSet
552 1467 m 2,0,-1
 560 1467 l 2,1,2
 685 1467 685 1467 756 1334 c 1,3,4
 786 1267 786 1267 786 1185 c 0,5,6
 786 1034 786 1034 558 909 c 1,7,-1
 524 886 l 1,8,9
 838 258 838 258 842 255 c 1,10,11
 915 377 915 377 915 501 c 0,12,13
 915 668 915 668 782 772 c 1,14,15
 770 787 770 787 770 804 c 2,16,-1
 770 810 l 2,17,18
 770 854 770 854 825 864 c 1,19,20
 874 864 874 864 964 737 c 1,21,22
 1027 627 1027 627 1027 500 c 0,23,24
 1027 308 1027 308 897 142 c 1,25,26
 927 87 927 87 927 69 c 0,27,28
 916 15 916 15 874 15 c 1,29,30
 874 14 874 14 870 14 c 0,31,32
 831 14 831 14 812 63 c 1,33,-1
 809 63 l 1,34,35
 715 0 715 0 574 0 c 2,36,-1
 555 0 l 2,37,38
 379 0 379 0 239 122 c 1,39,40
 100 259 100 259 100 445 c 0,41,42
 100 619 100 619 224 792 c 1,43,44
 290 867 290 867 336 898 c 0,45,46
 342 902 342 902 378 928 c 1,47,48
 297 1073 297 1073 297 1165 c 2,49,-1
 297 1191 l 2,50,51
 297 1347 297 1347 425 1434 c 1,52,53
 487 1467 487 1467 552 1467 c 2,0,-1
409 1192 m 2,54,-1
 409 1182 l 2,55,56
 409 1095 409 1095 474 988 c 1,57,58
 568 1043 568 1043 625 1091 c 1,59,60
 674 1139 674 1139 674 1192 c 0,61,62
 670 1310 670 1310 597 1347 c 0,63,64
 574 1355 574 1355 557 1355 c 0,65,66
 454 1355 454 1355 418 1252 c 1,67,68
 409 1212 409 1212 409 1192 c 2,54,-1
213 454 m 2,69,-1
 213 439 l 2,70,71
 213 269 213 269 367 164 c 1,72,73
 459 112 459 112 567 112 c 0,74,75
 695 112 695 112 759 166 c 1,76,77
 430 824 430 824 430 827 c 1,78,79
 292 740 292 740 236 579 c 0,80,81
 213 511 213 511 213 454 c 2,69,-1
EndSplineSet
Validated: 1
EndChar

StartChar: quotesingle
Encoding: 7 39 9
Width: 313
Flags: W
LayerCount: 2
Fore
SplineSet
158 1760 m 0,0,1
 212 1749 212 1749 212 1708 c 1,2,3
 213 1708 213 1708 213 1694 c 2,4,-1
 213 1265 l 2,5,6
 213 1220 213 1220 179 1205 c 0,7,8
 172 1200 172 1200 160 1200 c 2,9,-1
 154 1200 l 2,10,11
 118 1200 118 1200 103 1241 c 0,12,13
 100 1247 100 1247 100 1260 c 2,14,-1
 100 1696 l 2,15,16
 100 1742 100 1742 139 1757 c 0,17,18
 152 1760 152 1760 158 1760 c 0,0,1
EndSplineSet
Validated: 1
EndChar

StartChar: parenleft
Encoding: 8 40 10
Width: 682
Flags: W
LayerCount: 2
Fore
SplineSet
521 1777 m 1,0,1
 561 1777 561 1777 576 1730 c 1,2,-1
 577 1721 l 2,3,4
 577 1694 577 1694 532 1647 c 1,5,6
 212 1218 212 1218 212 725 c 0,7,8
 212 202 212 202 576 -254 c 1,9,10
 582 -274 582 -274 582 -279 c 0,11,12
 572 -336 572 -336 525 -336 c 0,13,14
 491 -336 491 -336 462 -290 c 1,15,16
 342 -133 342 -133 292 -29 c 1,17,18
 100 332 100 332 100 726 c 0,19,20
 100 1263 100 1263 452 1726 c 0,21,22
 490 1775 490 1775 510 1775 c 2,23,-1
 521 1777 l 1,0,1
EndSplineSet
Validated: 1
EndChar

StartChar: parenright
Encoding: 9 41 11
Width: 581
Flags: W
LayerCount: 2
Fore
SplineSet
62 1777 m 1,0,1
 96 1777 96 1777 140 1710 c 1,2,3
 236 1582 236 1582 290 1478 c 0,4,5
 481 1114 481 1114 481 725 c 0,6,7
 481 173 481 173 105 -308 c 0,8,9
 84 -336 84 -336 55 -336 c 0,10,11
 16 -336 16 -336 1 -291 c 0,12,13
 0 -283 0 -283 0 -278 c 0,14,15
 0 -254 0 -254 49 -199 c 1,16,17
 370 238 370 238 370 725 c 0,18,19
 370 1228 370 1228 37 1660 c 1,20,21
 4 1694 4 1694 4 1721 c 0,22,23
 4 1760 4 1760 49 1775 c 1,24,-1
 62 1777 l 1,0,1
EndSplineSet
Validated: 1
EndChar

StartChar: asterisk
Encoding: 10 42 12
Width: 828
Flags: W
LayerCount: 2
Fore
SplineSet
155 1000 m 1,0,-1
 157 1000 l 2,1,2
 188 1000 188 1000 230 949 c 1,3,4
 292 888 292 888 415 767 c 1,5,6
 642 995 642 995 649 995 c 0,7,8
 663 1000 663 1000 672 1000 c 2,9,-1
 673 1000 l 2,10,11
 713 1000 713 1000 728 955 c 1,12,-1
 728 942 l 2,13,14
 728 912 728 912 679 871 c 1,15,-1
 494 688 l 1,16,17
 721 464 721 464 721 461 c 0,18,19
 728 448 728 448 728 434 c 2,20,-1
 728 430 l 2,21,22
 728 391 728 391 682 376 c 1,23,-1
 672 376 l 2,24,25
 644 376 644 376 606 419 c 0,26,27
 486 539 486 539 414 609 c 1,28,29
 189 384 189 384 184 384 c 0,30,31
 171 376 171 376 157 376 c 2,32,-1
 155 376 l 2,33,34
 114 376 114 376 100 424 c 1,35,-1
 100 437 l 2,36,37
 100 464 100 464 169 522 c 0,38,39
 169 524 169 524 334 688 c 1,40,41
 109 911 109 911 109 913 c 0,42,43
 100 925 100 925 100 946 c 0,44,45
 100 991 100 991 155 1000 c 1,0,-1
EndSplineSet
Validated: 1
EndChar

StartChar: plus
Encoding: 11 43 13
Width: 1046
Flags: W
LayerCount: 2
Fore
SplineSet
524 1134 m 0,0,1
 563 1134 563 1134 579 1091 c 0,2,3
 580 1081 580 1081 580 1074 c 2,4,-1
 580 746 l 1,5,-1
 610 746 l 2,6,7
 715 746 715 746 894 748 c 1,8,9
 944 735 944 735 944 697 c 0,10,11
 946 694 946 694 946 692 c 0,12,13
 946 653 946 653 904 637 c 0,14,15
 902 637 902 637 900 636 c 0,16,17
 750 634 750 634 670 634 c 2,18,-1
 580 634 l 1,19,-1
 580 306 l 2,20,21
 580 262 580 262 535 248 c 0,22,23
 532 248 532 248 524 246 c 0,24,25
 468 255 468 255 468 301 c 1,26,27
 467 301 467 301 467 319 c 2,28,-1
 467 634 l 1,29,30
 447 633 447 633 437 633 c 2,31,-1
 152 633 l 2,32,33
 117 633 117 633 101 673 c 0,34,35
 100 679 100 679 100 685 c 2,36,-1
 100 695 l 2,37,38
 100 726 100 726 140 742 c 0,39,40
 147 745 147 745 160 745 c 2,41,-1
 377 745 l 2,42,43
 407 745 407 745 467 746 c 1,44,-1
 467 1061 l 2,45,46
 467 1115 467 1115 500 1128 c 0,47,48
 513 1134 513 1134 524 1134 c 0,0,1
EndSplineSet
Validated: 1
EndChar

StartChar: comma
Encoding: 12 44 14
Width: 676
Flags: W
LayerCount: 2
Fore
SplineSet
210 196 m 0,0,1
 259 196 259 196 331 141 c 1,2,3
 426 48 426 48 426 -64 c 2,4,-1
 426 -81 l 2,5,6
 426 -220 426 -220 300 -304 c 1,7,8
 224 -343 224 -343 195 -343 c 1,9,10
 185 -347 185 -347 153 -350 c 1,11,12
 100 -339 100 -339 100 -296 c 2,13,-1
 100 -287 l 2,14,15
 100 -255 100 -255 144 -238 c 1,16,17
 315 -213 315 -213 315 -74 c 0,18,19
 315 -11 315 -11 277 33 c 1,20,21
 251 4 251 4 207 4 c 0,22,23
 141 4 141 4 115 77 c 0,24,25
 112 92 112 92 112 102 c 0,26,27
 112 170 112 170 188 195 c 0,28,29
 203 196 203 196 210 196 c 0,0,1
EndSplineSet
Validated: 1
EndChar

StartChar: hyphen
Encoding: 13 45 15
AltUni2: 0000ad.ffffffff.0
Width: 1048
Flags: W
LayerCount: 2
Fore
SplineSet
897 782 m 0,0,1
 921 782 921 782 943 748 c 1,2,-1
 948 726 l 1,3,4
 948 689 948 689 906 672 c 0,5,6
 904 672 904 672 902 670 c 0,7,8
 488 667 488 667 150 667 c 0,9,10
 122 667 122 667 103 706 c 1,11,12
 102 720 102 720 100 723 c 0,13,14
 111 779 111 779 157 779 c 2,15,-1
 160 779 l 2,16,17
 445 779 445 779 897 782 c 0,0,1
EndSplineSet
Validated: 1
EndChar

StartChar: period
Encoding: 14 46 16
Width: 794
Flags: W
LayerCount: 2
Fore
SplineSet
195 201 m 0,0,1
 263 201 263 201 291 130 c 0,2,3
 294 112 294 112 294 103 c 0,4,5
 294 47 294 47 237 16 c 0,6,7
 221 7 221 7 197 7 c 2,8,-1
 194 7 l 2,9,10
 132 7 132 7 103 79 c 1,11,12
 100 99 100 99 100 106 c 0,13,14
 100 165 100 165 164 195 c 0,15,16
 180 200 180 200 195 201 c 0,0,1
EndSplineSet
Validated: 1
EndChar

StartChar: slash
Encoding: 15 47 17
Width: 1208
Flags: W
LayerCount: 2
Fore
SplineSet
1053 1654 m 0,0,1
 1089 1654 1089 1654 1105 1614 c 0,2,3
 1108 1608 1108 1608 1108 1597 c 0,4,5
 1108 1578 1108 1578 1065 1500 c 0,6,7
 518 404 518 404 344 60 c 0,8,9
 202 -229 202 -229 196 -232 c 0,10,11
 177 -250 177 -250 155 -250 c 0,12,13
 100 -240 100 -240 100 -195 c 0,14,15
 100 -173 100 -173 132 -116 c 2,16,-1
 796 1214 l 1,17,-1
 1008 1633 l 1,18,19
 1028 1654 1028 1654 1053 1654 c 0,0,1
EndSplineSet
Validated: 1
EndChar

StartChar: colon
Encoding: 26 58 18
Width: 550
Flags: W
LayerCount: 2
Fore
SplineSet
195 1085 m 1,0,1
 268 1085 268 1085 292 1005 c 0,2,3
 292 998 292 998 294 988 c 0,4,5
 294 928 294 928 231 897 c 0,6,7
 213 891 213 891 200 891 c 2,8,-1
 197 891 l 2,9,10
 129 891 129 891 103 963 c 0,11,12
 100 978 100 978 100 990 c 0,13,14
 100 1053 100 1053 168 1081 c 1,15,-1
 195 1085 l 1,0,1
204 450 m 0,16,17
 268 450 268 450 297 378 c 0,18,19
 300 360 300 360 300 351 c 0,20,21
 300 286 300 286 227 259 c 0,22,23
 212 256 212 256 201 256 c 0,24,25
 136 256 136 256 109 329 c 0,26,27
 106 344 106 344 106 354 c 0,28,29
 106 420 106 420 179 447 c 0,30,31
 194 450 194 450 204 450 c 0,16,17
EndSplineSet
Validated: 1
EndChar

StartChar: semicolon
Encoding: 27 59 19
AltUni2: 00037e.ffffffff.0
Width: 657
Flags: W
LayerCount: 2
Fore
SplineSet
231 1255 m 0,0,1
 294 1255 294 1255 322 1187 c 0,2,3
 327 1170 327 1170 327 1158 c 0,4,5
 327 1091 327 1091 254 1064 c 1,6,-1
 228 1061 l 1,7,8
 173 1061 173 1061 142 1118 c 0,9,10
 133 1140 133 1140 133 1158 c 0,11,12
 133 1214 133 1214 186 1245 c 0,13,14
 205 1255 205 1255 231 1255 c 0,0,1
219 642 m 2,15,-1
 230 642 l 2,16,17
 291 642 291 642 359 552 c 1,18,19
 407 480 407 480 407 405 c 2,20,-1
 407 384 l 2,21,22
 407 238 407 238 271 120 c 1,23,24
 197 71 197 71 157 66 c 1,25,26
 118 66 118 66 101 111 c 0,27,28
 101 115 101 115 100 121 c 0,29,30
 100 169 100 169 166 185 c 1,31,32
 198 200 198 200 246 251 c 1,33,34
 295 322 295 322 295 385 c 2,35,-1
 295 394 l 2,36,37
 295 436 295 436 282 458 c 1,38,39
 251 438 251 438 222 438 c 2,40,-1
 210 438 l 2,41,42
 156 438 156 438 124 496 c 0,43,44
 116 515 116 515 116 530 c 2,45,-1
 116 542 l 2,46,47
 116 598 116 598 177 632 c 0,48,49
 199 642 199 642 219 642 c 2,15,-1
EndSplineSet
Validated: 1
EndChar

StartChar: less
Encoding: 28 60 20
Width: 1044
Flags: W
LayerCount: 2
Fore
SplineSet
881 1121 m 2,0,-1
 890 1121 l 2,1,2
 930 1121 930 1121 943 1075 c 0,3,4
 944 1069 944 1069 944 1065 c 0,5,6
 944 1023 944 1023 871 994 c 1,7,8
 326 709 326 709 279 686 c 1,9,-1
 279 683 l 1,10,11
 907 354 907 354 925 342 c 1,12,13
 944 323 944 323 944 299 c 0,14,15
 944 262 944 262 901 246 c 0,16,17
 893 244 893 244 884 244 c 0,18,19
 869 244 869 244 789 289 c 0,20,21
 178 609 178 609 120 641 c 1,22,23
 100 662 100 662 100 684 c 0,24,25
 100 727 100 727 165 751 c 1,26,27
 867 1120 867 1120 874 1120 c 0,28,29
 876 1121 876 1121 881 1121 c 2,0,-1
EndSplineSet
Validated: 1
EndChar

StartChar: equal
Encoding: 29 61 21
Width: 1049
Flags: W
LayerCount: 2
Fore
SplineSet
900 885 m 0,0,1
 927 885 927 885 946 846 c 1,2,-1
 949 828 l 1,3,4
 949 792 949 792 906 775 c 0,5,6
 904 775 904 775 891 773 c 0,7,8
 671 773 671 773 154 770 c 0,9,10
 121 770 121 770 103 814 c 1,11,-1
 103 830 l 2,12,13
 103 865 103 865 143 881 c 0,14,15
 146 881 146 881 149 882 c 0,16,17
 542 885 542 885 900 885 c 0,0,1
898 611 m 0,18,19
 925 611 925 611 944 572 c 0,20,21
 946 559 946 559 947 555 c 0,22,23
 947 516 947 516 904 500 c 1,24,-1
 897 499 l 1,25,26
 785 499 785 499 151 496 c 0,27,28
 129 496 129 496 107 524 c 0,29,30
 103 534 103 534 100 551 c 0,31,32
 100 591 100 591 143 606 c 0,33,34
 144 606 144 606 149 608 c 0,35,36
 748 611 748 611 898 611 c 0,18,19
EndSplineSet
Validated: 1
EndChar

StartChar: greater
Encoding: 30 62 22
Width: 1045
Flags: W
LayerCount: 2
Fore
SplineSet
154 1121 m 2,0,-1
 163 1121 l 2,1,2
 175 1121 175 1121 315 1047 c 0,3,4
 906 739 906 739 927 726 c 1,5,6
 945 706 945 706 945 683 c 0,7,8
 945 644 945 644 891 623 c 1,9,10
 194 255 194 255 170 246 c 0,11,12
 162 244 162 244 157 244 c 0,13,14
 117 244 117 244 102 289 c 1,15,-1
 102 304 l 2,16,17
 102 344 102 344 175 372 c 1,18,19
 763 683 763 683 766 683 c 2,20,-1
 766 686 l 1,21,22
 139 1011 139 1011 118 1024 c 1,23,24
 100 1046 100 1046 100 1066 c 0,25,26
 110 1121 110 1121 154 1121 c 2,0,-1
EndSplineSet
Validated: 1
EndChar

StartChar: question
Encoding: 31 63 23
Width: 1155
Flags: W
LayerCount: 2
Fore
SplineSet
357 1374 m 2,0,-1
 388 1374 l 2,1,2
 504 1374 504 1374 597 1295 c 1,3,4
 655 1234 655 1234 655 1145 c 2,5,-1
 655 1107 l 2,6,7
 655 879 655 879 460 756 c 0,8,9
 403 719 403 719 361 680 c 1,10,11
 323 637 323 637 323 578 c 2,12,-1
 323 568 l 2,13,14
 323 512 323 512 369 414 c 0,15,16
 370 406 370 406 370 402 c 0,17,18
 362 346 362 346 315 346 c 2,19,-1
 314 346 l 2,20,21
 268 346 268 346 248 413 c 1,22,23
 211 494 211 494 211 568 c 2,24,-1
 211 583 l 2,25,26
 211 732 211 732 372 831 c 0,27,28
 426 863 426 863 485 923 c 1,29,30
 543 998 543 998 543 1116 c 2,31,-1
 543 1141 l 2,32,33
 543 1210 543 1210 488 1235 c 1,34,35
 443 1262 443 1262 375 1262 c 2,36,-1
 366 1262 l 2,37,38
 264 1262 264 1262 211 1198 c 1,39,40
 194 1156 194 1156 155 1156 c 1,41,42
 100 1165 100 1165 100 1211 c 2,43,-1
 100 1214 l 2,44,45
 100 1255 100 1255 170 1314 c 1,46,47
 258 1374 258 1374 357 1374 c 2,0,-1
346 220 m 0,48,49
 409 220 409 220 437 155 c 0,50,51
 442 139 442 139 443 123 c 0,52,53
 443 61 443 61 376 31 c 0,54,55
 357 26 357 26 345 26 c 0,56,57
 288 26 288 26 258 83 c 0,58,59
 249 99 249 99 249 123 c 0,60,61
 249 192 249 192 323 217 c 0,62,63
 336 220 336 220 346 220 c 0,48,49
EndSplineSet
Validated: 1
EndChar

StartChar: at
Encoding: 32 64 24
Width: 1841
Flags: W
LayerCount: 2
Fore
SplineSet
932 1600 m 0,0,1
 1209 1600 1209 1600 1443 1419 c 1,2,3
 1532 1335 1532 1335 1566 1283 c 0,4,5
 1741 1029 1741 1029 1741 736 c 0,6,7
 1741 514 1741 514 1629 363 c 0,8,9
 1581 304 1581 304 1538 275 c 0,10,11
 1421 202 1421 202 1302 202 c 0,12,13
 1227 202 1227 202 1173 260 c 1,14,15
 1070 179 1070 179 970 179 c 2,16,-1
 950 179 l 2,17,18
 769 179 769 179 656 321 c 1,19,20
 582 426 582 426 582 557 c 0,21,22
 582 749 582 749 797 819 c 1,23,24
 959 864 959 864 1017 883 c 0,25,26
 1057 898 1057 898 1092 933 c 0,27,28
 1102 946 1102 946 1102 952 c 0,29,30
 1062 1055 1062 1055 982 1055 c 2,31,-1
 970 1055 l 2,32,33
 891 1055 891 1055 756 958 c 1,34,35
 743 955 743 955 737 955 c 2,36,-1
 728 955 l 2,37,38
 701 955 701 955 683 988 c 0,39,40
 680 992 680 992 677 1010 c 0,41,42
 677 1049 677 1049 741 1083 c 1,43,44
 873 1167 873 1167 962 1167 c 2,45,-1
 989 1167 l 2,46,47
 1097 1167 1097 1167 1174 1058 c 1,48,49
 1218 988 1218 988 1225 933 c 1,50,51
 1241 868 1241 868 1241 788 c 0,52,53
 1241 766 1241 766 1225 516 c 1,54,-1
 1225 489 l 2,55,56
 1225 346 1225 346 1277 318 c 1,57,58
 1301 313 1301 313 1304 313 c 0,59,60
 1366 313 1366 313 1449 351 c 1,61,62
 1547 405 1547 405 1598 539 c 1,63,64
 1629 634 1629 634 1629 739 c 0,65,66
 1629 1008 1629 1008 1456 1244 c 1,67,68
 1377 1334 1377 1334 1332 1362 c 0,69,70
 1143 1488 1143 1488 929 1488 c 0,71,72
 663 1488 663 1488 437 1294 c 1,73,74
 331 1184 331 1184 315 1143 c 1,75,76
 212 987 212 987 212 743 c 0,77,78
 212 269 212 269 592 72 c 1,79,80
 794 -19 794 -19 976 -19 c 2,81,-1
 999 -19 l 2,82,83
 1184 -19 1184 -19 1413 58 c 1,84,-1
 1428 58 l 2,85,86
 1458 58 1458 58 1474 19 c 0,87,88
 1477 14 1477 14 1477 3 c 0,89,90
 1477 -38 1477 -38 1429 -54 c 0,91,92
 1199 -131 1199 -131 1004 -131 c 2,93,-1
 971 -131 l 2,94,95
 729 -131 729 -131 485 3 c 1,96,97
 247 146 247 146 156 400 c 0,98,99
 100 557 100 557 100 740 c 0,100,101
 100 1067 100 1067 268 1273 c 1,102,103
 275 1291 275 1291 374 1388 c 1,104,105
 627 1600 627 1600 932 1600 c 0,0,1
694 555 m 0,106,107
 694 424 694 424 792 340 c 1,108,109
 864 291 864 291 959 291 c 0,110,111
 1044 291 1044 291 1111 357 c 0,112,113
 1122 370 1122 370 1122 373 c 0,114,115
 1113 435 1113 435 1113 489 c 2,116,-1
 1113 498 l 2,117,118
 1113 554 1113 554 1128 761 c 0,119,120
 1129 761 1129 761 1129 800 c 0,121,122
 1129 802 1129 802 1128 815 c 1,123,-1
 1126 815 l 1,124,125
 1089 788 1089 788 1005 761 c 1,126,127
 832 717 832 717 773 688 c 0,128,129
 694 648 694 648 694 555 c 0,106,107
EndSplineSet
Validated: 1
EndChar

StartChar: X
Encoding: 56 88 30
Width: 1094
Flags: W
LayerCount: 2
Fore
SplineSet
157 1453 m 1,0,1
 184 1453 184 1453 224 1412 c 1,2,3
 518 1157 518 1157 548 1133 c 1,4,-1
 549 1133 l 1,5,6
 896 1438 896 1438 909 1447 c 0,7,8
 923 1453 923 1453 937 1453 c 0,9,10
 972 1453 972 1453 988 1412 c 0,11,12
 991 1407 991 1407 991 1396 c 0,13,14
 991 1364 991 1364 942 1329 c 1,15,-1
 633 1057 l 1,16,17
 678 1022 678 1022 984 755 c 1,18,19
 994 734 994 734 994 722 c 0,20,21
 994 688 994 688 942 652 c 1,22,23
 639 392 639 392 634 390 c 1,24,-1
 634 389 l 1,25,26
 970 100 970 100 982 88 c 1,27,28
 991 69 991 69 991 53 c 0,29,30
 991 17 991 17 948 1 c 0,31,32
 940 0 940 0 933 0 c 0,33,34
 909 0 909 0 866 41 c 0,35,36
 580 288 580 288 548 314 c 1,37,-1
 187 9 l 2,38,39
 173 0 173 0 157 0 c 0,40,41
 118 0 118 0 103 40 c 0,42,43
 100 48 100 48 100 56 c 0,44,45
 100 89 100 89 154 126 c 1,46,47
 460 388 460 388 461 390 c 0,48,49
 142 664 142 664 115 690 c 1,50,51
 106 709 106 709 106 723 c 0,52,53
 106 754 106 754 161 793 c 1,54,-1
 463 1059 l 1,55,56
 135 1339 135 1339 108 1368 c 1,57,58
 100 1387 100 1387 100 1398 c 0,59,60
 100 1444 100 1444 157 1453 c 1,0,1
548 984 m 1,61,-1
 250 722 l 1,62,63
 256 713 256 713 548 464 c 1,64,65
 564 475 564 475 851 722 c 1,66,-1
 548 984 l 1,61,-1
EndSplineSet
Validated: 1
EndChar

StartChar: bracketleft
Encoding: 59 91 31
Width: 702
Flags: W
LayerCount: 2
Fore
SplineSet
164 1772 m 2,0,-1
 542 1772 l 1,1,2
 602 1765 602 1765 602 1717 c 2,3,-1
 602 1714 l 1,4,5
 593 1660 593 1660 548 1660 c 2,6,-1
 215 1660 l 1,7,-1
 212 1659 l 1,8,9
 214 1623 214 1623 214 1617 c 0,10,11
 217 277 217 277 217 -217 c 0,12,13
 218 -220 218 -220 218 -221 c 1,14,15
 217 -221 217 -221 217 -223 c 2,16,-1
 537 -223 l 2,17,18
 582 -223 582 -223 599 -258 c 0,19,20
 602 -270 602 -270 602 -273 c 2,21,-1
 602 -282 l 2,22,23
 602 -318 602 -318 561 -333 c 0,24,25
 555 -336 555 -336 542 -336 c 2,26,-1
 173 -336 l 2,27,28
 126 -336 126 -336 109 -302 c 1,29,30
 105 -284 105 -284 105 -245 c 0,31,32
 105 489 105 489 100 1718 c 1,33,34
 112 1771 112 1771 151 1771 c 1,35,36
 151 1772 151 1772 164 1772 c 2,0,-1
EndSplineSet
Validated: 1
EndChar

StartChar: backslash
Encoding: 60 92 32
Width: 1209
Flags: W
LayerCount: 2
Fore
SplineSet
157 1654 m 0,0,1
 200 1654 200 1654 225 1582 c 1,2,3
 468 1103 468 1103 946 142 c 0,4,5
 1107 -175 1107 -175 1107 -181 c 0,6,7
 1109 -187 1109 -187 1109 -193 c 0,8,9
 1109 -232 1109 -232 1068 -247 c 0,10,11
 1060 -250 1060 -250 1052 -250 c 0,12,13
 1009 -250 1009 -250 983 -178 c 1,14,15
 878 30 878 30 193 1399 c 0,16,17
 100 1581 100 1581 100 1590 c 2,18,-1
 100 1597 l 2,19,20
 100 1636 100 1636 140 1651 c 0,21,22
 148 1654 148 1654 157 1654 c 0,0,1
EndSplineSet
Validated: 1
EndChar

StartChar: bracketright
Encoding: 61 93 33
Width: 601
Flags: W
LayerCount: 2
Fore
SplineSet
61 1772 m 2,0,-1
 441 1772 l 2,1,2
 492 1772 492 1772 501 1721 c 1,3,4
 501 1006 501 1006 497 -288 c 0,5,6
 497 -311 497 -311 462 -332 c 0,7,8
 449 -336 449 -336 432 -336 c 2,9,-1
 61 -336 l 2,10,11
 20 -336 20 -336 4 -300 c 0,12,13
 0 -284 0 -284 0 -279 c 0,14,15
 0 -236 0 -236 49 -224 c 0,16,17
 54 -223 54 -223 65 -223 c 2,18,-1
 385 -223 l 1,19,20
 389 1099 389 1099 389 1660 c 1,21,-1
 51 1660 l 2,22,23
 20 1660 20 1660 3 1701 c 0,24,25
 1 1706 1 1706 1 1713 c 2,26,-1
 1 1723 l 2,27,28
 1 1754 1 1754 42 1769 c 0,29,30
 48 1772 48 1772 61 1772 c 2,0,-1
EndSplineSet
Validated: 1
EndChar

StartChar: asciicircum
Encoding: 62 94 34
Width: 1048
Flags: W
LayerCount: 2
Fore
SplineSet
526 1090 m 0,0,1
 591 1090 591 1090 618 1020 c 0,2,3
 621 1009 621 1009 621 999 c 2,4,-1
 621 986 l 2,5,6
 621 930 621 930 554 900 c 0,7,8
 537 896 537 896 524 896 c 0,9,10
 458 896 458 896 430 971 c 1,11,12
 429 986 429 986 429 993 c 2,13,-1
 429 997 l 2,14,15
 429 1051 429 1051 485 1081 c 0,16,17
 503 1090 503 1090 526 1090 c 0,0,1
897 742 m 0,18,19
 921 742 921 742 943 708 c 1,20,-1
 948 686 l 1,21,22
 948 647 948 647 902 630 c 1,23,24
 488 627 488 627 150 627 c 0,25,26
 122 627 122 627 103 666 c 1,27,28
 102 680 102 680 100 683 c 0,29,30
 111 739 111 739 157 739 c 2,31,-1
 160 739 l 2,32,33
 446 739 446 739 897 742 c 0,18,19
526 483 m 0,34,35
 585 483 585 483 615 420 c 0,36,37
 621 402 621 402 621 389 c 2,38,-1
 621 383 l 2,39,40
 621 318 621 318 545 290 c 1,41,42
 526 289 526 289 523 289 c 0,43,44
 464 289 464 289 433 353 c 1,45,46
 429 371 429 371 427 386 c 0,47,48
 427 448 427 448 494 478 c 0,49,50
 513 483 513 483 526 483 c 0,34,35
EndSplineSet
Validated: 1
EndChar

StartChar: underscore
Encoding: 63 95 35
Width: 1049
Flags: W
LayerCount: 2
Fore
SplineSet
749 1198 m 2,0,-1
 759 1198 l 2,1,2
 792 1198 792 1198 807 1155 c 0,3,4
 809 1147 809 1147 809 1142 c 0,5,6
 809 1123 809 1123 749 1012 c 1,7,-1
 686 885 l 1,8,-1
 895 885 l 2,9,10
 930 885 930 885 946 845 c 0,11,12
 947 842 947 842 949 828 c 1,13,14
 938 775 938 775 898 775 c 1,15,16
 898 773 898 773 885 773 c 2,17,-1
 631 773 l 2,18,19
 628 772 628 772 548 609 c 1,20,21
 720 611 720 611 812 611 c 2,22,-1
 892 611 l 2,23,24
 930 611 930 611 946 567 c 0,25,26
 946 557 946 557 947 555 c 0,27,28
 947 516 947 516 904 500 c 0,29,30
 896 499 896 499 892 499 c 0,31,32
 811 499 811 499 491 497 c 1,33,34
 350 211 350 211 343 205 c 0,35,36
 322 185 322 185 301 185 c 0,37,38
 246 195 246 195 246 236 c 1,39,40
 245 236 245 236 245 244 c 0,41,42
 245 260 245 260 292 348 c 2,43,-1
 366 497 l 1,44,-1
 364 497 l 2,45,46
 302 496 302 496 269 496 c 2,47,-1
 157 496 l 2,48,49
 116 496 116 496 101 540 c 0,50,51
 101 549 101 549 100 551 c 0,52,53
 109 608 109 608 155 608 c 0,54,55
 226 608 226 608 422 609 c 1,56,57
 503 769 503 769 503 772 c 2,58,-1
 442 772 l 2,59,60
 340 772 340 772 154 770 c 0,61,62
 122 770 122 770 103 814 c 1,63,-1
 103 830 l 2,64,65
 103 865 103 865 143 881 c 0,66,67
 147 881 147 881 149 882 c 0,68,69
 304 884 304 884 386 884 c 2,70,-1
 558 884 l 2,71,72
 562 884 562 884 679 1122 c 0,73,74
 711 1192 711 1192 728 1192 c 1,75,76
 728 1197 728 1197 749 1198 c 2,0,-1
EndSplineSet
Validated: 1
EndChar

StartChar: braceleft
Encoding: 91 123 36
Width: 896
Flags: W
LayerCount: 2
Fore
SplineSet
741 1774 m 0,0,1
 779 1774 779 1774 795 1730 c 0,2,3
 796 1723 796 1723 796 1716 c 0,4,5
 796 1678 796 1678 753 1662 c 0,6,7
 740 1660 740 1660 732 1660 c 2,8,-1
 723 1660 l 2,9,10
 546 1660 546 1660 502 1580 c 0,11,12
 473 1527 473 1527 473 1405 c 2,13,-1
 483 1075 l 1,14,-1
 483 1034 l 2,15,16
 483 782 483 782 382 720 c 1,17,-1
 382 719 l 1,18,19
 483 654 483 654 483 404 c 2,20,-1
 483 361 l 1,21,-1
 473 33 l 1,22,23
 473 -150 473 -150 544 -185 c 1,24,25
 606 -223 606 -223 719 -223 c 2,26,-1
 732 -223 l 2,27,28
 784 -223 784 -223 795 -267 c 0,29,30
 796 -273 796 -273 796 -281 c 0,31,32
 796 -319 796 -319 753 -335 c 1,33,-1
 743 -336 l 1,34,35
 496 -336 496 -336 417 -217 c 1,36,37
 361 -141 361 -141 361 31 c 1,38,-1
 371 371 l 1,39,-1
 371 395 l 2,40,41
 371 587 371 587 319 626 c 0,42,43
 293 646 293 646 182 658 c 0,44,45
 114 668 114 668 114 682 c 1,46,47
 100 695 100 695 100 720 c 0,48,49
 100 758 100 758 143 774 c 1,50,51
 284 790 284 790 308 807 c 1,52,53
 333 815 333 815 350 859 c 0,54,55
 371 926 371 926 371 1043 c 2,56,-1
 371 1068 l 1,57,-1
 361 1408 l 1,58,59
 361 1654 361 1654 490 1721 c 1,60,61
 576 1774 576 1774 741 1774 c 0,0,1
EndSplineSet
Validated: 1
EndChar

StartChar: bar
Encoding: 92 124 37
Width: 324
Flags: W
LayerCount: 2
Fore
SplineSet
170 1772 m 2,0,1
 211 1772 211 1772 224 1723 c 1,2,-1
 224 1721 l 2,3,4
 224 1575 224 1575 213 -136 c 0,5,6
 212 -196 212 -196 212 -287 c 0,7,8
 212 -314 212 -314 173 -333 c 0,9,10
 161 -336 161 -336 155 -336 c 0,11,12
 117 -336 117 -336 101 -293 c 0,13,14
 101 -292 101 -292 100 -284 c 0,15,16
 111 1525 111 1525 112 1717 c 0,17,18
 112 1755 112 1755 157 1771 c 1,19,-1
 170 1772 l 2,0,1
EndSplineSet
Validated: 1
EndChar

StartChar: braceright
Encoding: 93 125 38
Width: 797
Flags: W
LayerCount: 2
Fore
SplineSet
55 1774 m 0,0,1
 325 1774 325 1774 397 1626 c 0,2,3
 436 1551 436 1551 436 1404 c 1,4,-1
 426 1058 l 1,5,-1
 426 1050 l 2,6,7
 426 837 426 837 485 807 c 0,8,9
 516 792 516 792 593 782 c 0,10,11
 676 774 676 774 676 762 c 1,12,13
 697 746 697 746 697 720 c 2,14,-1
 697 717 l 2,15,16
 697 680 697 680 654 664 c 1,17,18
 516 648 516 648 488 631 c 1,19,20
 477 631 477 631 454 597 c 1,21,22
 426 534 426 534 426 388 c 2,23,-1
 426 380 l 1,24,-1
 436 30 l 1,25,26
 436 -206 436 -206 320 -275 c 1,27,28
 236 -336 236 -336 53 -336 c 0,29,30
 25 -336 25 -336 5 -302 c 0,31,32
 0 -288 0 -288 0 -279 c 0,33,34
 0 -239 0 -239 45 -224 c 0,35,36
 55 -223 55 -223 64 -223 c 2,37,-1
 73 -223 l 2,38,39
 252 -223 252 -223 296 -141 c 0,40,41
 324 -86 324 -86 324 31 c 2,42,-1
 314 370 l 1,43,-1
 314 397 l 2,44,45
 314 658 314 658 415 717 c 1,46,-1
 415 719 l 1,47,48
 364 754 364 754 337 832 c 1,49,50
 314 911 314 911 314 1044 c 2,51,-1
 314 1065 l 1,52,-1
 324 1408 l 1,53,54
 324 1574 324 1574 263 1617 c 0,55,56
 201 1660 201 1660 73 1660 c 2,57,-1
 64 1660 l 2,58,59
 19 1660 19 1660 5 1696 c 0,60,61
 0 1706 0 1706 0 1720 c 0,62,63
 11 1772 11 1772 51 1772 c 1,64,65
 51 1774 51 1774 55 1774 c 0,0,1
EndSplineSet
Validated: 1
EndChar

StartChar: quoteleft
Encoding: 99 8216 39
Width: 528
Flags: W
LayerCount: 2
Fore
SplineSet
194 1148 m 1,1,2
 100 1238 100 1238 100 1360 c 0,3,4
 100 1506 100 1506 227 1590 c 1,5,6
 318 1636 318 1636 373 1636 c 0,7,8
 381 1636 381 1636 389 1633 c 0,9,10
 428 1617 428 1617 428 1580 c 0,11,12
 428 1560 428 1560 412 1539 c 0,13,14
 400 1526 400 1526 340 1517 c 1,15,16
 212 1478 212 1478 212 1359 c 0,17,18
 212 1303 212 1303 249 1254 c 1,19,20
 281 1283 281 1283 315 1283 c 2,21,-1
 324 1283 l 2,22,23
 331 1283 331 1283 339 1281 c 0,24,25
 416 1256 416 1256 416 1184 c 0,26,27
 415 1170 415 1170 412 1157 c 0,28,29
 383 1090 383 1090 321 1090 c 0,30,0
 266 1090 266 1090 194 1148 c 1,1,2
EndSplineSet
Validated: 1
EndChar

StartChar: quoteright
Encoding: 100 8217 40
Width: 528
Flags: W
LayerCount: 2
Fore
SplineSet
212 1636 m 0,0,1
 262 1636 262 1636 337 1576 c 1,2,3
 428 1485 428 1485 428 1369 c 2,4,-1
 428 1363 l 2,5,6
 428 1212 428 1212 291 1130 c 1,7,8
 206 1090 206 1090 154 1090 c 0,9,10
 117 1090 117 1090 102 1135 c 0,11,12
 102 1136 102 1136 100 1146 c 0,13,14
 100 1185 100 1185 146 1202 c 1,15,16
 187 1202 187 1202 251 1236 c 1,17,18
 316 1283 316 1283 316 1367 c 0,19,20
 316 1424 316 1424 279 1473 c 1,21,22
 251 1443 251 1443 215 1443 c 2,23,-1
 206 1443 l 2,24,25
 146 1443 146 1443 118 1511 c 0,26,27
 113 1523 113 1523 113 1536 c 2,28,-1
 113 1548 l 2,29,30
 113 1600 113 1600 176 1630 c 0,31,32
 195 1636 195 1636 212 1636 c 0,0,1
EndSplineSet
Validated: 1
EndChar

StartChar: quotedblleft
Encoding: 101 8220 41
Width: 852
Flags: W
LayerCount: 2
Fore
SplineSet
194 1148 m 1,1,2
 100 1238 100 1238 100 1360 c 0,3,4
 100 1506 100 1506 227 1590 c 1,5,6
 318 1636 318 1636 373 1636 c 0,7,8
 381 1636 381 1636 389 1633 c 0,9,10
 428 1617 428 1617 428 1580 c 0,11,12
 428 1560 428 1560 412 1539 c 0,13,14
 400 1526 400 1526 340 1517 c 1,15,16
 212 1478 212 1478 212 1359 c 0,17,18
 212 1303 212 1303 249 1254 c 1,19,20
 281 1283 281 1283 315 1283 c 2,21,-1
 324 1283 l 2,22,23
 331 1283 331 1283 339 1281 c 0,24,25
 416 1256 416 1256 416 1184 c 0,26,27
 415 1170 415 1170 412 1157 c 0,28,29
 383 1090 383 1090 321 1090 c 0,30,0
 266 1090 266 1090 194 1148 c 1,1,2
556 1118 m 1,32,33
 423 1210 423 1210 423 1360 c 0,34,35
 423 1508 423 1508 552 1591 c 1,36,37
 633 1632 633 1632 696 1636 c 0,38,39
 742 1636 742 1636 752 1580 c 1,40,41
 752 1529 752 1529 678 1520 c 1,42,43
 535 1487 535 1487 535 1360 c 0,44,45
 535 1306 535 1306 571 1253 c 1,46,47
 603 1283 603 1283 638 1283 c 2,48,-1
 646 1283 l 2,49,50
 661 1283 661 1283 675 1277 c 0,51,52
 738 1248 738 1248 738 1192 c 2,53,-1
 738 1180 l 2,54,55
 738 1173 738 1173 737 1163 c 0,56,57
 710 1090 710 1090 643 1090 c 0,58,31
 612 1090 612 1090 556 1118 c 1,32,33
EndSplineSet
Validated: 1
EndChar

StartChar: quotedblright
Encoding: 102 8221 42
Width: 852
Flags: W
LayerCount: 2
Fore
SplineSet
212 1636 m 0,0,1
 262 1636 262 1636 337 1576 c 1,2,3
 428 1485 428 1485 428 1369 c 2,4,-1
 428 1363 l 2,5,6
 428 1212 428 1212 291 1130 c 1,7,8
 206 1090 206 1090 154 1090 c 0,9,10
 117 1090 117 1090 102 1135 c 0,11,12
 102 1136 102 1136 100 1146 c 0,13,14
 100 1185 100 1185 146 1202 c 1,15,16
 187 1202 187 1202 251 1236 c 1,17,18
 316 1283 316 1283 316 1367 c 0,19,20
 316 1424 316 1424 279 1473 c 1,21,22
 251 1443 251 1443 215 1443 c 2,23,-1
 206 1443 l 2,24,25
 146 1443 146 1443 118 1511 c 0,26,27
 113 1523 113 1523 113 1536 c 2,28,-1
 113 1548 l 2,29,30
 113 1600 113 1600 176 1630 c 0,31,32
 195 1636 195 1636 212 1636 c 0,0,1
534 1636 m 0,33,34
 594 1636 594 1636 675 1561 c 1,35,36
 752 1473 752 1473 752 1366 c 0,37,38
 752 1197 752 1197 587 1117 c 1,39,40
 512 1090 512 1090 477 1090 c 0,41,42
 441 1090 441 1090 425 1133 c 0,43,44
 423 1141 423 1141 423 1148 c 0,45,46
 423 1196 423 1196 489 1205 c 0,47,48
 537 1213 537 1213 573 1236 c 0,49,50
 640 1284 640 1284 640 1364 c 0,51,52
 640 1419 640 1419 604 1473 c 1,53,54
 571 1443 571 1443 537 1443 c 2,55,-1
 528 1443 l 2,56,57
 473 1443 473 1443 443 1505 c 0,58,59
 437 1519 437 1519 435 1540 c 0,60,61
 435 1606 435 1606 508 1633 c 0,62,63
 526 1636 526 1636 534 1636 c 0,33,34
EndSplineSet
Validated: 1
EndChar

StartChar: Creator
Encoding: 96 169 43
Width: 1914
Flags: W
LayerCount: 2
Fore
SplineSet
1189 1709 m 0,0,1
 1208 1709 1208 1709 1222 1686 c 1,2,-1
 1230 1683 l 1,3,4
 1226 1657 1226 1657 1219 1657 c 2,5,-1
 1211 1657 l 1,6,7
 1188 1689 1188 1689 1174 1695 c 1,8,-1
 1167 1690 l 2,9,10
 1164 1690 1164 1690 1164 1695 c 1,11,12
 1112 1695 1112 1695 1048 1590 c 1,13,14
 1007 1513 1007 1513 969 1286 c 1,15,-1
 969 1282 l 1,16,-1
 962 1282 l 1,17,-1
 962 1360 l 1,18,19
 978 1504 978 1504 1062 1635 c 0,20,21
 1113 1709 1113 1709 1189 1709 c 0,0,1
792 1676 m 0,22,23
 888 1676 888 1676 936 1523 c 1,24,25
 948 1456 948 1456 951 1393 c 0,26,27
 948 1374 948 1374 948 1349 c 2,28,-1
 951 1304 l 1,29,-1
 948 1296 l 1,30,31
 951 1290 951 1290 951 1282 c 2,32,-1
 951 1267 l 1,33,-1
 944 1267 l 1,34,35
 930 1458 930 1458 895 1553 c 0,36,37
 853 1660 853 1660 799 1660 c 2,38,-1
 792 1660 l 2,39,40
 683 1660 683 1660 587 1445 c 1,41,-1
 583 1445 l 2,42,43
 576 1445 576 1445 576 1456 c 0,44,45
 598 1527 598 1527 695 1642 c 1,46,47
 741 1676 741 1676 792 1676 c 0,22,23
1308 1642 m 0,48,49
 1353 1642 1353 1642 1387 1565 c 1,50,51
 1382 1521 1382 1521 1371 1497 c 1,52,-1
 1364 1497 l 1,53,-1
 1364 1501 l 2,54,55
 1364 1513 1364 1513 1368 1519 c 1,56,57
 1368 1609 1368 1609 1301 1635 c 0,58,59
 1292 1635 1292 1635 1256 1623 c 1,60,61
 1266 1642 1266 1642 1308 1642 c 0,48,49
1248 1620 m 1,62,63
 1248 1614 1248 1614 1238 1609 c 1,64,-1
 1230 1609 l 1,65,66
 1230 1617 1230 1617 1248 1620 c 1,62,63
1222 1605 m 2,67,-1
 1226 1605 l 1,68,69
 1226 1598 1226 1598 1219 1598 c 2,70,-1
 1215 1598 l 1,71,72
 1216 1605 1216 1605 1222 1605 c 2,67,-1
1201 1586 m 1,73,-1
 1204 1586 l 1,74,75
 1204 1582 1204 1582 1171 1553 c 1,76,-1
 1167 1553 l 1,77,78
 1167 1557 1167 1557 1201 1586 c 1,73,-1
762 1501 m 2,79,-1
 776 1501 l 2,80,81
 855 1501 855 1501 903 1330 c 1,82,-1
 914 1226 l 1,83,-1
 911 1219 l 1,84,-1
 914 1212 l 1,85,86
 906 1188 906 1188 895 1185 c 0,87,88
 887 1185 887 1185 876 1300 c 1,89,90
 839 1436 839 1436 825 1468 c 1,91,92
 803 1485 803 1485 762 1490 c 0,93,94
 729 1490 729 1490 650 1371 c 1,95,-1
 646 1379 l 1,96,97
 707 1501 707 1501 762 1501 c 2,79,-1
1294 1482 m 1,98,99
 1330 1482 1330 1482 1357 1426 c 1,100,-1
 1357 1419 l 2,101,102
 1357 1416 1357 1416 1352 1416 c 1,103,-1
 1357 1408 l 1,104,105
 1357 1362 1357 1362 1319 1323 c 1,106,-1
 1315 1330 l 1,107,-1
 1315 1342 l 1,108,-1
 1338 1416 l 1,109,110
 1332 1475 1332 1475 1294 1475 c 1,111,-1
 1294 1482 l 1,98,99
1248 1468 m 2,112,-1
 1256 1468 l 1,113,114
 1256 1460 1256 1460 1248 1460 c 2,115,-1
 1241 1460 l 1,116,117
 1242 1468 1242 1468 1248 1468 c 2,112,-1
1108 1463 m 1,118,-1
 1108 1456 l 1,119,120
 1104 1449 1104 1449 1104 1445 c 1,121,-1
 1096 1445 l 1,122,-1
 1096 1449 l 1,123,124
 1102 1463 1102 1463 1108 1463 c 1,118,-1
1501 1460 m 0,125,126
 1628 1460 1628 1460 1628 1382 c 2,127,-1
 1628 1367 l 2,128,129
 1628 1311 1628 1311 1575 1289 c 1,130,-1
 1572 1289 l 1,131,-1
 1572 1293 l 1,132,133
 1601 1355 1601 1355 1601 1386 c 0,134,135
 1601 1449 1601 1449 1520 1449 c 0,136,137
 1462 1449 1462 1449 1378 1400 c 1,138,-1
 1375 1400 l 2,139,140
 1368 1400 1368 1400 1368 1408 c 1,141,142
 1451 1460 1451 1460 1501 1460 c 0,125,126
468 1442 m 1,143,-1
 476 1442 l 1,144,-1
 479 1423 l 1,145,-1
 476 1405 l 1,146,147
 479 1397 479 1397 479 1393 c 2,148,-1
 476 1386 l 1,149,-1
 483 1349 l 1,150,-1
 479 1349 l 1,151,-1
 486 1326 l 1,152,153
 483 1320 483 1320 483 1312 c 0,154,155
 515 1082 515 1082 553 1082 c 2,156,-1
 557 1082 l 2,157,158
 577 1082 577 1082 632 1126 c 1,159,160
 668 1140 668 1140 676 1140 c 0,161,162
 731 1140 731 1140 743 1089 c 1,163,-1
 743 1082 l 1,164,165
 739 1033 739 1033 728 1033 c 1,166,167
 728 1129 728 1129 683 1129 c 0,168,169
 660 1129 660 1129 579 1070 c 1,170,-1
 561 1070 l 2,171,172
 490 1070 490 1070 468 1300 c 0,173,174
 464 1358 464 1358 464 1400 c 0,175,176
 464 1409 464 1409 468 1442 c 1,143,-1
1096 1438 m 1,177,-1
 1096 1430 l 1,178,179
 1039 1313 1039 1313 1025 1252 c 1,180,-1
 1018 1252 l 1,181,-1
 1018 1256 l 1,182,183
 1053 1388 1053 1388 1096 1438 c 1,177,-1
1304 1371 m 1,184,-1
 1308 1363 l 1,185,-1
 1152 1252 l 1,186,187
 1134 1233 1134 1233 1118 1230 c 1,188,-1
 1111 1240 l 1,189,190
 1122 1256 1122 1256 1304 1371 c 1,184,-1
1148 1363 m 1,191,-1
 1148 1360 l 2,192,193
 1148 1352 1148 1352 1141 1352 c 1,194,-1
 1141 1356 l 2,195,196
 1142 1363 1142 1363 1148 1363 c 1,191,-1
1397 1363 m 1,197,198
 1403 1363 1403 1363 1408 1352 c 1,199,-1
 1408 1349 l 1,200,-1
 1401 1349 l 1,201,-1
 1397 1363 l 1,197,198
364 1352 m 2,202,-1
 367 1352 l 2,203,204
 374 1352 374 1352 379 1337 c 1,205,206
 375 1311 375 1311 375 1308 c 0,207,208
 382 1149 382 1149 446 1033 c 1,209,210
 486 980 486 980 509 980 c 1,211,212
 537 991 537 991 625 1063 c 1,213,214
 654 1066 654 1066 662 1070 c 1,215,216
 694 1061 694 1061 702 1040 c 1,217,-1
 702 1010 l 1,218,-1
 695 1010 l 1,219,220
 695 1059 695 1059 662 1059 c 0,221,222
 639 1059 639 1059 569 980 c 0,223,224
 548 962 548 962 523 962 c 0,225,226
 470 962 470 962 442 1010 c 1,227,228
 356 1104 356 1104 356 1293 c 1,229,-1
 353 1326 l 1,230,231
 356 1352 356 1352 364 1352 c 2,202,-1
1357 1345 m 1,232,-1
 1364 1345 l 1,233,234
 1375 1318 1375 1318 1375 1312 c 1,235,236
 1369 1312 1369 1312 1357 1337 c 1,237,-1
 1357 1345 l 1,232,-1
1382 1337 m 1,238,239
 1390 1336 1390 1336 1390 1330 c 2,240,-1
 1390 1323 l 1,241,242
 1382 1323 1382 1323 1382 1330 c 2,243,-1
 1382 1337 l 1,238,239
1334 1308 m 1,244,-1
 1338 1308 l 2,245,246
 1345 1307 1345 1307 1345 1300 c 2,247,-1
 1345 1296 l 1,248,-1
 1338 1296 l 1,249,250
 1338 1300 1338 1300 1334 1308 c 1,244,-1
1397 1308 m 1,251,-1
 1401 1308 l 2,252,253
 1410 1308 1410 1308 1415 1278 c 1,254,-1
 1408 1275 l 1,255,256
 1397 1297 1397 1297 1397 1308 c 1,251,-1
1312 1304 m 1,257,-1
 1315 1304 l 2,258,259
 1323 1304 1323 1304 1331 1275 c 1,260,261
 1325 1275 1325 1275 1312 1296 c 1,262,-1
 1312 1304 l 1,257,-1
821 1296 m 2,263,-1
 836 1296 l 1,264,-1
 836 1293 l 1,265,266
 831 1287 831 1287 755 1256 c 1,267,268
 720 1222 720 1222 669 1156 c 1,269,-1
 665 1163 l 1,270,-1
 665 1166 l 1,271,272
 691 1237 691 1237 765 1282 c 1,273,274
 807 1296 807 1296 821 1296 c 2,263,-1
1387 1286 m 1,275,276
 1397 1282 1397 1282 1397 1263 c 1,277,-1
 1390 1263 l 1,278,-1
 1387 1282 l 1,279,-1
 1387 1286 l 1,275,276
1092 1282 m 1,280,-1
 1092 1278 l 1,281,282
 1079 1246 1079 1246 1071 1245 c 2,283,-1
 1066 1245 l 1,284,-1
 1066 1249 l 1,285,286
 1087 1282 1087 1282 1092 1282 c 1,280,-1
1352 1278 m 1,287,-1
 1357 1278 l 1,288,289
 1375 1265 1375 1265 1375 1237 c 1,290,-1
 1371 1237 l 2,291,292
 1367 1237 1367 1237 1352 1267 c 1,293,-1
 1352 1278 l 1,287,-1
1278 1263 m 1,294,295
 1283 1263 1283 1263 1289 1252 c 1,296,-1
 1289 1245 l 1,297,298
 1284 1245 1284 1245 1278 1256 c 1,299,-1
 1278 1263 l 1,294,295
1338 1263 m 1,300,-1
 1345 1263 l 1,301,302
 1345 1259 1345 1259 1360 1233 c 1,303,-1
 1349 1226 l 1,304,305
 1341 1226 1341 1226 1331 1259 c 1,306,-1
 1338 1263 l 1,300,-1
1301 1230 m 1,307,308
 1315 1224 1315 1224 1315 1203 c 2,309,-1
 1315 1200 l 1,310,-1
 1312 1200 l 2,311,312
 1301 1203 1301 1203 1301 1222 c 2,313,-1
 1301 1230 l 1,307,308
1282 1207 m 1,314,-1
 1285 1207 l 2,315,316
 1294 1206 1294 1206 1294 1200 c 2,317,-1
 1294 1196 l 1,318,-1
 1289 1196 l 2,319,320
 1282 1196 1282 1196 1282 1203 c 2,321,-1
 1282 1207 l 1,314,-1
1275 1185 m 1,322,-1
 1278 1185 l 2,323,324
 1285 1184 1285 1184 1285 1178 c 2,325,-1
 1285 1174 l 1,326,-1
 1275 1174 l 1,327,-1
 1275 1185 l 1,322,-1
918 1182 m 2,328,-1
 922 1182 l 1,329,-1
 922 1178 l 2,330,331
 922 1170 922 1170 914 1170 c 2,332,-1
 911 1170 l 1,333,-1
 911 1174 l 2,334,335
 912 1182 912 1182 918 1182 c 2,328,-1
1264 1182 m 2,336,-1
 1267 1182 l 1,337,-1
 1271 1159 l 1,338,339
 1265 1159 1265 1159 1256 1174 c 1,340,341
 1257 1182 1257 1182 1264 1182 c 2,336,-1
1364 1178 m 0,342,343
 1413 1178 1413 1178 1453 1129 c 0,344,345
 1465 1116 1465 1116 1487 1063 c 1,346,-1
 1483 1063 l 1,347,348
 1494 1040 1494 1040 1498 989 c 1,349,-1
 1494 989 l 1,350,-1
 1498 980 l 1,351,-1
 1498 955 l 2,352,353
 1498 947 1498 947 1490 947 c 2,354,-1
 1487 947 l 1,355,-1
 1479 952 l 1,356,357
 1479 934 1479 934 1475 929 c 1,358,359
 1485 929 1485 929 1487 910 c 1,360,-1
 1479 906 l 1,361,-1
 1479 917 l 1,362,-1
 1471 914 l 1,363,-1
 1464 914 l 1,364,365
 1464 922 1464 922 1457 922 c 1,366,-1
 1457 929 l 1,367,368
 1468 929 1468 929 1468 936 c 1,369,-1
 1464 936 l 1,370,371
 1420 909 1420 909 1420 899 c 1,372,373
 1415 899 1415 899 1415 903 c 2,374,-1
 1408 899 l 1,375,-1
 1405 899 l 1,376,-1
 1405 903 l 1,377,378
 1451 943 1451 943 1468 943 c 1,379,-1
 1468 947 l 1,380,-1
 1453 947 l 1,381,382
 1428 942 1428 942 1378 880 c 1,383,-1
 1371 884 l 1,384,385
 1339 884 1339 884 1294 832 c 1,386,387
 1294 817 1294 817 1285 817 c 1,388,-1
 1289 810 l 1,389,-1
 1289 803 l 1,390,-1
 1275 803 l 2,391,392
 1254 803 1254 803 1245 880 c 1,393,-1
 1248 888 l 1,394,-1
 1245 910 l 1,395,-1
 1248 910 l 1,396,397
 1248 914 1248 914 1245 914 c 1,398,399
 1254 1139 1254 1139 1331 1170 c 0,400,401
 1355 1178 1355 1178 1364 1178 c 0,342,343
903 1156 m 2,402,-1
 906 1156 l 1,403,404
 906 1148 906 1148 899 1148 c 2,405,-1
 895 1148 l 1,406,407
 897 1156 897 1156 903 1156 c 2,402,-1
1129 1156 m 0,408,409
 1139 1156 1139 1156 1171 1133 c 1,410,411
 1230 1114 1230 1114 1230 970 c 1,412,-1
 1226 952 l 2,413,414
 1226 947 1226 947 1230 940 c 1,415,416
 1210 766 1210 766 1178 766 c 1,417,418
 1158 762 1158 762 1145 762 c 1,419,-1
 1148 754 l 1,420,-1
 1148 713 l 1,421,422
 1143 645 1143 645 1099 632 c 1,423,-1
 1099 636 l 1,424,425
 1129 680 1129 680 1129 695 c 2,426,-1
 1129 702 l 1,427,428
 1119 720 1119 720 1108 720 c 2,429,-1
 1099 717 l 1,430,431
 1092 720 1092 720 1089 720 c 0,432,433
 1073 703 1073 703 1062 687 c 1,434,-1
 1062 657 l 1,435,-1
 1059 657 l 1,436,437
 1044 664 1044 664 1044 683 c 0,438,439
 1044 698 1044 698 1081 739 c 1,440,-1
 1081 743 l 2,441,442
 1081 748 1081 748 1055 769 c 1,443,-1
 1052 769 l 1,444,445
 999 722 999 722 999 676 c 1,446,-1
 996 676 l 2,447,448
 965 676 965 676 932 736 c 1,449,450
 918 792 918 792 918 799 c 1,451,-1
 922 799 l 1,452,-1
 914 832 l 1,453,454
 928 955 928 955 959 1003 c 0,455,456
 1044 1156 1044 1156 1129 1156 c 0,408,409
955 1152 m 1,457,-1
 969 1152 l 2,458,459
 976 1152 976 1152 981 1140 c 0,460,461
 981 1132 981 1132 936 1126 c 1,462,-1
 936 1129 l 1,463,464
 942 1144 942 1144 955 1152 c 1,457,-1
914 1148 m 2,465,-1
 918 1148 l 1,466,-1
 918 1140 l 1,467,-1
 906 1140 l 1,468,469
 907 1148 907 1148 914 1148 c 2,465,-1
899 1137 m 1,470,471
 899 1129 899 1129 876 1126 c 1,472,473
 881 1137 881 1137 899 1137 c 1,470,471
996 1133 m 1,474,-1
 996 1126 l 1,475,-1
 929 1103 l 1,476,-1
 929 1107 l 2,477,478
 929 1116 929 1116 996 1133 c 1,474,-1
918 1129 m 1,479,-1
 918 1126 l 2,480,481
 918 1114 918 1114 873 1103 c 1,482,-1
 869 1110 l 1,483,484
 895 1129 895 1129 918 1129 c 1,479,-1
304 1122 m 1,485,-1
 312 1122 l 1,486,487
 316 1090 316 1090 316 1085 c 1,488,-1
 309 1085 l 1,489,-1
 309 1103 l 1,490,-1
 304 1122 l 1,485,-1
1238 1115 m 1,491,-1
 1241 1107 l 1,492,-1
 1230 1107 l 1,493,494
 1232 1115 1232 1115 1238 1115 c 1,491,-1
988 1110 m 1,495,-1
 992 1110 l 1,496,497
 970 1073 970 1073 911 1073 c 1,498,499
 911 1070 911 1070 906 1070 c 1,500,-1
 903 1077 l 1,501,502
 918 1092 918 1092 988 1110 c 1,495,-1
1308 970 m 1,503,504
 1312 963 1312 963 1312 959 c 1,505,-1
 1308 959 l 1,506,507
 1313 929 1313 929 1338 929 c 2,508,-1
 1345 929 l 1,509,510
 1363 941 1363 941 1390 996 c 1,511,-1
 1387 1003 l 1,512,513
 1394 1018 1394 1018 1394 1044 c 1,514,-1
 1390 1063 l 1,515,-1
 1394 1063 l 1,516,517
 1384 1100 1384 1100 1360 1100 c 0,518,519
 1334 1100 1334 1100 1312 1003 c 1,520,-1
 1308 970 l 1,503,504
895 1100 m 1,521,-1
 895 1092 l 1,522,523
 882 1092 882 1092 873 1085 c 1,524,-1
 869 1085 l 1,525,-1
 869 1089 l 2,526,527
 869 1097 869 1097 895 1100 c 1,521,-1
312 1077 m 1,528,-1
 316 1077 l 1,529,530
 337 1045 337 1045 364 977 c 1,531,532
 391 938 391 938 409 922 c 1,533,-1
 405 922 l 1,534,535
 344 961 344 961 312 1077 c 1,528,-1
869 1073 m 1,536,-1
 888 1073 l 1,537,-1
 888 1066 l 1,538,539
 871 1066 871 1066 866 1063 c 1,540,-1
 862 1070 l 1,541,-1
 869 1073 l 1,536,-1
951 1070 m 1,542,-1
 955 1063 l 1,543,544
 942 1047 942 1047 895 1047 c 1,545,-1
 895 1052 l 2,546,547
 895 1063 895 1063 951 1070 c 1,542,-1
1025 943 m 1,548,549
 1032 873 1032 873 1052 873 c 2,550,-1
 1055 873 l 2,551,552
 1090 873 1090 873 1129 962 c 1,553,554
 1137 999 1137 999 1137 1010 c 0,555,556
 1137 1052 1137 1052 1108 1063 c 1,557,558
 1025 1028 1025 1028 1025 943 c 1,548,549
881 1055 m 1,559,-1
 885 1047 l 1,560,561
 872 1040 872 1040 862 1040 c 1,562,-1
 862 1044 l 2,563,564
 862 1053 862 1053 881 1055 c 1,559,-1
1375 1047 m 1,565,-1
 1378 1047 l 1,566,-1
 1378 1036 l 1,567,-1
 1360 1010 l 1,568,-1
 1371 992 l 1,569,-1
 1364 989 l 1,570,571
 1364 994 1364 994 1352 999 c 0,572,573
 1343 999 1343 999 1341 985 c 1,574,-1
 1334 985 l 1,575,-1
 1334 989 l 2,576,577
 1334 995 1334 995 1345 1018 c 1,578,579
 1338 1030 1338 1030 1338 1040 c 1,580,-1
 1352 1026 l 1,581,-1
 1375 1047 l 1,565,-1
940 1044 m 1,582,-1
 940 1040 l 2,583,584
 940 1032 940 1032 892 1026 c 1,585,-1
 892 1033 l 1,586,-1
 940 1044 l 1,582,-1
839 1033 m 1,587,-1
 839 1026 l 1,588,-1
 706 962 l 1,589,590
 675 952 675 952 665 952 c 1,591,592
 703 975 703 975 839 1033 c 1,587,-1
929 1022 m 2,593,-1
 932 1014 l 1,594,595
 926 1010 926 1010 888 1007 c 1,596,-1
 888 1014 l 1,597,598
 927 1022 927 1022 929 1022 c 2,593,-1
895 999 m 1,599,-1
 914 999 l 1,600,-1
 914 992 l 1,601,-1
 895 992 l 1,602,-1
 895 999 l 1,599,-1
1055 996 m 1,603,-1
 1059 996 l 2,604,605
 1061 996 1061 996 1078 977 c 1,606,607
 1078 980 1078 980 1081 980 c 2,608,-1
 1081 977 l 2,609,610
 1081 969 1081 969 1078 962 c 1,611,-1
 1092 936 l 2,612,613
 1092 929 1092 929 1085 929 c 1,614,615
 1078 945 1078 945 1071 947 c 0,616,617
 1062 947 1062 947 1055 922 c 1,618,-1
 1048 922 l 1,619,-1
 1048 929 l 2,620,621
 1048 942 1048 942 1062 962 c 1,622,-1
 1062 966 l 2,623,624
 1062 982 1062 982 1055 996 c 1,603,-1
862 992 m 1,625,-1
 866 985 l 1,626,-1
 858 980 l 1,627,-1
 855 989 l 1,628,-1
 862 992 l 1,625,-1
646 989 m 2,629,-1
 646 985 l 1,630,631
 597 892 597 892 532 892 c 1,632,-1
 532 899 l 1,633,634
 537 899 537 899 569 914 c 1,635,636
 579 914 579 914 628 973 c 0,637,638
 644 989 644 989 646 989 c 2,629,-1
922 977 m 1,639,-1
 922 973 l 1,640,641
 904 955 904 955 881 955 c 1,642,-1
 876 962 l 1,643,-1
 876 966 l 2,644,645
 876 975 876 975 922 977 c 1,639,-1
829 973 m 2,646,-1
 836 973 l 2,647,648
 843 972 843 972 843 966 c 1,649,650
 796 940 796 940 672 906 c 1,651,652
 674 912 674 912 821 966 c 1,653,654
 823 973 823 973 829 973 c 2,646,-1
646 947 m 2,655,-1
 658 947 l 1,656,657
 658 940 658 940 650 940 c 2,658,-1
 639 940 l 1,659,660
 640 947 640 947 646 947 c 2,655,-1
885 947 m 2,661,-1
 903 947 l 1,662,-1
 903 940 l 1,663,-1
 876 936 l 1,664,-1
 876 940 l 2,665,666
 879 947 879 947 885 947 c 2,661,-1
825 929 m 1,667,-1
 832 929 l 1,668,-1
 832 855 l 1,669,-1
 825 855 l 1,670,671
 825 876 825 876 821 914 c 1,672,673
 825 921 825 921 825 929 c 1,667,-1
788 922 m 1,674,-1
 792 914 l 2,675,676
 792 906 792 906 784 906 c 1,677,-1
 780 914 l 1,678,679
 781 922 781 922 788 922 c 1,674,-1
876 922 m 1,680,-1
 892 922 l 1,681,-1
 892 917 l 1,682,683
 884 917 884 917 876 914 c 1,684,-1
 876 922 l 1,680,-1
1450 922 m 1,685,686
 1450 911 1450 911 1461 896 c 1,687,-1
 1461 888 l 2,688,689
 1460 880 1460 880 1424 869 c 1,690,691
 1407 823 1407 823 1371 806 c 1,692,-1
 1360 799 l 1,693,-1
 1360 806 l 2,694,695
 1360 818 1360 818 1382 866 c 1,696,-1
 1378 873 l 1,697,-1
 1382 873 l 1,698,-1
 1390 869 l 1,699,700
 1433 906 1433 906 1442 906 c 1,701,-1
 1438 914 l 1,702,-1
 1438 917 l 1,703,704
 1442 917 1442 917 1450 922 c 1,685,686
773 917 m 1,705,-1
 773 899 l 1,706,-1
 765 899 l 1,707,-1
 765 910 l 2,708,709
 767 917 767 917 773 917 c 1,705,-1
1754 910 m 1,710,711
 1795 910 1795 910 1814 869 c 1,712,-1
 1814 847 l 2,713,714
 1814 792 1814 792 1698 583 c 1,715,716
 1675 521 1675 521 1647 513 c 1,717,718
 1600 509 1600 509 1598 509 c 2,719,-1
 1598 513 l 1,720,-1
 1591 509 l 1,721,-1
 1587 509 l 1,722,723
 1341 559 1341 559 1341 576 c 2,724,-1
 1341 580 l 1,725,726
 1536 535 1536 535 1601 535 c 2,727,-1
 1610 535 l 2,728,729
 1650 535 1650 535 1713 691 c 1,730,731
 1749 732 1749 732 1787 862 c 1,732,-1
 1787 866 l 2,733,734
 1787 896 1787 896 1754 896 c 0,735,736
 1731 895 1731 895 1631 873 c 1,737,-1
 1624 877 l 1,738,739
 1585 866 1585 866 1531 866 c 1,740,-1
 1531 873 l 1,741,742
 1672 899 1672 899 1754 910 c 1,710,711
665 906 m 1,743,-1
 669 906 l 1,744,-1
 662 896 l 1,745,746
 720 896 720 896 736 810 c 1,747,748
 732 810 732 810 732 806 c 0,749,750
 739 803 739 803 743 803 c 0,751,752
 831 836 831 836 848 836 c 1,753,754
 845 828 845 828 728 792 c 0,755,756
 722 792 722 792 713 850 c 1,757,758
 684 884 684 884 672 884 c 0,759,760
 642 884 642 884 620 869 c 1,761,762
 620 880 620 880 606 880 c 1,763,764
 612 891 612 891 665 906 c 1,743,-1
746 906 m 1,765,-1
 755 906 l 1,766,-1
 755 888 l 1,767,-1
 746 888 l 1,768,-1
 746 906 l 1,765,-1
899 906 m 1,769,-1
 899 899 l 1,770,-1
 873 896 l 1,771,-1
 873 903 l 1,772,773
 885 903 885 903 899 906 c 1,769,-1
788 903 m 1,774,-1
 792 896 l 1,775,-1
 792 869 l 2,776,777
 792 829 792 829 780 829 c 2,778,-1
 769 829 l 1,779,780
 781 903 781 903 788 903 c 1,774,-1
802 899 m 1,781,-1
 810 899 l 1,782,-1
 810 869 l 2,783,784
 810 861 810 861 813 855 c 1,785,786
 810 847 810 847 810 843 c 1,787,-1
 802 843 l 1,788,-1
 802 899 l 1,781,-1
460 896 m 1,789,-1
 479 892 l 1,790,-1
 479 884 l 1,791,-1
 460 888 l 1,792,-1
 460 896 l 1,789,-1
494 892 m 1,793,-1
 520 892 l 1,794,795
 520 884 520 884 513 884 c 2,796,-1
 494 884 l 1,797,-1
 494 892 l 1,793,-1
1468 880 m 1,798,-1
 1468 877 l 1,799,800
 1461 862 1461 862 1445 862 c 1,801,-1
 1442 869 l 1,802,803
 1461 880 1461 880 1468 880 c 1,798,-1
743 877 m 1,804,-1
 750 877 l 1,805,-1
 750 855 l 1,806,-1
 743 855 l 1,807,-1
 743 877 l 1,804,-1
1368 877 m 1,808,-1
 1368 873 l 1,809,810
 1357 857 1357 857 1297 817 c 1,811,-1
 1297 821 l 1,812,813
 1313 853 1313 853 1368 877 c 1,808,-1
1464 866 m 1,814,815
 1471 865 1471 865 1471 859 c 256,816,817
 1471 853 1471 853 1453 843 c 1,818,-1
 1445 843 l 1,819,-1
 1445 850 l 2,820,821
 1445 856 1445 856 1464 866 c 1,814,815
758 862 m 1,822,-1
 765 862 l 1,823,824
 763 821 763 821 755 821 c 2,825,-1
 750 821 l 1,826,-1
 750 836 l 1,827,828
 758 844 758 844 758 862 c 1,822,-1
1434 862 m 1,829,-1
 1438 862 l 1,830,-1
 1442 836 l 1,831,-1
 1420 821 l 1,832,833
 1412 821 1412 821 1412 829 c 0,834,835
 1423 853 1423 853 1434 862 c 1,829,-1
550 859 m 1,836,-1
 561 859 l 1,837,838
 542 783 542 783 542 750 c 0,839,840
 555 590 555 590 602 569 c 0,841,842
 602 567 602 567 625 546 c 1,843,-1
 616 546 l 2,844,845
 576 546 576 546 535 665 c 1,846,-1
 523 720 l 1,847,848
 527 728 527 728 527 736 c 2,849,-1
 527 750 l 1,850,851
 489 699 489 699 457 699 c 0,852,853
 432 699 432 699 409 729 c 1,854,855
 409 757 409 757 439 792 c 1,856,-1
 439 787 l 2,857,858
 439 756 439 756 420 732 c 1,859,860
 421 724 421 724 427 724 c 0,861,862
 470 724 470 724 505 829 c 1,863,-1
 505 832 l 1,864,-1
 490 832 l 1,865,866
 490 840 490 840 550 859 c 1,836,-1
895 859 m 1,867,-1
 899 850 l 1,868,869
 881 840 881 840 869 840 c 1,870,-1
 866 847 l 2,871,872
 869 847 869 847 895 859 c 1,867,-1
1364 855 m 1,873,-1
 1368 855 l 1,874,875
 1345 798 1345 798 1345 780 c 1,876,877
 1337 780 1337 780 1312 795 c 1,878,-1
 1312 803 l 1,879,880
 1338 803 1338 803 1349 843 c 1,881,-1
 1364 855 l 1,873,-1
1706 850 m 1,882,-1
 1710 850 l 2,883,884
 1715 850 1715 850 1721 840 c 1,885,-1
 1721 810 l 1,886,887
 1693 750 1693 750 1668 717 c 1,888,-1
 1661 717 l 1,889,-1
 1661 720 l 1,890,891
 1692 780 1692 780 1713 843 c 1,892,893
 1706 843 1706 843 1706 850 c 1,882,-1
1468 847 m 1,894,-1
 1479 847 l 1,895,-1
 1479 843 l 2,896,897
 1478 837 1478 837 1442 817 c 1,898,-1
 1442 821 l 2,899,900
 1443 831 1443 831 1468 847 c 1,894,-1
895 832 m 1,901,-1
 899 825 l 1,902,-1
 892 821 l 1,903,-1
 881 821 l 1,904,-1
 881 829 l 1,905,906
 889 829 889 829 895 832 c 1,901,-1
1331 832 m 1,907,-1
 1334 832 l 1,908,-1
 1334 829 l 2,909,910
 1334 820 1334 820 1315 817 c 1,911,912
 1315 824 1315 824 1331 832 c 1,907,-1
1479 829 m 1,913,-1
 1483 829 l 1,914,915
 1483 823 1483 823 1490 813 c 1,916,-1
 1490 806 l 1,917,-1
 1453 792 l 1,918,919
 1453 801 1453 801 1468 803 c 1,920,-1
 1468 810 l 1,921,-1
 1464 817 l 1,922,-1
 1479 829 l 1,913,-1
1405 821 m 1,923,-1
 1408 813 l 1,924,925
 1393 806 1393 806 1357 780 c 1,926,-1
 1352 787 l 1,927,928
 1358 796 1358 796 1405 821 c 1,923,-1
1427 813 m 2,929,-1
 1431 813 l 1,930,931
 1431 808 1431 808 1408 795 c 0,932,933
 1401 795 1401 795 1401 803 c 1,934,935
 1414 813 1414 813 1427 813 c 2,929,-1
1450 813 m 1,936,-1
 1464 813 l 1,937,938
 1464 808 1464 808 1453 803 c 1,939,940
 1453 806 1453 806 1450 813 c 1,936,-1
899 810 m 1,941,-1
 899 806 l 2,942,943
 899 799 899 799 892 799 c 2,944,-1
 881 799 l 1,945,-1
 881 806 l 1,946,947
 893 806 893 806 899 810 c 1,941,-1
625 799 m 0,948,949
 677 799 677 799 706 724 c 1,950,-1
 706 720 l 1,951,952
 670 720 670 720 616 669 c 0,953,954
 609 659 609 659 609 654 c 1,955,-1
 598 654 l 1,956,-1
 595 673 l 1,957,-1
 595 695 l 2,958,959
 595 737 595 737 650 769 c 1,960,-1
 653 769 l 1,961,-1
 653 780 l 1,962,963
 626 787 626 787 602 787 c 2,964,-1
 583 784 l 1,965,-1
 583 792 l 1,966,967
 615 799 615 799 625 799 c 0,948,949
1289 799 m 1,968,-1
 1289 795 l 1,969,970
 1207 706 1207 706 1192 706 c 2,971,-1
 1189 706 l 1,972,-1
 1192 687 l 1,973,-1
 1192 680 l 1,974,-1
 1164 650 l 1,975,-1
 1167 650 l 2,976,977
 1171 650 1171 650 1189 665 c 1,978,-1
 1192 665 l 1,979,-1
 1192 662 l 2,980,981
 1192 656 1192 656 1174 643 c 1,982,983
 1174 646 1174 646 1171 646 c 0,984,985
 1159 618 1159 618 1134 599 c 1,986,-1
 1122 599 l 1,987,-1
 1126 606 l 1,988,-1
 1122 606 l 1,989,990
 1122 601 1122 601 1111 594 c 1,991,-1
 1108 594 l 1,992,-1
 1108 602 l 1,993,-1
 1185 691 l 1,994,-1
 1185 695 l 1,995,-1
 1134 643 l 1,996,-1
 1134 646 l 2,997,998
 1134 655 1134 655 1182 713 c 1,999,-1
 1178 713 l 1,1000,1001
 1166 692 1166 692 1152 683 c 1,1002,-1
 1152 687 l 2,1003,1004
 1152 697 1152 697 1164 713 c 1,1005,1006
 1155 713 1155 713 1155 720 c 0,1007,1008
 1155 725 1155 725 1174 739 c 1,1009,-1
 1197 717 l 1,1010,-1
 1204 717 l 1,1011,1012
 1204 735 1204 735 1285 799 c 1,1013,-1
 1289 799 l 1,968,-1
1490 799 m 1,1014,-1
 1494 799 l 1,1015,1016
 1508 770 1508 770 1508 766 c 0,1017,1018
 1473 736 1473 736 1424 736 c 1,1019,-1
 1424 739 l 1,1020,-1
 1415 736 l 2,1021,1022
 1408 736 1408 736 1408 743 c 1,1023,1024
 1464 787 1464 787 1475 787 c 2,1025,-1
 1483 784 l 1,1026,-1
 1487 784 l 1,1027,-1
 1487 787 l 1,1028,-1
 1479 787 l 1,1029,1030
 1479 793 1479 793 1490 799 c 1,1014,-1
1297 792 m 1,1031,-1
 1308 792 l 1,1032,-1
 1308 787 l 1,1033,1034
 1212 688 1212 688 1201 683 c 1,1035,-1
 1197 683 l 1,1036,-1
 1197 691 l 1,1037,1038
 1282 784 1282 784 1297 792 c 1,1031,-1
1315 784 m 1,1039,-1
 1319 784 l 1,1040,1041
 1349 767 1349 767 1349 762 c 0,1042,1043
 1349 753 1349 753 1319 743 c 1,1044,1045
 1304 713 1304 713 1297 713 c 2,1046,-1
 1289 713 l 1,1047,-1
 1289 717 l 2,1048,1049
 1289 721 1289 721 1331 766 c 1,1050,-1
 1327 766 l 1,1051,1052
 1327 762 1327 762 1289 732 c 1,1053,-1
 1285 732 l 1,1054,-1
 1285 739 l 1,1055,1056
 1297 774 1297 774 1315 784 c 1,1039,-1
1375 784 m 1,1057,1058
 1378 777 1378 777 1378 769 c 1,1059,-1
 1387 773 l 1,1060,-1
 1390 773 l 2,1061,1062
 1397 772 1397 772 1397 766 c 1,1063,-1
 1371 750 l 2,1064,1065
 1364 750 1364 750 1364 757 c 2,1066,-1
 1364 762 l 1,1067,1068
 1375 762 1375 762 1375 769 c 1,1069,-1
 1371 769 l 1,1070,-1
 1360 762 l 1,1071,1072
 1352 762 1352 762 1352 769 c 0,1073,1074
 1360 784 1360 784 1375 784 c 1,1057,1058
1450 780 m 1,1075,1076
 1450 777 1450 777 1394 739 c 0,1077,1078
 1387 739 1387 739 1387 747 c 1,1079,1080
 1423 780 1423 780 1450 780 c 1,1075,1076
1650 773 m 1,1081,-1
 1650 769 l 2,1082,1083
 1650 762 1650 762 1628 757 c 1,1084,-1
 1628 762 l 2,1085,1086
 1631 773 1631 773 1650 773 c 1,1081,-1
892 769 m 1,1087,-1
 903 769 l 1,1088,-1
 903 762 l 1,1089,-1
 892 762 l 1,1090,-1
 892 769 l 1,1087,-1
1230 769 m 2,1091,-1
 1234 769 l 1,1092,-1
 1234 766 l 2,1093,1094
 1234 760 1234 760 1222 754 c 1,1095,-1
 1222 762 l 2,1096,1097
 1223 769 1223 769 1230 769 c 2,1091,-1
1055 762 m 0,1098,1099
 1061 762 1061 762 1071 747 c 1,1100,-1
 1071 743 l 2,1101,1102
 1071 738 1071 738 1059 732 c 1,1103,-1
 1052 736 l 1,1104,-1
 1025 720 l 1,1105,-1
 1022 720 l 1,1106,-1
 1022 724 l 1,1107,-1
 1037 743 l 1,1108,-1
 1044 739 l 1,1109,-1
 1048 739 l 1,1110,1111
 1057 747 1057 747 1062 747 c 1,1112,-1
 1062 750 l 1,1113,-1
 1055 750 l 2,1114,1115
 1048 747 1048 747 1044 747 c 1,1116,1117
 1050 762 1050 762 1055 762 c 0,1098,1099
1453 747 m 1,1118,-1
 1457 747 l 2,1119,1120
 1464 747 1464 747 1464 754 c 1,1121,-1
 1461 754 l 2,1122,1123
 1453 753 1453 753 1453 747 c 1,1118,-1
1352 754 m 2,1124,-1
 1357 747 l 1,1125,-1
 1357 736 l 1,1126,1127
 1350 736 1350 736 1338 724 c 1,1128,-1
 1334 732 l 1,1129,1130
 1348 754 1348 754 1352 754 c 2,1124,-1
888 750 m 1,1131,-1
 903 750 l 1,1132,-1
 903 743 l 1,1133,-1
 888 743 l 1,1134,-1
 888 750 l 1,1131,-1
1167 747 m 1,1135,-1
 1171 739 l 1,1136,-1
 1155 736 l 1,1137,1138
 1155 741 1155 741 1167 747 c 1,1135,-1
1267 739 m 1,1139,-1
 1271 732 l 1,1140,1141
 1254 717 1254 717 1245 717 c 1,1142,1143
 1245 722 1245 722 1267 739 c 1,1139,-1
1357 732 m 1,1144,-1
 1360 732 l 1,1145,-1
 1360 724 l 2,1146,1147
 1360 717 1360 717 1319 683 c 1,1148,-1
 1315 683 l 1,1149,-1
 1315 691 l 1,1150,1151
 1333 704 1333 704 1349 729 c 1,1152,-1
 1357 732 l 1,1144,-1
1271 729 m 1,1153,-1
 1278 729 l 1,1154,-1
 1278 724 l 2,1155,1156
 1278 719 1278 719 1256 702 c 1,1157,-1
 1252 702 l 1,1158,-1
 1252 710 l 2,1159,1160
 1252 714 1252 714 1271 729 c 1,1153,-1
1052 724 m 1,1161,-1
 1052 720 l 1,1162,1163
 1034 698 1034 698 1015 695 c 1,1164,-1
 1015 706 l 1,1165,1166
 1027 706 1027 706 1052 724 c 1,1161,-1
721 717 m 1,1167,-1
 746 717 l 2,1168,1169
 750 717 750 717 750 713 c 2,1170,-1
 758 717 l 1,1171,-1
 762 717 l 2,1172,1173
 769 716 769 716 769 710 c 1,1174,-1
 746 702 l 1,1175,-1
 746 699 l 1,1176,-1
 750 699 l 1,1177,1178
 769 710 769 710 780 710 c 2,1179,-1
 788 710 l 1,1180,-1
 788 706 l 1,1181,1182
 780 696 780 696 680 654 c 0,1183,1184
 673 648 673 648 616 617 c 1,1185,-1
 616 620 l 1,1186,1187
 647 650 647 650 743 695 c 1,1188,-1
 743 699 l 1,1189,-1
 739 699 l 1,1190,-1
 620 636 l 1,1191,-1
 616 643 l 1,1192,1193
 663 676 663 676 732 702 c 1,1194,-1
 732 706 l 1,1195,-1
 721 706 l 1,1196,-1
 713 702 l 1,1197,-1
 709 710 l 1,1198,-1
 721 717 l 1,1167,-1
899 713 m 1,1199,-1
 911 713 l 1,1200,-1
 911 706 l 1,1201,-1
 899 706 l 1,1202,-1
 899 713 l 1,1199,-1
1278 713 m 1,1203,-1
 1282 706 l 1,1204,-1
 1282 702 l 1,1205,1206
 1275 688 1275 688 1260 683 c 1,1207,1208
 1260 687 1260 687 1256 687 c 1,1209,1210
 1263 704 1263 704 1278 713 c 1,1203,-1
1360 713 m 1,1211,1212
 1360 710 1360 710 1364 710 c 1,1213,1214
 1351 673 1351 673 1331 673 c 1,1215,-1
 1327 680 l 2,1216,1217
 1327 684 1327 684 1360 713 c 1,1211,1212
1654 713 m 1,1218,-1
 1657 713 l 1,1219,-1
 1657 710 l 1,1220,1221
 1637 683 1637 683 1617 683 c 0,1222,1223
 1610 683 1610 683 1610 691 c 1,1224,1225
 1638 699 1638 699 1654 713 c 1,1218,-1
706 706 m 1,1226,1227
 702 699 702 699 702 695 c 1,1228,1229
 699 695 699 695 699 699 c 2,1230,-1
 632 662 l 1,1231,-1
 632 669 l 1,1232,1233
 686 706 686 706 706 706 c 1,1226,1227
1111 710 m 1,1234,1235
 1118 708 1118 708 1118 702 c 0,1236,1237
 1118 697 1118 697 1108 691 c 1,1238,1239
 1099 691 1099 691 1099 699 c 0,1240,1241
 1099 704 1099 704 1111 710 c 1,1234,1235
1238 710 m 1,1242,-1
 1238 706 l 2,1243,1244
 1238 673 1238 673 1201 654 c 1,1245,-1
 1197 654 l 1,1246,-1
 1197 669 l 2,1247,1248
 1197 671 1197 671 1238 710 c 1,1242,-1
1096 706 m 1,1249,1250
 1096 701 1096 701 1074 683 c 1,1251,-1
 1071 683 l 1,1252,-1
 1071 687 l 1,1253,1254
 1076 706 1076 706 1096 706 c 1,1249,1250
802 702 m 1,1255,1256
 818 685 818 685 818 683 c 0,1257,1258
 786 665 786 665 758 665 c 1,1259,1260
 758 669 758 669 755 669 c 0,1261,1262
 702 649 702 649 702 627 c 1,1263,1264
 644 594 644 594 639 594 c 1,1265,-1
 639 590 l 1,1266,-1
 643 590 l 1,1267,1268
 658 594 658 594 688 613 c 1,1269,-1
 691 613 l 1,1270,-1
 691 606 l 1,1271,-1
 680 590 l 1,1272,1273
 688 589 688 589 688 583 c 1,1274,1275
 669 574 669 574 669 569 c 1,1276,-1
 672 569 l 2,1277,1278
 679 572 679 572 683 572 c 1,1279,1280
 683 569 683 569 688 569 c 1,1281,1282
 688 556 688 556 650 550 c 1,1283,-1
 646 550 l 1,1284,-1
 646 557 l 1,1285,-1
 653 557 l 1,1286,-1
 653 561 l 1,1287,1288
 628 561 628 561 628 576 c 2,1289,-1
 628 580 l 1,1290,-1
 632 587 l 1,1291,1292
 620 587 620 587 620 594 c 2,1293,-1
 625 602 l 1,1294,1295
 616 602 616 602 616 609 c 1,1296,1297
 683 652 683 652 802 702 c 1,1255,1256
906 702 m 1,1298,-1
 911 702 l 2,1299,1300
 918 701 918 701 918 695 c 1,1301,-1
 906 695 l 1,1302,-1
 906 702 l 1,1298,-1
1301 702 m 1,1303,1304
 1308 701 1308 701 1308 695 c 1,1305,-1
 1301 691 l 1,1306,-1
 1301 702 l 1,1303,1304
784 683 m 1,1307,-1
 784 680 l 1,1308,-1
 788 680 l 1,1309,1310
 800 687 800 687 806 687 c 1,1311,-1
 806 691 l 1,1312,-1
 802 691 l 1,1313,1314
 791 683 791 683 784 683 c 1,1307,-1
1033 695 m 1,1315,-1
 1037 687 l 1,1316,-1
 1015 673 l 1,1317,-1
 1011 673 l 1,1318,-1
 1011 676 l 2,1319,1320
 1011 681 1011 681 1033 695 c 1,1315,-1
1115 691 m 1,1321,-1
 1118 691 l 1,1322,-1
 1118 687 l 1,1323,1324
 1113 667 1113 667 1071 624 c 1,1325,-1
 1089 627 l 1,1326,-1
 1096 627 l 1,1327,-1
 1096 617 l 1,1328,-1
 1078 613 l 1,1329,-1
 1059 617 l 1,1330,-1
 1059 620 l 1,1331,-1
 1115 691 l 1,1321,-1
1096 687 m 2,1332,-1
 1099 687 l 1,1333,1334
 1094 673 1094 673 1089 673 c 1,1335,-1
 1089 680 l 2,1336,1337
 1090 687 1090 687 1096 687 c 2,1332,-1
1285 687 m 1,1338,-1
 1297 687 l 1,1339,-1
 1297 683 l 2,1340,1341
 1297 678 1297 678 1271 657 c 1,1342,-1
 1264 669 l 2,1343,1344
 1264 674 1264 674 1285 687 c 1,1338,-1
821 680 m 1,1345,-1
 825 673 l 1,1346,-1
 806 669 l 1,1347,1348
 806 674 806 674 821 680 c 1,1345,-1
1078 680 m 1,1349,-1
 1078 650 l 1,1350,-1
 1071 650 l 1,1351,-1
 1071 673 l 2,1352,1353
 1072 680 1072 680 1078 680 c 1,1349,-1
1033 676 m 2,1354,-1
 1037 676 l 1,1355,-1
 1037 669 l 2,1356,1357
 1037 663 1037 663 1022 654 c 0,1358,1359
 1015 654 1015 654 1015 662 c 1,1360,1361
 1031 676 1031 676 1033 676 c 2,1354,-1
829 673 m 1,1362,-1
 836 662 l 1,1363,1364
 822 650 822 650 813 650 c 1,1365,-1
 813 646 l 1,1366,-1
 818 646 l 1,1367,1368
 830 654 830 654 839 654 c 1,1369,-1
 843 646 l 1,1370,1371
 824 632 824 632 810 632 c 1,1372,-1
 806 639 l 1,1373,-1
 810 646 l 1,1374,-1
 795 646 l 1,1375,-1
 795 650 l 2,1376,1377
 795 655 795 655 829 673 c 1,1362,-1
1297 673 m 1,1378,1379
 1304 671 1304 671 1304 665 c 1,1380,-1
 1278 643 l 1,1381,-1
 1275 650 l 2,1382,1383
 1275 655 1275 655 1297 673 c 1,1378,1379
806 669 m 1,1384,1385
 802 657 802 657 784 657 c 2,1386,-1
 780 657 l 1,1387,-1
 780 665 l 1,1388,-1
 806 669 l 1,1384,1385
1647 669 m 1,1389,-1
 1647 665 l 1,1390,1391
 1621 623 1621 623 1605 576 c 1,1392,-1
 1598 576 l 1,1393,1394
 1618 644 1618 644 1638 669 c 1,1395,-1
 1647 669 l 1,1389,-1
1215 657 m 2,1396,-1
 1219 657 l 1,1397,-1
 1219 654 l 1,1398,1399
 1212 637 1212 637 1204 636 c 0,1400,1401
 1197 636 1197 636 1197 643 c 1,1402,1403
 1213 657 1213 657 1215 657 c 2,1396,-1
1041 654 m 1,1404,-1
 1044 646 l 1,1405,-1
 1029 639 l 1,1406,-1
 1029 643 l 2,1407,1408
 1029 648 1029 648 1041 654 c 1,1404,-1
1308 654 m 1,1409,-1
 1315 654 l 1,1410,1411
 1315 645 1315 645 1338 624 c 1,1412,1413
 1307 581 1307 581 1275 572 c 1,1414,-1
 1271 580 l 1,1415,1416
 1297 592 1297 592 1315 617 c 1,1417,-1
 1312 617 l 1,1418,-1
 1260 572 l 1,1419,-1
 1256 580 l 1,1420,1421
 1289 601 1289 601 1312 636 c 1,1422,-1
 1308 636 l 2,1423,1424
 1303 636 1303 636 1241 580 c 1,1425,-1
 1238 587 l 1,1426,1427
 1245 587 1245 587 1308 654 c 1,1409,-1
951 650 m 2,1428,-1
 951 646 l 1,1429,1430
 938 624 938 624 932 624 c 0,1431,1432
 925 624 925 624 925 632 c 1,1433,1434
 948 650 948 650 951 650 c 2,1428,-1
969 646 m 1,1435,-1
 981 646 l 2,1436,1437
 988 645 988 645 988 639 c 1,1438,1439
 966 624 966 624 966 613 c 1,1440,-1
 959 613 l 1,1441,-1
 959 617 l 1,1442,1443
 969 633 969 633 969 646 c 1,1435,-1
1059 646 m 1,1444,-1
 1062 639 l 1,1445,-1
 1048 627 l 1,1446,1447
 1041 627 1041 627 1041 636 c 1,1448,-1
 1059 646 l 1,1444,-1
1152 639 m 1,1449,-1
 1145 627 l 1,1450,-1
 1148 627 l 1,1451,-1
 1155 639 l 1,1452,-1
 1152 639 l 1,1449,-1
992 639 m 0,1453,1454
 999 638 999 638 999 632 c 0,1455,1456
 977 600 977 600 969 599 c 2,1457,-1
 966 599 l 1,1458,-1
 966 606 l 1,1459,1460
 989 639 989 639 992 639 c 0,1453,1454
1189 639 m 1,1461,-1
 1189 632 l 2,1462,1463
 1189 624 1189 624 1182 624 c 2,1464,-1
 1178 624 l 1,1465,-1
 1178 627 l 2,1466,1467
 1178 634 1178 634 1189 639 c 1,1461,-1
851 636 m 1,1468,-1
 851 627 l 2,1469,1470
 851 618 851 618 818 613 c 1,1471,-1
 818 620 l 2,1472,1473
 818 630 818 630 851 636 c 1,1468,-1
1215 636 m 1,1474,-1
 1219 636 l 1,1475,-1
 1219 632 l 2,1476,1477
 1219 625 1219 625 1204 617 c 1,1478,-1
 1201 624 l 1,1479,-1
 1215 636 l 1,1474,-1
1007 624 m 1,1480,-1
 1007 613 l 1,1481,-1
 999 613 l 1,1482,-1
 999 617 l 2,1483,1484
 1000 624 1000 624 1007 624 c 1,1480,-1
1111 624 m 1,1485,-1
 1118 624 l 1,1486,1487
 1118 619 1118 619 1096 602 c 1,1488,-1
 1092 609 l 2,1489,1490
 1094 609 1094 609 1111 624 c 1,1485,-1
1192 620 m 1,1491,-1
 1197 613 l 1,1492,1493
 1125 527 1125 527 1122 527 c 2,1494,-1
 1115 527 l 1,1495,-1
 1115 531 l 1,1496,1497
 1122 545 1122 545 1192 620 c 1,1491,-1
851 617 m 1,1498,-1
 855 609 l 1,1499,1500
 833 594 833 594 821 594 c 1,1501,-1
 818 602 l 1,1502,-1
 851 617 l 1,1498,-1
1018 617 m 1,1503,1504
 1022 610 1022 610 1022 606 c 0,1505,1506
 1011 583 1011 583 966 531 c 1,1507,-1
 962 531 l 1,1508,-1
 962 539 l 1,1509,-1
 1018 617 l 1,1503,1504
1215 617 m 2,1510,-1
 1219 617 l 1,1511,-1
 1219 613 l 2,1512,1513
 1219 606 1219 606 1211 606 c 2,1514,-1
 1208 606 l 1,1515,-1
 1208 609 l 2,1516,1517
 1209 617 1209 617 1215 617 c 2,1510,-1
346 602 m 1,1518,-1
 349 594 l 1,1519,1520
 340 587 340 587 330 587 c 1,1521,-1
 330 583 l 1,1522,-1
 342 583 l 1,1523,-1
 360 594 l 1,1524,-1
 375 594 l 1,1525,1526
 384 587 384 587 401 587 c 1,1527,-1
 401 583 l 2,1528,1529
 401 578 401 578 337 550 c 1,1530,-1
 337 553 l 1,1531,1532
 375 580 375 580 375 583 c 2,1533,-1
 367 583 l 1,1534,1535
 301 551 301 551 279 546 c 1,1536,-1
 274 553 l 1,1537,1538
 247 544 247 544 226 516 c 1,1539,-1
 126 464 l 1,1540,-1
 119 464 l 1,1541,-1
 119 469 l 2,1542,1543
 119 498 119 498 160 509 c 1,1544,1545
 253 553 253 553 309 590 c 0,1546,1547
 316 590 316 590 346 602 c 1,1518,-1
290 599 m 1,1548,-1
 304 599 l 1,1549,1550
 304 594 304 594 216 543 c 1,1551,-1
 204 543 l 2,1552,1553
 204 545 204 545 290 599 c 1,1548,-1
1025 599 m 1,1554,-1
 1029 590 l 1,1555,-1
 1029 580 l 2,1556,1557
 1029 575 1029 575 992 543 c 1,1558,-1
 988 550 l 1,1559,1560
 1015 592 1015 592 1025 599 c 1,1554,-1
1066 599 m 1,1561,-1
 1071 590 l 1,1562,-1
 1059 583 l 1,1563,-1
 1055 583 l 1,1564,-1
 1055 587 l 2,1565,1566
 1055 592 1055 592 1066 599 c 1,1561,-1
1201 599 m 1,1567,-1
 1204 599 l 1,1568,-1
 1204 583 l 1,1569,1570
 1199 583 1199 583 1182 561 c 1,1571,-1
 1185 561 l 1,1572,1573
 1185 566 1185 566 1211 583 c 1,1574,1575
 1219 582 1219 582 1219 576 c 0,1576,1577
 1219 574 1219 574 1155 513 c 1,1578,-1
 1152 520 l 1,1579,1580
 1160 522 1160 522 1174 550 c 1,1581,-1
 1171 550 l 1,1582,1583
 1171 541 1171 541 1141 516 c 1,1584,-1
 1137 516 l 1,1585,-1
 1137 520 l 1,1586,1587
 1186 589 1186 589 1201 599 c 1,1567,-1
855 594 m 1,1588,-1
 855 587 l 1,1589,1590
 850 587 850 587 818 572 c 1,1591,-1
 818 576 l 2,1592,1593
 818 585 818 585 855 594 c 1,1588,-1
765 583 m 1,1594,-1
 769 583 l 1,1595,-1
 769 580 l 2,1596,1597
 769 574 769 574 746 561 c 1,1598,-1
 746 565 l 2,1599,1600
 746 570 746 570 765 583 c 1,1594,-1
855 583 m 1,1601,-1
 862 580 l 1,1602,1603
 862 546 862 546 818 535 c 1,1604,-1
 813 535 l 1,1605,-1
 813 531 l 1,1606,-1
 818 531 l 1,1607,1608
 836 543 836 543 855 543 c 1,1609,1610
 848 510 848 510 821 457 c 1,1611,-1
 818 457 l 2,1612,1613
 810 457 810 457 810 464 c 2,1614,-1
 810 472 l 1,1615,-1
 818 472 l 1,1616,-1
 818 476 l 1,1617,-1
 802 476 l 1,1618,1619
 802 483 802 483 813 483 c 1,1620,-1
 813 487 l 1,1621,-1
 802 487 l 1,1622,-1
 802 490 l 1,1623,-1
 843 516 l 1,1624,-1
 839 516 l 1,1625,-1
 802 497 l 1,1626,-1
 799 506 l 1,1627,-1
 799 509 l 1,1628,-1
 818 513 l 1,1629,-1
 818 516 l 1,1630,-1
 813 516 l 2,1631,1632
 806 513 806 513 802 513 c 1,1633,-1
 802 520 l 1,1634,-1
 818 550 l 1,1635,-1
 810 553 l 1,1636,1637
 810 565 810 565 855 583 c 1,1601,-1
1081 583 m 1,1638,-1
 1085 576 l 1,1639,-1
 1085 572 l 1,1640,-1
 1078 572 l 1,1641,-1
 1078 565 l 1,1642,-1
 1092 576 l 1,1643,-1
 1096 576 l 1,1644,-1
 1096 572 l 2,1645,1646
 1096 568 1096 568 1078 553 c 1,1647,-1
 1066 569 l 2,1648,1649
 1066 574 1066 574 1081 583 c 1,1638,-1
732 580 m 1,1650,-1
 739 580 l 1,1651,1652
 739 575 739 575 709 550 c 1,1653,-1
 706 557 l 2,1654,1655
 708 557 708 557 732 580 c 1,1650,-1
420 576 m 1,1656,-1
 427 576 l 1,1657,-1
 427 565 l 1,1658,1659
 418 565 418 565 372 546 c 1,1660,-1
 364 546 l 1,1661,-1
 364 553 l 2,1662,1663
 367 553 367 553 420 576 c 1,1656,-1
776 576 m 1,1664,-1
 780 576 l 1,1665,-1
 780 572 l 2,1666,1667
 780 515 780 515 792 497 c 1,1668,-1
 792 487 l 1,1669,-1
 795 487 l 1,1670,-1
 795 472 l 2,1671,1672
 795 470 795 470 758 434 c 1,1673,-1
 750 434 l 1,1674,-1
 750 446 l 1,1675,-1
 739 439 l 1,1676,1677
 731 439 731 439 728 457 c 1,1678,1679
 732 457 732 457 732 460 c 2,1680,-1
 739 457 l 1,1681,-1
 750 457 l 1,1682,-1
 750 469 l 1,1683,-1
 743 479 l 1,1684,-1
 743 483 l 1,1685,-1
 746 490 l 1,1686,-1
 743 490 l 2,1687,1688
 743 487 743 487 739 487 c 1,1689,1690
 739 490 739 490 736 490 c 2,1691,-1
 776 535 l 1,1692,-1
 776 539 l 1,1693,-1
 736 502 l 2,1694,1695
 731 502 731 502 721 520 c 1,1696,1697
 737 527 737 527 776 576 c 1,1664,-1
282 561 m 1,1698,-1
 282 557 l 1,1699,-1
 286 557 l 1,1700,1701
 298 565 298 565 304 565 c 1,1702,-1
 304 569 l 1,1703,-1
 300 569 l 1,1704,1705
 289 561 289 561 282 561 c 1,1698,-1
825 557 m 1,1706,-1
 825 553 l 1,1707,-1
 832 553 l 1,1708,1709
 844 561 844 561 851 561 c 1,1710,-1
 851 565 l 1,1711,-1
 843 565 l 1,1712,1713
 831 557 831 557 825 557 c 1,1706,-1
1025 569 m 1,1714,-1
 1033 569 l 1,1715,-1
 1033 565 l 1,1716,1717
 1026 548 1026 548 1007 535 c 1,1718,-1
 1007 539 l 1,1719,1720
 1025 565 1025 565 1025 569 c 1,1714,-1
1104 569 m 2,1721,-1
 1108 569 l 1,1722,-1
 1108 565 l 2,1723,1724
 1108 559 1108 559 1089 546 c 1,1725,-1
 1089 550 l 1,1726,1727
 1098 569 1098 569 1104 569 c 2,1721,-1
1126 569 m 2,1728,-1
 1134 569 l 1,1729,1730
 1109 535 1109 535 1104 535 c 2,1731,-1
 1099 535 l 1,1732,-1
 1099 539 l 1,1733,1734
 1120 569 1120 569 1126 569 c 2,1728,-1
439 565 m 1,1735,1736
 468 547 468 547 468 543 c 2,1737,-1
 468 535 l 1,1738,-1
 453 531 l 1,1739,-1
 460 546 l 1,1740,-1
 416 531 l 1,1741,-1
 412 539 l 1,1742,-1
 412 543 l 1,1743,-1
 427 546 l 1,1744,-1
 427 550 l 1,1745,-1
 423 550 l 1,1746,1747
 411 543 411 543 401 543 c 2,1748,-1
 397 543 l 1,1749,-1
 397 546 l 2,1750,1751
 397 554 397 554 439 565 c 1,1735,1736
955 561 m 2,1752,-1
 962 561 l 1,1753,-1
 962 557 l 1,1754,-1
 862 420 l 1,1755,-1
 858 420 l 1,1756,1757
 858 431 858 431 873 453 c 1,1758,-1
 869 453 l 1,1759,1760
 866 446 866 446 866 442 c 1,1761,1762
 858 442 858 442 858 450 c 0,1763,1764
 858 457 858 457 895 502 c 1,1765,-1
 895 506 l 1,1766,-1
 892 506 l 1,1767,1768
 886 488 886 488 869 479 c 1,1769,-1
 869 490 l 1,1770,1771
 918 561 918 561 955 561 c 2,1752,-1
688 557 m 1,1772,-1
 688 553 l 1,1773,1774
 681 539 681 539 662 539 c 1,1775,1776
 664 548 664 548 688 557 c 1,1772,-1
1037 557 m 1,1777,-1
 1041 557 l 1,1778,-1
 1052 524 l 1,1779,-1
 1052 520 l 1,1780,1781
 1040 513 1040 513 1037 513 c 2,1782,-1
 1037 506 l 1,1783,1784
 1053 520 1053 520 1055 520 c 2,1785,-1
 1055 509 l 2,1786,1787
 1055 504 1055 504 1029 483 c 1,1788,-1
 1022 483 l 1,1789,-1
 1022 487 l 2,1790,1791
 1025 494 1025 494 1025 497 c 1,1792,1793
 1015 497 1015 497 1011 531 c 1,1794,1795
 1014 531 1014 531 1037 557 c 1,1777,-1
728 543 m 1,1796,-1
 728 539 l 2,1797,1798
 728 531 728 531 721 531 c 1,1799,-1
 721 535 l 2,1800,1801
 722 543 722 543 728 543 c 1,1796,-1
985 543 m 2,1802,-1
 992 543 l 1,1803,-1
 992 539 l 1,1804,1805
 984 521 984 521 962 506 c 1,1806,-1
 959 506 l 1,1807,-1
 959 509 l 1,1808,1809
 980 543 980 543 985 543 c 2,1802,-1
1197 543 m 1,1810,-1
 1197 539 l 2,1811,1812
 1197 534 1197 534 1185 527 c 1,1813,-1
 1182 527 l 1,1814,1815
 1182 534 1182 534 1197 543 c 1,1810,-1
1405 543 m 1,1816,1817
 1412 527 1412 527 1415 527 c 1,1818,1819
 1415 454 1415 454 1345 312 c 1,1820,1821
 1334 270 1334 270 1182 89 c 1,1822,1823
 1072 7 1072 7 1033 7 c 1,1824,1825
 986 0 986 0 978 0 c 0,1826,1827
 869 0 869 0 810 111 c 1,1828,-1
 810 126 l 1,1829,-1
 813 126 l 2,1830,1831
 819 126 819 126 839 74 c 1,1832,1833
 886 28 886 28 940 23 c 1,1834,-1
 966 23 l 2,1835,1836
 1065 23 1065 23 1148 86 c 1,1837,1838
 1167 123 1167 123 1234 186 c 1,1839,-1
 1338 357 l 1,1840,1841
 1401 504 1401 504 1401 543 c 1,1842,-1
 1405 543 l 1,1816,1817
479 535 m 1,1843,-1
 479 527 l 1,1844,1845
 455 520 455 520 453 520 c 2,1846,-1
 453 527 l 1,1847,-1
 479 535 l 1,1843,-1
174 531 m 2,1848,-1
 182 531 l 1,1849,1850
 182 524 182 524 174 524 c 2,1851,-1
 167 524 l 1,1852,1853
 168 531 168 531 174 531 c 2,1848,-1
490 527 m 1,1854,-1
 494 520 l 1,1855,-1
 494 516 l 1,1856,1857
 489 516 489 516 464 506 c 1,1858,-1
 460 513 l 1,1859,1860
 483 527 483 527 490 527 c 1,1854,-1
152 520 m 2,1861,-1
 160 520 l 1,1862,1863
 160 515 160 515 144 509 c 1,1864,-1
 144 513 l 2,1865,1866
 145 520 145 520 152 520 c 2,1861,-1
992 520 m 1,1867,-1
 996 520 l 1,1868,1869
 996 514 996 514 981 506 c 1,1870,-1
 981 509 l 2,1871,1872
 981 514 981 514 992 520 c 1,1867,-1
502 516 m 1,1873,-1
 509 506 l 1,1874,1875
 484 490 484 490 476 490 c 1,1876,-1
 472 497 l 1,1877,1878
 488 516 488 516 502 516 c 1,1873,-1
992 513 m 1,1879,-1
 999 513 l 1,1880,-1
 999 509 l 1,1881,-1
 996 502 l 1,1882,1883
 1007 502 1007 502 1007 483 c 1,1884,-1
 962 427 l 1,1885,-1
 966 427 l 1,1886,1887
 999 459 999 459 999 469 c 1,1888,-1
 1007 469 l 1,1889,-1
 1011 450 l 1,1890,1891
 942 376 942 376 932 376 c 1,1892,-1
 929 383 l 1,1893,-1
 948 409 l 1,1894,-1
 944 409 l 1,1895,1896
 934 390 934 390 929 390 c 2,1897,-1
 925 390 l 1,1898,1899
 925 409 925 409 985 483 c 1,1900,-1
 985 487 l 1,1901,-1
 981 487 l 1,1902,1903
 981 478 981 478 959 460 c 1,1904,-1
 959 469 l 1,1905,1906
 992 507 992 507 992 513 c 1,1879,-1
137 487 m 1,1907,-1
 137 483 l 1,1908,-1
 141 483 l 1,1909,1910
 160 494 160 494 167 494 c 1,1911,-1
 167 497 l 1,1912,-1
 163 497 l 1,1913,1914
 144 487 144 487 137 487 c 1,1907,-1
416 502 m 1,1915,-1
 416 494 l 1,1916,-1
 390 487 l 1,1917,-1
 390 490 l 2,1918,1919
 390 497 390 497 416 502 c 1,1915,-1
430 497 m 1,1920,-1
 439 497 l 2,1921,1922
 454 497 454 497 483 472 c 1,1923,1924
 397 434 397 434 390 434 c 2,1925,-1
 386 434 l 1,1926,-1
 386 442 l 1,1927,1928
 430 452 430 452 442 472 c 1,1929,-1
 439 472 l 1,1930,1931
 351 423 351 423 334 423 c 1,1932,-1
 334 427 l 2,1933,1934
 334 453 334 453 367 464 c 1,1935,1936
 375 460 375 460 379 460 c 1,1937,1938
 379 470 379 470 435 483 c 1,1939,-1
 435 487 l 1,1940,1941
 423 487 423 487 423 494 c 1,1942,-1
 430 497 l 1,1920,-1
1055 497 m 1,1943,-1
 1059 497 l 1,1944,-1
 1059 490 l 1,1945,1946
 1051 477 1051 477 1029 464 c 1,1947,-1
 1025 464 l 1,1948,-1
 1025 469 l 1,1949,1950
 1037 486 1037 486 1055 497 c 1,1943,-1
643 494 m 2,1951,-1
 653 494 l 1,1952,1953
 718 480 718 480 725 464 c 0,1954,1955
 725 459 725 459 713 453 c 1,1956,-1
 702 453 l 1,1957,-1
 702 460 l 1,1958,1959
 693 453 693 453 688 453 c 0,1960,1961
 680 457 680 457 676 457 c 1,1962,1963
 676 450 676 450 669 450 c 2,1964,-1
 662 450 l 1,1965,-1
 662 453 l 1,1966,-1
 665 460 l 1,1967,-1
 662 460 l 1,1968,1969
 662 455 662 455 635 434 c 1,1970,1971
 628 434 628 434 628 442 c 1,1972,-1
 635 453 l 1,1973,-1
 635 457 l 1,1974,-1
 620 446 l 1,1975,1976
 613 446 613 446 613 453 c 1,1977,1978
 617 453 617 453 643 487 c 1,1979,-1
 639 487 l 1,1980,1981
 639 482 639 482 609 457 c 1,1982,-1
 606 464 l 1,1983,-1
 613 476 l 1,1984,-1
 609 476 l 1,1985,1986
 609 469 609 469 602 469 c 1,1987,-1
 598 476 l 1,1988,1989
 620 494 620 494 643 494 c 2,1951,-1
523 487 m 1,1990,-1
 532 476 l 1,1991,-1
 532 472 l 1,1992,1993
 506 460 506 460 502 460 c 1,1994,-1
 502 469 l 1,1995,1996
 523 472 523 472 523 479 c 1,1997,-1
 520 479 l 1,1998,1999
 502 469 502 469 494 469 c 1,2000,-1
 494 476 l 1,2001,-1
 523 487 l 1,1990,-1
197 483 m 1,2002,2003
 186 448 186 448 174 442 c 1,2004,2005
 163 442 163 442 104 413 c 1,2006,2007
 104 416 104 416 100 416 c 1,2008,2009
 100 430 100 430 163 453 c 1,2010,-1
 163 457 l 1,2011,-1
 152 457 l 1,2012,2013
 136 442 136 442 123 442 c 2,2014,-1
 111 442 l 1,2015,-1
 111 450 l 1,2016,2017
 145 475 145 475 197 483 c 1,2002,2003
911 479 m 1,2018,-1
 922 479 l 1,2019,-1
 922 469 l 1,2020,-1
 866 394 l 2,2021,2022
 866 390 866 390 862 390 c 2,2023,-1
 858 390 l 1,2024,2025
 858 404 858 404 911 476 c 1,2026,-1
 911 479 l 1,2018,-1
1062 476 m 1,2027,-1
 1066 469 l 1,2028,-1
 1029 434 l 1,2029,-1
 1025 442 l 1,2030,-1
 1062 476 l 1,2027,-1
535 472 m 1,2031,2032
 542 471 542 471 542 464 c 0,2033,2034
 542 456 542 456 513 450 c 1,2035,-1
 509 457 l 1,2036,-1
 535 472 l 1,2031,2032
799 464 m 1,2037,-1
 802 457 l 1,2038,-1
 802 453 l 2,2039,2040
 802 451 802 451 773 427 c 1,2041,-1
 769 427 l 1,2042,-1
 769 431 l 1,2043,2044
 794 464 794 464 799 464 c 1,2037,-1
1312 460 m 1,2045,-1
 1315 453 l 1,2046,-1
 1256 405 l 1,2047,2048
 1210 354 1210 354 1145 267 c 0,2049,2050
 1127 237 1127 237 1085 237 c 1,2051,-1
 1066 264 l 1,2052,2053
 1071 291 1071 291 1078 312 c 1,2054,2055
 939 219 939 219 881 171 c 1,2056,-1
 876 179 l 1,2057,2058
 1106 378 1106 378 1201 416 c 1,2059,2060
 1218 433 1218 433 1312 460 c 1,2045,-1
490 457 m 1,2061,-1
 494 450 l 1,2062,-1
 486 446 l 1,2063,-1
 468 446 l 1,2064,2065
 468 453 468 453 490 457 c 1,2061,-1
936 457 m 1,2066,-1
 936 450 l 1,2067,2068
 923 427 923 427 918 427 c 2,2069,-1
 914 427 l 1,2070,2071
 930 457 930 457 936 457 c 1,2066,-1
561 450 m 1,2072,2073
 587 440 587 440 650 427 c 1,2074,-1
 650 423 l 2,2075,2076
 650 414 650 414 598 397 c 1,2077,-1
 595 397 l 1,2078,-1
 595 405 l 1,2079,2080
 601 405 601 405 632 420 c 1,2081,-1
 632 423 l 1,2082,-1
 628 423 l 1,2083,2084
 595 405 595 405 583 405 c 2,2085,-1
 576 405 l 1,2086,-1
 576 413 l 1,2087,-1
 602 420 l 1,2088,-1
 602 423 l 1,2089,-1
 595 423 l 1,2090,2091
 574 413 574 413 565 413 c 1,2092,-1
 565 416 l 2,2093,2094
 565 424 565 424 583 427 c 1,2095,-1
 583 431 l 1,2096,-1
 572 431 l 1,2097,2098
 559 423 559 423 550 423 c 0,2099,2100
 544 423 544 423 535 439 c 1,2101,-1
 535 442 l 1,2102,-1
 561 450 l 1,2072,2073
940 450 m 1,2103,-1
 948 450 l 1,2104,-1
 948 442 l 1,2105,2106
 930 416 930 416 925 416 c 1,2107,-1
 925 423 l 1,2108,2109
 940 442 940 442 940 450 c 1,2103,-1
542 439 m 1,2110,-1
 542 434 l 1,2111,-1
 553 434 l 2,2112,2113
 561 434 561 434 561 442 c 1,2114,-1
 553 442 l 2,2115,2116
 546 439 546 439 542 439 c 1,2110,-1
178 442 m 1,2117,-1
 182 434 l 1,2118,2119
 164 419 164 419 104 394 c 1,2120,-1
 104 397 l 1,2121,2122
 115 414 115 414 178 442 c 1,2117,-1
806 442 m 1,2123,-1
 810 442 l 1,2124,-1
 810 434 l 1,2125,2126
 795 413 795 413 780 413 c 1,2127,-1
 780 416 l 2,2128,2129
 780 421 780 421 806 442 c 1,2123,-1
1074 442 m 1,2130,-1
 1078 434 l 1,2131,-1
 1078 431 l 1,2132,2133
 1052 397 1052 397 1037 397 c 1,2134,-1
 1033 405 l 1,2135,2136
 1047 424 1047 424 1074 442 c 1,2130,-1
498 439 m 1,2137,-1
 498 431 l 1,2138,2139
 446 419 446 419 435 409 c 1,2140,2141
 427 409 427 409 427 416 c 2,2142,-1
 427 420 l 1,2143,2144
 435 420 435 420 498 439 c 1,2137,-1
725 434 m 1,2145,-1
 725 431 l 1,2146,2147
 706 416 706 416 706 413 c 2,2148,-1
 713 413 l 1,2149,-1
 736 427 l 1,2150,-1
 739 427 l 1,2151,2152
 762 414 762 414 762 409 c 2,2153,-1
 762 401 l 1,2154,2155
 737 394 737 394 728 394 c 1,2156,-1
 728 397 l 1,2157,-1
 732 405 l 1,2158,-1
 728 405 l 1,2159,2160
 691 383 691 383 662 383 c 1,2161,2162
 662 390 662 390 653 390 c 1,2163,2164
 646 386 646 386 643 386 c 2,2165,-1
 643 390 l 2,2166,2167
 643 398 643 398 662 401 c 1,2168,-1
 662 405 l 1,2169,-1
 658 405 l 1,2170,2171
 631 390 631 390 616 390 c 1,2172,-1
 616 397 l 1,2173,2174
 679 431 679 431 691 431 c 0,2175,2176
 705 434 705 434 725 434 c 1,2145,-1
818 423 m 1,2177,-1
 818 416 l 1,2178,2179
 806 397 806 397 792 397 c 1,2180,-1
 792 401 l 1,2181,2182
 802 423 802 423 818 423 c 1,2177,-1
895 423 m 1,2183,-1
 899 423 l 1,2184,2185
 899 406 899 406 873 383 c 1,2186,-1
 869 390 l 1,2187,-1
 895 423 l 1,2183,-1
174 420 m 1,2188,2189
 174 416 174 416 178 416 c 2,2190,-1
 174 409 l 1,2191,2192
 178 402 178 402 178 394 c 1,2193,2194
 112 357 112 357 104 357 c 1,2195,-1
 100 364 l 1,2196,2197
 120 368 120 368 167 401 c 1,2198,-1
 163 401 l 1,2199,-1
 100 372 l 1,2200,-1
 100 376 l 1,2201,2202
 104 385 104 385 174 420 c 1,2188,2189
509 420 m 1,2203,-1
 509 413 l 1,2204,-1
 442 394 l 1,2205,-1
 439 401 l 1,2206,2207
 500 420 500 420 509 420 c 1,2203,-1
691 405 m 1,2208,-1
 695 405 l 2,2209,2210
 702 405 702 405 702 413 c 1,2211,-1
 699 413 l 2,2212,2213
 691 411 691 411 691 405 c 1,2208,-1
1003 416 m 1,2214,-1
 1007 416 l 1,2215,2216
 1007 411 1007 411 940 357 c 1,2217,-1
 936 357 l 1,2218,-1
 936 360 l 1,2219,2220
 945 374 945 374 1003 416 c 1,2214,-1
1071 416 m 1,2221,-1
 1071 413 l 1,2222,2223
 1064 395 1064 395 1048 386 c 1,2224,-1
 1044 386 l 1,2225,-1
 1044 390 l 2,2226,2227
 1044 395 1044 395 1071 416 c 1,2221,-1
513 409 m 1,2228,-1
 516 401 l 1,2229,-1
 516 397 l 1,2230,-1
 460 383 l 1,2231,-1
 460 379 l 1,2232,-1
 464 379 l 1,2233,2234
 515 394 515 394 523 394 c 1,2235,-1
 523 390 l 2,2236,2237
 523 381 523 381 464 364 c 1,2238,-1
 457 364 l 2,2239,2240
 457 366 457 366 449 386 c 1,2241,-1
 513 409 l 1,2228,-1
662 390 m 1,2242,-1
 665 390 l 1,2243,2244
 677 397 677 397 683 397 c 1,2245,-1
 683 401 l 1,2246,-1
 676 401 l 1,2247,2248
 662 395 662 395 662 390 c 1,2242,-1
821 405 m 1,2249,-1
 825 405 l 1,2250,-1
 825 401 l 2,2251,2252
 825 396 825 396 806 383 c 1,2253,-1
 802 383 l 1,2254,-1
 802 390 l 1,2255,2256
 807 390 807 390 821 405 c 1,2249,-1
829 394 m 1,2257,-1
 832 386 l 2,2258,2259
 832 382 832 382 813 367 c 1,2260,2261
 813 372 813 372 810 372 c 1,2262,2263
 816 387 816 387 829 394 c 1,2257,-1
895 390 m 2,2264,-1
 899 390 l 1,2265,-1
 899 386 l 2,2266,2267
 899 379 899 379 892 379 c 2,2268,-1
 888 379 l 1,2269,-1
 888 383 l 2,2270,2271
 889 390 889 390 895 390 c 2,2264,-1
985 386 m 1,2272,-1
 988 386 l 1,2273,2274
 912 305 912 305 906 304 c 1,2275,-1
 906 312 l 1,2276,2277
 919 334 919 334 985 386 c 1,2272,-1
527 376 m 1,2278,-1
 532 367 l 1,2279,2280
 532 358 532 358 464 342 c 1,2281,-1
 464 349 l 1,2282,-1
 527 376 l 1,2278,-1
832 376 m 2,2283,-1
 836 376 l 1,2284,2285
 836 369 836 369 825 364 c 1,2286,-1
 825 367 l 2,2287,2288
 826 376 826 376 832 376 c 2,2283,-1
996 372 m 1,2289,-1
 996 367 l 2,2290,2291
 996 363 996 363 922 293 c 1,2292,2293
 915 297 915 297 911 297 c 1,2294,-1
 911 304 l 1,2295,2296
 931 304 931 304 978 360 c 1,2297,2298
 984 360 984 360 996 372 c 1,2289,-1
773 360 m 1,2299,-1
 776 360 l 2,2300,2301
 784 359 784 359 784 353 c 1,2302,2303
 778 353 778 353 746 304 c 1,2304,-1
 746 301 l 1,2305,2306
 791 357 791 357 795 357 c 0,2307,2308
 825 329 825 329 825 264 c 2,2309,-1
 825 253 l 1,2310,2311
 736 147 736 147 736 137 c 1,2312,2313
 709 101 709 101 702 100 c 1,2314,-1
 699 107 l 1,2315,2316
 707 109 707 109 792 246 c 1,2317,-1
 792 249 l 1,2318,2319
 784 249 784 249 776 227 c 1,2320,-1
 773 227 l 1,2321,-1
 773 237 l 2,2322,2323
 773 250 773 250 784 264 c 1,2324,-1
 784 267 l 1,2325,-1
 776 264 l 1,2326,-1
 773 264 l 1,2327,-1
 773 267 l 1,2328,2329
 791 300 791 300 799 301 c 1,2330,2331
 799 311 799 311 806 320 c 1,2332,-1
 806 323 l 1,2333,-1
 802 323 l 1,2334,2335
 802 311 802 311 769 279 c 1,2336,-1
 762 279 l 1,2337,-1
 762 286 l 1,2338,-1
 758 286 l 2,2339,2340
 753 286 753 286 717 253 c 1,2341,2342
 710 256 710 256 706 256 c 1,2343,2344
 706 270 706 270 773 360 c 1,2299,-1
632 357 m 1,2345,-1
 635 357 l 1,2346,-1
 635 353 l 2,2347,2348
 635 348 635 348 625 342 c 1,2349,-1
 620 342 l 1,2350,-1
 620 346 l 2,2351,2352
 620 351 620 351 632 357 c 1,2345,-1
755 357 m 1,2353,-1
 762 357 l 1,2354,-1
 699 264 l 1,2355,-1
 691 264 l 1,2356,-1
 691 267 l 1,2357,2358
 713 309 713 309 755 357 c 1,2353,-1
843 357 m 1,2359,-1
 848 357 l 1,2360,-1
 848 353 l 2,2361,2362
 848 347 848 347 832 338 c 1,2363,-1
 829 346 l 1,2364,-1
 843 357 l 1,2359,-1
646 353 m 1,2365,-1
 653 353 l 1,2366,-1
 653 346 l 1,2367,2368
 609 285 609 285 590 271 c 1,2369,-1
 587 271 l 1,2370,-1
 587 275 l 1,2371,2372
 591 295 591 295 646 353 c 1,2365,-1
178 349 m 2,2373,-1
 182 349 l 1,2374,2375
 182 344 182 344 170 338 c 1,2376,-1
 170 342 l 2,2377,2378
 172 349 172 349 178 349 c 2,2373,-1
988 349 m 1,2379,-1
 992 349 l 1,2380,2381
 992 327 992 327 936 279 c 1,2382,-1
 929 290 l 2,2383,2384
 931 290 931 290 988 349 c 1,2379,-1
130 346 m 1,2385,2386
 130 338 130 338 141 338 c 1,2387,-1
 141 334 l 2,2388,2389
 141 330 141 330 114 312 c 1,2390,-1
 107 312 l 1,2391,-1
 107 320 l 1,2392,-1
 111 327 l 1,2393,2394
 104 327 104 327 104 334 c 0,2395,2396
 104 342 104 342 130 346 c 1,2385,2386
505 346 m 1,2397,-1
 505 338 l 1,2398,-1
 468 327 l 1,2399,-1
 468 334 l 1,2400,-1
 505 346 l 1,2397,-1
182 342 m 1,2401,2402
 189 328 189 328 189 312 c 1,2403,-1
 174 301 l 1,2404,-1
 170 301 l 1,2405,-1
 174 309 l 2,2406,2407
 174 316 174 316 167 316 c 1,2408,2409
 167 311 167 311 126 283 c 1,2410,-1
 119 283 l 1,2411,-1
 114 309 l 1,2412,-1
 160 334 l 1,2413,-1
 163 334 l 1,2414,-1
 160 327 l 1,2415,-1
 163 327 l 1,2416,2417
 163 332 163 332 182 342 c 1,2401,2402
397 342 m 1,2418,-1
 401 342 l 1,2419,-1
 401 338 l 1,2420,2421
 345 223 345 223 342 223 c 2,2422,-1
 334 227 l 1,2423,2424
 346 268 346 268 397 342 c 1,2418,-1
535 342 m 0,2425,2426
 542 341 542 341 542 334 c 1,2427,2428
 532 327 532 327 472 304 c 1,2429,-1
 468 312 l 1,2430,2431
 522 342 522 342 535 342 c 0,2425,2426
851 342 m 2,2432,-1
 858 342 l 1,2433,-1
 858 334 l 2,2434,2435
 857 327 857 327 839 320 c 1,2436,2437
 839 323 839 323 836 323 c 1,2438,2439
 843 341 843 341 851 342 c 2,2432,-1
725 338 m 1,2440,-1
 725 330 l 1,2441,2442
 714 309 714 309 709 309 c 2,2443,-1
 706 309 l 1,2444,-1
 706 312 l 1,2445,2446
 718 338 718 338 725 338 c 1,2440,-1
773 309 m 1,2447,-1
 773 304 l 1,2448,-1
 776 304 l 2,2449,2450
 780 304 780 304 795 330 c 1,2451,-1
 795 334 l 2,2452,2453
 792 334 792 334 773 309 c 1,2447,-1
401 334 m 1,2454,-1
 405 334 l 2,2455,2456
 412 333 412 333 412 327 c 2,2457,-1
 372 237 l 1,2458,-1
 372 230 l 1,2459,-1
 375 230 l 1,2460,2461
 375 248 375 248 412 316 c 1,2462,2463
 427 310 427 310 427 290 c 1,2464,2465
 380 212 380 212 375 212 c 0,2466,2467
 367 212 367 212 367 223 c 1,2468,-1
 360 219 l 2,2469,2470
 353 219 353 219 353 227 c 0,2471,2472
 375 283 375 283 401 334 c 1,2454,-1
643 327 m 1,2473,-1
 650 327 l 1,2474,-1
 650 323 l 1,2475,2476
 603 258 603 258 572 227 c 1,2477,-1
 569 227 l 1,2478,-1
 569 230 l 1,2479,2480
 578 250 578 250 635 312 c 0,2481,2482
 643 321 643 321 643 327 c 1,2473,-1
535 323 m 1,2483,2484
 542 322 542 322 542 316 c 0,2485,2486
 542 312 542 312 472 286 c 1,2487,-1
 468 293 l 1,2488,2489
 522 314 522 314 535 323 c 1,2483,2484
1104 286 m 1,2490,2491
 1123 286 1123 286 1129 301 c 1,2492,2493
 1122 301 1122 301 1122 320 c 1,2494,2495
 1104 320 1104 320 1104 286 c 1,2490,2491
862 320 m 1,2496,-1
 866 320 l 1,2497,-1
 866 312 l 2,2498,2499
 866 307 866 307 851 297 c 1,2500,-1
 848 304 l 2,2501,2502
 848 311 848 311 862 320 c 1,2496,-1
189 309 m 1,2503,-1
 193 301 l 1,2504,-1
 193 297 l 1,2505,2506
 144 254 144 254 144 249 c 1,2507,-1
 141 249 l 2,2508,2509
 133 249 133 249 133 256 c 2,2510,-1
 133 260 l 1,2511,-1
 152 283 l 1,2512,-1
 149 283 l 1,2513,2514
 149 278 149 278 130 264 c 1,2515,-1
 126 271 l 1,2516,-1
 126 275 l 1,2517,2518
 146 301 146 301 170 301 c 1,2519,-1
 163 290 l 1,2520,-1
 167 290 l 1,2521,2522
 167 294 167 294 189 309 c 1,2503,-1
643 309 m 1,2523,-1
 650 309 l 1,2524,-1
 650 293 l 2,2525,2526
 650 290 650 290 646 290 c 1,2527,2528
 653 278 653 278 653 271 c 1,2529,2530
 616 229 616 229 557 153 c 1,2531,-1
 550 153 l 1,2532,-1
 550 156 l 2,2533,2534
 550 164 550 164 639 275 c 1,2535,-1
 635 275 l 1,2536,2537
 635 269 635 269 620 260 c 1,2538,-1
 620 264 l 1,2539,-1
 643 309 l 1,2523,-1
509 293 m 1,2540,-1
 509 286 l 1,2541,-1
 472 275 l 1,2542,-1
 472 279 l 2,2543,2544
 472 287 472 287 509 293 c 1,2540,-1
876 293 m 2,2545,-1
 885 293 l 1,2546,-1
 885 286 l 2,2547,2548
 885 281 885 281 869 271 c 1,2549,-1
 862 275 l 1,2550,2551
 869 292 869 292 876 293 c 2,2545,-1
197 290 m 1,2552,2553
 204 289 204 289 204 283 c 1,2554,2555
 166 247 166 247 144 241 c 1,2556,-1
 144 249 l 1,2557,2558
 154 249 154 249 182 279 c 1,2559,-1
 197 290 l 1,2552,2553
427 286 m 1,2560,-1
 430 286 l 2,2561,2562
 439 285 439 285 439 279 c 0,2563,2564
 396 208 396 208 393 208 c 2,2565,-1
 386 208 l 1,2566,-1
 386 216 l 1,2567,2568
 406 238 406 238 427 286 c 1,2560,-1
532 286 m 1,2569,-1
 535 279 l 1,2570,2571
 527 264 527 264 457 241 c 1,2572,-1
 457 249 l 2,2573,2574
 457 264 457 264 532 286 c 1,2569,-1
1201 283 m 2,2575,-1
 1208 283 l 1,2576,-1
 1208 279 l 2,2577,2578
 1208 189 1208 189 1126 160 c 1,2579,-1
 1118 160 l 1,2580,2581
 1092 179 1092 179 1092 193 c 1,2582,-1
 1099 197 l 1,2583,2584
 1099 192 1099 192 1118 179 c 1,2585,-1
 1126 179 l 2,2586,2587
 1175 179 1175 179 1192 275 c 0,2588,2589
 1194 283 1194 283 1201 283 c 2,2575,-1
885 279 m 1,2590,-1
 888 279 l 1,2591,-1
 888 275 l 2,2592,2593
 888 269 888 269 873 260 c 1,2594,-1
 873 267 l 2,2595,2596
 873 272 873 272 885 279 c 1,2590,-1
207 271 m 1,2597,2598
 216 270 216 270 216 264 c 1,2599,2600
 196 245 196 245 163 223 c 1,2601,-1
 152 223 l 1,2602,-1
 152 227 l 1,2603,2604
 168 250 168 250 207 271 c 1,2597,2598
435 267 m 1,2605,-1
 442 267 l 1,2606,-1
 442 264 l 1,2607,2608
 424 216 424 216 409 216 c 1,2609,-1
 409 219 l 1,2610,2611
 435 260 435 260 435 267 c 1,2605,-1
219 256 m 1,2612,-1
 223 249 l 1,2613,-1
 223 246 l 2,2614,2615
 223 241 223 241 174 208 c 1,2616,-1
 170 208 l 2,2617,2618
 163 208 163 208 163 216 c 0,2619,2620
 163 221 163 221 174 227 c 1,2621,-1
 182 223 l 1,2622,2623
 183 228 183 228 219 256 c 1,2612,-1
446 256 m 2,2624,-1
 449 256 l 1,2625,-1
 449 249 l 2,2626,2627
 449 244 449 244 435 234 c 1,2628,-1
 430 234 l 1,2629,2630
 440 256 440 256 446 256 c 2,2624,-1
523 256 m 1,2631,-1
 523 253 l 1,2632,2633
 482 227 482 227 460 227 c 1,2634,-1
 460 219 l 1,2635,-1
 464 219 l 2,2636,2637
 470 219 470 219 513 237 c 1,2638,-1
 513 234 l 1,2639,-1
 449 197 l 1,2640,-1
 457 197 l 1,2641,2642
 483 212 483 212 494 212 c 1,2643,-1
 494 208 l 1,2644,2645
 449 166 449 166 364 144 c 1,2646,2647
 364 153 364 153 360 153 c 0,2648,2649
 342 141 342 141 334 141 c 1,2650,-1
 334 149 l 1,2651,2652
 360 156 360 156 409 200 c 1,2653,-1
 420 200 l 1,2654,-1
 420 197 l 1,2655,-1
 412 197 l 1,2656,-1
 412 193 l 1,2657,-1
 416 193 l 1,2658,2659
 423 197 423 197 427 197 c 1,2660,-1
 427 200 l 1,2661,-1
 420 200 l 1,2662,2663
 445 218 445 218 453 241 c 1,2664,-1
 460 237 l 1,2665,-1
 523 256 l 1,2631,-1
650 256 m 1,2666,-1
 658 256 l 1,2667,-1
 658 249 l 1,2668,2669
 628 208 628 208 625 208 c 2,2670,-1
 620 216 l 1,2671,2672
 637 229 637 229 650 256 c 1,2666,-1
226 241 m 1,2673,-1
 230 241 l 1,2674,-1
 230 234 l 2,2675,2676
 230 230 230 230 186 193 c 1,2677,2678
 178 193 178 193 178 200 c 1,2679,2680
 207 222 207 222 226 241 c 1,2673,-1
327 241 m 1,2681,-1
 327 234 l 2,2682,2683
 327 227 327 227 319 227 c 1,2684,-1
 319 234 l 2,2685,2686
 321 241 321 241 327 241 c 1,2681,-1
821 237 m 1,2687,-1
 825 237 l 1,2688,2689
 823 190 823 190 818 190 c 1,2690,-1
 821 182 l 1,2691,2692
 805 130 805 130 788 130 c 1,2693,2694
 762 100 762 100 758 100 c 2,2695,-1
 746 100 l 1,2696,2697
 773 121 773 121 795 160 c 1,2698,-1
 795 163 l 1,2699,2700
 740 100 740 100 736 100 c 2,2701,-1
 725 100 l 1,2702,2703
 725 104 725 104 821 237 c 1,2687,-1
662 234 m 1,2704,-1
 665 234 l 1,2705,-1
 665 227 l 2,2706,2707
 663 218 663 218 635 204 c 1,2708,-1
 635 208 l 2,2709,2710
 635 214 635 214 662 234 c 1,2704,-1
230 230 m 1,2711,-1
 234 230 l 2,2712,2713
 241 229 241 229 241 223 c 2,2714,-1
 241 212 l 1,2715,2716
 231 212 231 212 219 200 c 1,2717,-1
 212 200 l 1,2718,2719
 230 219 230 219 230 230 c 1,2711,-1
669 219 m 1,2720,-1
 672 219 l 1,2721,-1
 672 212 l 1,2722,2723
 642 183 642 183 635 182 c 1,2724,-1
 635 186 l 2,2725,2726
 635 191 635 191 669 219 c 1,2720,-1
256 208 m 0,2727,2728
 261 208 261 208 267 197 c 1,2729,-1
 267 190 l 1,2730,2731
 261 190 261 190 226 167 c 1,2732,2733
 218 174 218 174 212 174 c 1,2734,-1
 212 179 l 1,2735,2736
 232 208 232 208 256 208 c 0,2727,2728
676 204 m 1,2737,2738
 683 203 683 203 683 197 c 0,2739,2740
 683 192 683 192 650 163 c 1,2741,-1
 639 163 l 1,2742,-1
 639 171 l 2,2743,2744
 640 176 640 176 676 204 c 1,2737,2738
565 200 m 2,2745,-1
 569 200 l 1,2746,-1
 569 197 l 2,2747,2748
 569 192 569 192 557 186 c 1,2749,-1
 557 193 l 2,2750,2751
 558 200 558 200 565 200 c 2,2745,-1
193 197 m 1,2752,-1
 207 197 l 1,2753,2754
 207 190 207 190 200 190 c 2,2755,-1
 193 190 l 1,2756,-1
 193 197 l 1,2752,-1
234 190 m 2,2757,-1
 234 186 l 1,2758,-1
 241 186 l 1,2759,-1
 245 193 l 1,2760,2761
 237 190 237 190 234 190 c 2,2757,-1
688 193 m 1,2762,-1
 691 186 l 1,2763,-1
 658 156 l 1,2764,-1
 658 160 l 1,2765,2766
 680 192 680 192 688 193 c 1,2762,-1
279 186 m 1,2767,-1
 290 186 l 1,2768,-1
 290 179 l 1,2769,2770
 279 179 279 179 279 171 c 1,2771,-1
 286 171 l 1,2772,-1
 304 182 l 1,2773,2774
 312 181 312 181 312 174 c 2,2775,-1
 312 171 l 1,2776,2777
 300 171 300 171 267 149 c 1,2778,-1
 263 156 l 1,2779,2780
 271 156 271 156 271 163 c 2,2781,-1
 271 167 l 1,2782,2783
 259 160 259 160 249 160 c 2,2784,-1
 245 160 l 1,2785,2786
 250 169 250 169 279 186 c 1,2767,-1
360 182 m 1,2787,-1
 360 179 l 2,2788,2789
 360 169 360 169 300 141 c 1,2790,-1
 297 149 l 1,2791,2792
 323 167 323 167 323 179 c 1,2793,-1
 360 182 l 1,2787,-1
397 174 m 1,2794,-1
 397 171 l 1,2795,-1
 401 171 l 2,2796,2797
 409 174 409 174 412 174 c 2,2798,-1
 412 179 l 1,2799,-1
 409 179 l 1,2800,2801
 401 174 401 174 397 174 c 1,2794,-1
401 167 m 1,2802,-1
 401 163 l 1,2803,-1
 405 163 l 1,2804,2805
 417 171 417 171 423 171 c 1,2806,-1
 423 174 l 1,2807,-1
 420 174 l 1,2808,2809
 408 167 408 167 401 167 c 1,2802,-1
486 179 m 1,2810,-1
 490 179 l 1,2811,2812
 490 168 490 168 472 141 c 1,2813,-1
 464 141 l 1,2814,-1
 464 149 l 1,2815,-1
 486 179 l 1,2810,-1
706 167 m 1,2816,-1
 717 167 l 1,2817,-1
 717 163 l 2,2818,2819
 716 154 716 154 676 119 c 1,2820,-1
 672 119 l 1,2821,-1
 672 123 l 1,2822,2823
 692 146 692 146 706 167 c 1,2816,-1
595 156 m 1,2824,-1
 598 156 l 1,2825,-1
 598 153 l 2,2826,2827
 598 119 598 119 532 49 c 1,2828,-1
 527 49 l 1,2829,2830
 527 59 527 59 516 78 c 1,2831,2832
 544 137 544 137 569 137 c 1,2833,-1
 569 134 l 1,2834,-1
 527 70 l 1,2835,-1
 527 67 l 1,2836,2837
 575 134 575 134 595 156 c 1,2824,-1
494 153 m 1,2838,-1
 502 153 l 1,2839,-1
 502 149 l 1,2840,2841
 489 123 489 123 483 123 c 1,2842,-1
 479 130 l 1,2843,2844
 486 130 486 130 494 153 c 1,2838,-1
680 153 m 1,2845,2846
 680 148 680 148 662 134 c 1,2847,-1
 658 141 l 1,2848,2849
 672 153 672 153 680 153 c 1,2845,2846
509 137 m 0,2850,2851
 516 136 516 136 516 130 c 0,2852,2853
 504 104 504 104 498 104 c 0,2854,2855
 490 104 490 104 490 111 c 0,2856,2857
 503 137 503 137 509 137 c 0,2850,2851
702 123 m 1,2858,-1
 702 119 l 2,2859,2860
 702 111 702 111 695 111 c 2,2861,-1
 691 111 l 1,2862,2863
 691 117 691 117 702 123 c 1,2858,-1
520 119 m 0,2864,2865
 527 118 527 118 527 111 c 0,2866,2867
 510 86 510 86 505 86 c 1,2868,-1
 502 93 l 1,2869,-1
 502 97 l 1,2870,2871
 514 119 514 119 520 119 c 0,2864,2865
583 107 m 1,2872,-1
 587 107 l 1,2873,-1
 587 97 l 2,2874,2875
 587 80 587 80 546 37 c 1,2876,-1
 539 37 l 1,2877,-1
 539 41 l 1,2878,-1
 583 107 l 1,2872,-1
576 70 m 1,2879,-1
 583 70 l 1,2880,-1
 583 60 l 1,2881,2882
 563 30 563 30 557 30 c 2,2883,-1
 553 30 l 1,2884,-1
 553 33 l 1,2885,2886
 576 64 576 64 576 70 c 1,2879,-1
576 41 m 2,2887,-1
 583 41 l 1,2888,-1
 583 33 l 2,2889,2890
 583 28 583 28 572 23 c 1,2891,-1
 569 23 l 1,2892,-1
 569 33 l 2,2893,2894
 570 41 570 41 576 41 c 2,2887,-1
EndSplineSet
Validated: 133
EndChar

StartChar: trademark
Encoding: 103 8482 44
Width: 2042
Flags: W
LayerCount: 2
Fore
SplineSet
269 1432 m 0,0,1
 271 1432 271 1432 277 1430 c 1,2,-1
 277 1427 l 2,3,4
 277 1419 277 1419 275 1416 c 2,5,-1
 272 1417 l 1,6,-1
 270 1417 l 2,7,8
 268 1416 268 1416 268 1411 c 2,9,-1
 268 1403 l 1,10,-1
 273 1403 l 2,11,12
 275 1403 275 1403 275 1402 c 2,13,-1
 275 1390 l 2,14,15
 275 1389 275 1389 273 1389 c 2,16,-1
 268 1389 l 1,17,-1
 268 1334 l 2,18,19
 268 1332 268 1332 266 1332 c 2,20,-1
 260 1332 l 2,21,22
 258 1332 258 1332 258 1334 c 2,23,-1
 258 1387 l 2,24,25
 258 1389 258 1389 253 1389 c 1,26,-1
 253 1402 l 2,27,28
 253 1403 253 1403 254 1403 c 2,29,-1
 258 1403 l 1,30,-1
 258 1414 l 2,31,32
 258 1432 258 1432 269 1432 c 0,0,1
101 1430 m 2,33,-1
 138 1430 l 2,34,35
 139 1430 139 1430 139 1429 c 2,36,-1
 139 1414 l 2,37,38
 139 1413 139 1413 138 1413 c 2,39,-1
 124 1413 l 1,40,-1
 124 1334 l 2,41,42
 124 1332 124 1332 123 1332 c 2,43,-1
 116 1332 l 2,44,45
 114 1332 114 1332 114 1334 c 2,46,-1
 114 1413 l 2,47,48
 113 1413 113 1413 113 1414 c 2,49,-1
 112 1413 l 1,50,-1
 101 1413 l 2,51,52
 100 1413 100 1413 100 1414 c 2,53,-1
 100 1429 l 2,54,55
 100 1430 100 1430 101 1430 c 2,33,-1
636 1430 m 2,56,-1
 643 1430 l 2,57,58
 644 1430 644 1430 644 1429 c 2,59,-1
 644 1334 l 2,60,61
 644 1332 644 1332 643 1332 c 2,62,-1
 636 1332 l 2,63,64
 635 1332 635 1332 635 1334 c 2,65,-1
 635 1341 l 1,66,-1
 634 1341 l 1,67,68
 634 1335 634 1335 625 1331 c 1,69,-1
 624 1331 l 2,70,71
 611 1331 611 1331 609 1368 c 0,72,73
 610 1398 610 1398 621 1404 c 2,74,-1
 624 1405 l 2,75,76
 630 1405 630 1405 634 1397 c 1,77,-1
 634 1397 l 1,78,-1
 634 1429 l 2,79,80
 635 1430 635 1430 636 1430 c 2,56,-1
673 1430 m 2,81,-1
 680 1430 l 2,82,83
 681 1430 681 1430 681 1429 c 2,84,-1
 681 1397 l 1,85,-1
 682 1397 l 1,86,87
 685 1405 685 1405 693 1405 c 0,88,89
 706 1399 706 1399 706 1369 c 0,90,91
 704 1331 704 1331 692 1331 c 2,92,-1
 691 1331 l 2,93,94
 685 1331 685 1331 681 1340 c 1,95,-1
 681 1340 l 1,96,-1
 681 1334 l 2,97,98
 681 1332 681 1332 679 1332 c 2,99,-1
 673 1332 l 2,100,101
 672 1332 672 1332 672 1334 c 2,102,-1
 672 1429 l 2,103,104
 672 1430 672 1430 673 1430 c 2,81,-1
560 1427 m 2,105,-1
 561 1427 l 1,106,-1
 561 1403 l 1,107,-1
 566 1403 l 2,108,109
 568 1403 568 1403 568 1402 c 2,110,-1
 568 1389 l 2,111,112
 568 1388 568 1388 566 1388 c 2,113,-1
 561 1388 l 1,114,-1
 561 1363 l 2,115,116
 561 1346 561 1346 564 1346 c 1,117,-1
 564 1346 l 1,118,-1
 567 1348 l 1,119,-1
 568 1346 l 1,120,-1
 568 1344 l 2,121,122
 568 1340 568 1340 569 1334 c 1,123,124
 565 1331 565 1331 562 1331 c 2,125,-1
 560 1331 l 2,126,127
 552 1331 552 1331 552 1351 c 2,128,-1
 552 1388 l 1,129,130
 547 1388 547 1388 547 1389 c 2,131,-1
 547 1402 l 2,132,133
 547 1403 547 1403 552 1403 c 1,134,-1
 552 1417 l 1,135,136
 560 1426 560 1426 560 1427 c 2,105,-1
197 1405 m 0,137,138
 208 1405 208 1405 211 1381 c 0,139,140
 212 1376 212 1376 212 1369 c 2,141,-1
 212 1367 l 2,142,143
 212 1338 212 1338 200 1332 c 0,144,145
 199 1331 199 1331 198 1331 c 2,146,-1
 196 1331 l 2,147,148
 191 1331 191 1331 188 1340 c 1,149,-1
 187 1340 l 1,150,-1
 187 1306 l 2,151,152
 187 1305 187 1305 186 1305 c 2,153,-1
 179 1305 l 2,154,155
 177 1305 177 1305 177 1306 c 2,156,-1
 177 1402 l 2,157,158
 178 1403 178 1403 179 1403 c 2,159,-1
 185 1403 l 2,160,161
 186 1403 186 1403 186 1402 c 2,162,-1
 186 1394 l 1,163,-1
 187 1394 l 1,164,165
 190 1405 190 1405 197 1405 c 0,137,138
234 1405 m 2,166,167
 247 1405 247 1405 249 1371 c 2,168,-1
 249 1363 l 2,169,170
 249 1362 249 1362 248 1362 c 2,171,-1
 226 1362 l 1,172,-1
 226 1361 l 2,173,174
 226 1349 226 1349 232 1345 c 1,175,-1
 235 1345 l 2,176,177
 237 1345 237 1345 240 1355 c 1,178,-1
 241 1355 l 2,179,180
 249 1353 249 1353 249 1351 c 0,181,182
 245 1331 245 1331 235 1331 c 2,183,-1
 233 1331 l 2,184,185
 219 1331 219 1331 217 1360 c 2,186,-1
 217 1374 l 2,187,188
 219 1405 219 1405 232 1405 c 2,189,-1
 234 1405 l 2,166,167
293 1405 m 0,190,191
 302 1405 302 1405 306 1398 c 0,192,193
 308 1392 308 1392 308 1379 c 2,194,-1
 308 1348 l 2,195,196
 308 1339 308 1339 310 1333 c 1,197,-1
 309 1332 l 1,198,-1
 302 1332 l 2,199,200
 300 1332 300 1332 300 1339 c 1,201,-1
 299 1339 l 1,202,203
 296 1331 296 1331 289 1331 c 2,204,-1
 288 1331 l 2,205,206
 279 1331 279 1331 277 1350 c 2,207,-1
 277 1353 l 2,208,209
 277 1368 277 1368 288 1374 c 0,210,211
 299 1377 299 1377 299 1379 c 2,212,-1
 299 1380 l 2,213,214
 298 1390 298 1390 296 1390 c 2,215,-1
 291 1390 l 2,216,217
 289 1390 289 1390 287 1382 c 1,218,-1
 286 1382 l 2,219,220
 281 1383 281 1383 278 1385 c 0,221,222
 281 1405 281 1405 293 1405 c 0,190,191
332 1405 m 1,223,-1
 333 1405 l 2,224,225
 345 1405 345 1405 348 1383 c 2,226,-1
 348 1382 l 2,227,228
 346 1381 346 1381 339 1379 c 1,229,230
 337 1390 337 1390 332 1390 c 0,231,232
 326 1390 326 1390 325 1375 c 2,233,-1
 325 1362 l 2,234,235
 325 1346 325 1346 333 1346 c 2,236,-1
 334 1346 l 2,237,238
 337 1346 337 1346 340 1359 c 1,239,-1
 340 1359 l 1,240,241
 349 1357 349 1357 349 1355 c 0,242,243
 349 1340 349 1340 336 1331 c 1,244,-1
 331 1331 l 1,245,246
 316 1336 316 1336 316 1359 c 1,247,248
 315 1359 315 1359 315 1367 c 2,249,-1
 315 1368 l 2,250,251
 315 1398 315 1398 328 1404 c 2,252,-1
 332 1405 l 1,223,-1
370 1405 m 2,253,254
 383 1405 383 1405 385 1371 c 2,255,-1
 385 1363 l 2,256,257
 385 1362 385 1362 384 1362 c 2,258,-1
 362 1362 l 1,259,-1
 362 1361 l 2,260,261
 362 1349 362 1349 368 1345 c 1,262,-1
 371 1345 l 2,263,264
 373 1345 373 1345 376 1355 c 1,265,-1
 376 1355 l 1,266,267
 384 1353 384 1353 384 1351 c 0,268,269
 381 1331 381 1331 371 1331 c 2,270,-1
 369 1331 l 2,271,272
 355 1331 355 1331 353 1360 c 2,273,-1
 353 1374 l 2,274,275
 355 1405 355 1405 368 1405 c 2,276,-1
 370 1405 l 2,253,254
427 1405 m 1,277,-1
 427 1405 l 1,278,279
 439 1405 439 1405 442 1383 c 2,280,-1
 442 1382 l 2,281,282
 440 1381 440 1381 433 1379 c 1,283,284
 432 1390 432 1390 427 1390 c 0,285,286
 419 1390 419 1390 419 1370 c 0,287,288
 420 1346 420 1346 425 1346 c 2,289,-1
 429 1346 l 2,290,291
 431 1346 431 1346 434 1359 c 1,292,-1
 435 1359 l 2,293,294
 443 1357 443 1357 443 1355 c 0,295,296
 443 1341 443 1341 432 1332 c 1,297,-1
 427 1331 l 1,298,-1
 426 1331 l 2,299,300
 415 1331 415 1331 411 1351 c 0,301,302
 410 1357 410 1357 410 1366 c 2,303,-1
 410 1370 l 2,304,305
 410 1397 410 1397 423 1404 c 2,306,-1
 427 1405 l 1,277,-1
465 1405 m 0,307,308
 470 1405 470 1405 472 1401 c 0,309,310
 470 1385 470 1385 468 1385 c 1,311,312
 468 1387 468 1387 465 1388 c 0,313,314
 459 1388 459 1388 459 1361 c 2,315,-1
 459 1334 l 2,316,317
 459 1332 459 1332 457 1332 c 2,318,-1
 450 1332 l 2,319,320
 449 1332 449 1332 449 1334 c 2,321,-1
 449 1402 l 2,322,323
 449 1403 449 1403 450 1403 c 2,324,-1
 456 1403 l 2,325,326
 458 1403 458 1403 458 1402 c 2,327,-1
 458 1395 l 1,328,-1
 459 1395 l 1,329,330
 459 1400 459 1400 465 1405 c 0,307,308
490 1405 m 0,331,332
 497 1405 497 1405 503 1393 c 0,333,334
 506 1382 506 1382 506 1365 c 2,335,-1
 506 1363 l 2,336,337
 506 1362 506 1362 505 1362 c 2,338,-1
 483 1362 l 1,339,-1
 483 1361 l 2,340,341
 483 1349 483 1349 489 1345 c 1,342,-1
 492 1345 l 2,343,344
 494 1345 494 1345 497 1355 c 1,345,-1
 497 1355 l 1,346,347
 505 1353 505 1353 505 1351 c 0,348,349
 501 1331 501 1331 492 1331 c 2,350,-1
 488 1331 l 2,351,352
 475 1331 475 1331 473 1367 c 0,353,354
 473 1397 473 1397 486 1404 c 0,355,356
 488 1405 488 1405 490 1405 c 0,331,332
526 1405 m 2,357,-1
 528 1405 l 2,358,359
 542 1405 542 1405 542 1384 c 2,360,-1
 542 1359 l 2,361,362
 542 1343 542 1343 544 1333 c 1,363,-1
 543 1332 l 1,364,-1
 536 1332 l 2,365,366
 534 1332 534 1332 534 1340 c 1,367,-1
 533 1340 l 1,368,369
 530 1331 530 1331 524 1331 c 2,370,-1
 522 1331 l 2,371,372
 511 1334 511 1334 511 1353 c 0,373,374
 511 1369 511 1369 525 1375 c 0,375,376
 528 1375 528 1375 533 1379 c 1,377,378
 532 1390 532 1390 529 1390 c 2,379,-1
 525 1390 l 2,380,381
 523 1390 523 1390 520 1382 c 1,382,-1
 519 1382 l 2,383,384
 512 1384 512 1384 512 1386 c 0,385,386
 515 1405 515 1405 526 1405 c 2,357,-1
587 1405 m 2,387,-1
 588 1405 l 2,388,389
 600 1405 600 1405 604 1378 c 0,390,391
 604 1371 604 1371 604 1363 c 1,392,-1
 603 1362 l 1,393,-1
 581 1362 l 1,394,395
 581 1350 581 1350 587 1345 c 1,396,-1
 590 1345 l 2,397,398
 592 1345 592 1345 594 1355 c 1,399,-1
 595 1355 l 2,400,401
 602 1353 602 1353 604 1351 c 0,402,403
 599 1331 599 1331 589 1331 c 2,404,-1
 588 1331 l 2,405,406
 575 1331 575 1331 572 1354 c 0,407,408
 571 1359 571 1359 571 1365 c 2,409,-1
 571 1370 l 2,410,411
 573 1405 573 1405 587 1405 c 2,387,-1
137 1403 m 1,412,-1
 145 1403 l 2,413,414
 147 1403 147 1403 154 1355 c 1,415,-1
 154 1355 l 1,416,417
 162 1403 162 1403 163 1403 c 2,418,-1
 171 1403 l 1,419,-1
 172 1403 l 1,420,421
 157 1314 157 1314 152 1307 c 0,422,423
 148 1304 148 1304 145 1304 c 2,424,-1
 143 1304 l 2,425,426
 138 1304 138 1304 138 1312 c 2,427,-1
 138 1319 l 2,428,429
 139 1319 139 1319 139 1319 c 1,430,-1
 142 1319 l 2,431,432
 149 1321 149 1321 149 1332 c 0,433,434
 136 1400 136 1400 136 1403 c 2,435,-1
 137 1403 l 1,412,-1
710 1403 m 1,436,-1
 718 1403 l 2,437,438
 720 1403 720 1403 727 1355 c 1,439,-1
 727 1355 l 1,440,-1
 736 1403 l 1,441,-1
 737 1403 l 1,442,-1
 744 1403 l 2,443,444
 745 1403 745 1403 745 1402 c 0,445,446
 731 1317 731 1317 726 1308 c 0,447,448
 722 1304 722 1304 719 1304 c 2,449,-1
 716 1304 l 2,450,451
 712 1304 712 1304 712 1306 c 0,452,453
 712 1309 712 1309 711 1319 c 1,454,-1
 712 1319 l 1,455,-1
 716 1319 l 2,456,457
 720 1319 720 1319 722 1332 c 1,458,-1
 709 1403 l 1,459,-1
 710 1403 l 1,436,-1
773 1403 m 2,460,-1
 780 1403 l 2,461,462
 781 1403 781 1403 781 1402 c 2,463,-1
 781 1386 l 2,464,465
 781 1384 781 1384 780 1384 c 2,466,-1
 773 1384 l 2,467,468
 772 1384 772 1384 772 1386 c 2,469,-1
 772 1402 l 2,470,471
 772 1403 772 1403 773 1403 c 2,460,-1
187 1368 m 2,472,473
 187 1346 187 1346 196 1346 c 0,474,475
 203 1348 203 1348 203 1369 c 256,476,477
 203 1390 203 1390 194 1390 c 0,478,479
 188 1390 188 1390 187 1369 c 2,480,-1
 187 1368 l 2,472,473
226 1374 m 1,481,-1
 228 1374 l 1,482,483
 228 1374 228 1374 228 1374 c 1,484,-1
 232 1374 l 1,485,-1
 239 1374 l 2,486,487
 240 1374 240 1374 240 1375 c 2,488,-1
 240 1377 l 2,489,490
 240 1390 240 1390 233 1390 c 2,491,-1
 232 1390 l 1,492,493
 226 1386 226 1386 226 1374 c 1,481,-1
362 1374 m 1,494,-1
 363 1374 l 2,495,496
 364 1374 364 1374 364 1374 c 1,497,-1
 368 1374 l 1,498,-1
 374 1374 l 2,499,500
 376 1374 376 1374 376 1375 c 2,501,-1
 376 1377 l 2,502,503
 376 1390 376 1390 369 1390 c 2,504,-1
 368 1390 l 1,505,506
 362 1386 362 1386 362 1374 c 1,494,-1
483 1374 m 1,507,-1
 484 1374 l 1,508,-1
 495 1374 l 2,509,510
 497 1374 497 1374 497 1375 c 0,511,512
 497 1386 497 1386 491 1390 c 1,513,-1
 488 1390 l 2,514,515
 484 1390 484 1390 483 1374 c 1,507,-1
581 1378 m 2,516,-1
 581 1375 l 2,517,518
 582 1374 582 1374 583 1374 c 2,519,-1
 594 1374 l 1,520,-1
 594 1378 l 2,521,522
 594 1386 594 1386 590 1390 c 1,523,-1
 588 1390 l 2,524,525
 581 1390 581 1390 581 1378 c 2,516,-1
619 1372 m 2,526,-1
 619 1365 l 2,527,528
 619 1346 619 1346 628 1346 c 0,529,530
 634 1349 634 1349 634 1365 c 2,531,-1
 634 1371 l 2,532,533
 633 1390 633 1390 628 1390 c 2,534,-1
 626 1390 l 2,535,536
 619 1387 619 1387 619 1372 c 2,526,-1
681 1372 m 2,537,-1
 681 1365 l 2,538,539
 681 1346 681 1346 689 1346 c 2,540,-1
 690 1346 l 2,541,542
 695 1346 695 1346 696 1366 c 2,543,-1
 696 1370 l 2,544,545
 695 1390 695 1390 690 1390 c 2,546,-1
 689 1390 l 2,547,548
 681 1390 681 1390 681 1372 c 2,537,-1
933 1377 m 2,549,-1
 934 1377 l 1,550,-1
 934 1376 l 1,551,-1
 937 1330 l 1,552,-1
 914 1078 l 1,553,554
 938 1100 938 1100 973 1114 c 0,555,556
 1069 1161 1069 1161 1312 1211 c 0,557,558
 1448 1236 1448 1236 1544 1236 c 0,559,560
 1733 1236 1733 1236 1813 1160 c 0,561,562
 1853 1120 1853 1120 1853 1061 c 0,563,564
 1853 987 1853 987 1759 919 c 0,565,566
 1708 882 1708 882 1652 854 c 0,567,568
 1586 821 1586 821 1438 788 c 0,569,570
 1381 777 1381 777 1288 762 c 0,571,572
 1248 753 1248 753 1230 743 c 0,573,574
 1224 739 1224 739 1224 738 c 2,575,-1
 1224 737 l 2,576,577
 1224 721 1224 721 1399 691 c 1,578,579
 1517 666 1517 666 1591 636 c 1,580,581
 1667 600 1667 600 1667 536 c 0,582,583
 1667 462 1667 462 1539 381 c 1,584,585
 1544 366 1544 366 1544 351 c 2,586,-1
 1544 347 l 2,587,588
 1544 282 1544 282 1410 183 c 0,589,590
 1340 134 1340 134 1251 96 c 0,591,592
 1188 70 1188 70 1074 37 c 1,593,594
 986 16 986 16 963 16 c 0,595,596
 842 0 842 0 804 0 c 2,597,-1
 725 0 l 2,598,599
 663 0 663 0 581 16 c 1,600,601
 537 29 537 29 505 48 c 0,602,603
 489 55 489 55 489 65 c 2,604,-1
 478 98 l 1,605,606
 509 180 509 180 520 229 c 0,607,608
 529 267 529 267 541 375 c 0,609,610
 547 409 547 409 555 424 c 0,611,612
 560 432 560 432 562 434 c 2,613,-1
 562 435 l 1,614,615
 544 439 544 439 544 442 c 2,616,-1
 544 469 l 1,617,618
 517 492 517 492 517 496 c 0,619,620
 501 527 501 527 501 577 c 2,621,-1
 501 578 l 1,622,623
 497 589 497 589 497 595 c 2,624,-1
 497 597 l 2,625,626
 497 613 497 613 511 617 c 0,627,628
 515 618 515 618 518 618 c 2,629,-1
 522 618 l 2,630,631
 527 618 527 618 535 616 c 1,632,-1
 535 617 l 1,633,634
 531 626 531 626 531 634 c 0,635,636
 531 648 531 648 543 655 c 0,637,638
 552 659 552 659 560 659 c 2,639,-1
 564 659 l 2,640,641
 578 659 578 659 591 646 c 1,642,-1
 591 663 l 1,643,644
 555 772 555 772 546 802 c 0,645,646
 545 807 545 807 545 809 c 2,647,-1
 545 811 l 2,648,649
 545 827 545 827 562 833 c 0,650,651
 569 836 569 836 578 836 c 2,652,-1
 580 836 l 2,653,654
 612 836 612 836 626 773 c 0,655,656
 628 769 628 769 655 679 c 1,657,-1
 655 679 l 1,658,659
 700 794 700 794 711 801 c 0,660,661
 722 814 722 814 736 814 c 0,662,663
 765 811 765 811 765 790 c 0,664,665
 765 777 765 777 723 653 c 1,666,667
 726 636 726 636 726 602 c 2,668,-1
 726 594 l 1,669,670
 738 565 738 565 738 554 c 1,671,672
 727 526 727 526 691 477 c 0,673,674
 690 476 690 476 690 473 c 2,675,-1
 690 441 l 2,676,677
 690 440 690 440 668 435 c 1,678,-1
 668 433 l 2,679,680
 668 428 668 428 667 420 c 0,681,682
 668 373 668 373 668 347 c 1,683,684
 623 254 623 254 596 189 c 2,685,-1
 578 143 l 2,686,687
 577 140 577 140 575 127 c 0,688,689
 575 86 575 86 668 75 c 2,690,-1
 712 69 l 1,691,692
 833 69 833 69 1026 122 c 1,693,694
 1179 170 1179 170 1295 228 c 0,695,696
 1335 248 1335 248 1410 299 c 0,697,698
 1425 311 1425 311 1436 325 c 1,699,-1
 1436 325 l 1,700,701
 1271 246 1271 246 1119 246 c 0,702,703
 1003 246 1003 246 906 305 c 1,704,705
 848 346 848 346 848 404 c 0,706,707
 848 464 848 464 903 545 c 2,708,-1
 985 661 l 2,709,710
 985 667 985 667 942 690 c 0,711,712
 897 712 897 712 897 732 c 2,713,-1
 897 733 l 2,714,715
 897 748 897 748 915 758 c 1,716,-1
 915 760 l 1,717,718
 747 833 747 833 608 883 c 0,719,720
 538 908 538 908 450 930 c 0,721,722
 441 932 441 932 414 932 c 1,723,-1
 401 930 l 2,724,725
 387 930 387 930 361 944 c 1,726,-1
 361 945 l 1,727,-1
 362 947 l 2,728,729
 360 947 360 947 325 952 c 1,730,731
 306 938 306 938 271 926 c 0,732,733
 257 923 257 923 254 923 c 0,734,735
 223 926 223 926 207 934 c 1,736,737
 198 932 198 932 195 932 c 0,738,739
 170 932 170 932 151 946 c 0,740,741
 145 953 145 953 145 959 c 0,742,743
 146 965 146 965 148 968 c 1,744,745
 121 974 121 974 121 989 c 2,746,-1
 121 990 l 2,747,748
 122 1000 122 1000 122 1002 c 0,749,750
 104 1011 104 1011 104 1023 c 0,751,752
 104 1033 104 1033 114 1043 c 1,753,754
 104 1053 104 1053 104 1068 c 0,755,756
 104 1096 104 1096 150 1103 c 0,757,758
 154 1104 154 1104 167 1104 c 2,759,-1
 171 1104 l 2,760,761
 191 1104 191 1104 212 1100 c 1,762,763
 212 1101 212 1101 213 1101 c 1,764,765
 213 1125 213 1125 200 1153 c 0,766,767
 193 1170 193 1170 193 1181 c 0,768,769
 193 1204 193 1204 218 1216 c 0,770,771
 232 1222 232 1222 255 1222 c 1,772,773
 256 1213 256 1213 260 1168 c 1,774,775
 309 1111 309 1111 316 1097 c 0,776,777
 338 1061 338 1061 346 1061 c 0,778,779
 384 1054 384 1054 389 1053 c 1,780,781
 391 1044 391 1044 392 1044 c 0,782,783
 413 1050 413 1050 415 1050 c 2,784,-1
 416 1050 l 1,785,-1
 462 1048 l 1,786,-1
 475 1048 l 2,787,788
 488 1048 488 1048 522 1038 c 1,789,790
 538 1038 538 1038 655 982 c 1,791,792
 787 929 787 929 811 917 c 1,793,794
 811 950 811 950 893 1054 c 1,795,-1
 901 1138 l 1,796,797
 868 1176 868 1176 834 1176 c 2,798,-1
 833 1176 l 1,799,800
 842 1088 842 1088 843 1084 c 0,801,802
 843 1060 843 1060 797 1052 c 0,803,804
 791 1052 791 1052 784 1052 c 0,805,806
 668 1052 668 1052 589 1194 c 1,807,-1
 589 1195 l 1,808,809
 625 1165 625 1165 666 1165 c 0,810,811
 736 1165 736 1165 785 1216 c 1,812,-1
 785 1217 l 1,813,814
 779 1260 779 1260 779 1269 c 2,815,-1
 779 1274 l 2,816,817
 779 1313 779 1313 820 1330 c 0,818,819
 829 1333 829 1333 843 1334 c 0,820,821
 880 1334 880 1334 915 1300 c 1,822,823
 918 1334 918 1334 926 1355 c 0,824,825
 932 1376 932 1376 933 1377 c 2,549,-1
287 1353 m 2,826,827
 287 1344 287 1344 292 1344 c 0,828,829
 298 1344 298 1344 299 1359 c 2,830,-1
 299 1366 l 1,831,832
 287 1362 287 1362 287 1355 c 2,833,-1
 287 1353 l 2,826,827
520 1354 m 256,834,835
 520 1347 520 1347 524 1344 c 2,836,-1
 527 1344 l 1,837,838
 533 1348 533 1348 533 1355 c 2,839,-1
 533 1365 l 1,840,-1
 532 1365 l 1,841,842
 520 1361 520 1361 520 1354 c 256,834,835
773 1351 m 2,843,-1
 780 1351 l 2,844,845
 781 1351 781 1351 781 1350 c 2,846,-1
 781 1334 l 2,847,848
 781 1332 781 1332 780 1332 c 2,849,-1
 773 1332 l 2,850,851
 772 1332 772 1332 772 1334 c 2,852,-1
 772 1350 l 2,853,854
 772 1351 772 1351 773 1351 c 2,843,-1
790 1260 m 2,855,-1
 790 1258 l 2,856,857
 790 1243 790 1243 799 1188 c 1,858,859
 813 1201 813 1201 830 1201 c 2,860,-1
 835 1201 l 2,861,862
 868 1201 868 1201 903 1165 c 1,863,-1
 913 1275 l 1,864,865
 872 1308 872 1308 843 1308 c 0,866,867
 803 1308 803 1308 791 1269 c 0,868,869
 790 1263 790 1263 790 1260 c 2,855,-1
208 1178 m 0,870,871
 208 1169 208 1169 224 1135 c 0,872,873
 228 1120 228 1120 228 1106 c 0,874,875
 227 1086 227 1086 225 1086 c 0,876,877
 187 1093 187 1093 163 1093 c 0,878,879
 131 1093 131 1093 122 1079 c 0,880,881
 119 1074 119 1074 119 1071 c 2,882,-1
 119 1067 l 2,883,884
 119 1045 119 1045 152 1035 c 0,885,886
 155 1035 155 1035 171 1033 c 1,887,888
 224 1043 224 1043 226 1043 c 1,889,890
 214 1062 214 1062 196 1062 c 2,891,-1
 193 1062 l 2,892,893
 192 1062 192 1062 192 1063 c 2,894,-1
 191 1062 l 1,895,-1
 184 1062 l 2,896,897
 179 1062 179 1062 163 1060 c 0,898,899
 150 1060 150 1060 146 1067 c 0,900,901
 141 1073 141 1073 141 1075 c 1,902,-1
 141 1075 l 1,903,904
 160 1072 160 1072 165 1072 c 0,905,906
 182 1074 182 1074 184 1074 c 0,907,908
 230 1074 230 1074 245 1036 c 1,909,-1
 245 1035 l 1,910,911
 235 1033 235 1033 235 1032 c 0,912,913
 248 1026 248 1026 257 1005 c 1,914,-1
 257 1004 l 1,915,916
 246 1002 246 1002 246 1001 c 0,917,918
 260 990 260 990 264 976 c 1,919,920
 247 972 247 972 247 971 c 0,921,922
 261 957 261 957 264 944 c 1,923,924
 260 943 260 943 228 937 c 1,925,-1
 228 936 l 1,926,-1
 252 932 l 1,927,928
 297 945 297 945 322 966 c 1,929,930
 336 963 336 963 361 959 c 1,931,932
 380 987 380 987 380 1020 c 0,933,934
 380 1043 380 1043 374 1043 c 0,935,936
 338 1049 338 1049 332 1054 c 0,937,938
 322 1062 322 1062 303 1092 c 0,939,940
 294 1107 294 1107 245 1165 c 1,941,942
 243 1203 243 1203 243 1208 c 1,943,-1
 242 1208 l 2,944,945
 216 1208 216 1208 209 1184 c 0,946,947
 208 1180 208 1180 208 1178 c 0,870,871
672 1140 m 1,948,-1
 672 1140 l 1,949,950
 665 1140 665 1140 651 1141 c 1,951,952
 707 1078 707 1078 789 1078 c 1,953,-1
 789 1078 l 1,954,955
 829 1078 829 1078 829 1102 c 0,956,957
 829 1111 829 1111 815 1118 c 0,958,959
 795 1132 795 1132 795 1152 c 0,960,961
 794 1156 794 1156 789 1190 c 1,962,963
 741 1140 741 1140 672 1140 c 1,948,-1
803 1156 m 2,964,-1
 803 1154 l 2,965,966
 803 1139 803 1139 829 1124 c 1,967,-1
 829 1124 l 1,968,969
 829 1130 829 1130 824 1175 c 1,970,971
 803 1168 803 1168 803 1156 c 2,964,-1
867 891 m 1,972,-1
 867 890 l 1,973,974
 962 844 962 844 1054 795 c 1,975,976
 1111 808 1111 808 1138 822 c 0,977,978
 1160 832 1160 832 1176 853 c 0,979,980
 1208 890 1208 890 1241 917 c 0,981,982
 1348 1002 1348 1002 1393 1002 c 0,983,984
 1416 1004 1416 1004 1425 1004 c 0,985,986
 1448 1003 1448 1003 1448 993 c 2,987,-1
 1448 991 l 2,988,989
 1448 975 1448 975 1364 894 c 0,990,991
 1334 861 1334 861 1334 850 c 2,992,-1
 1334 849 l 2,993,994
 1334 841 1334 841 1355 841 c 0,995,996
 1447 841 1447 841 1633 922 c 1,997,998
 1724 967 1724 967 1724 1003 c 0,999,1000
 1724 1048 1724 1048 1657 1069 c 0,1001,1002
 1617 1080 1617 1080 1556 1080 c 2,1003,-1
 1548 1080 l 2,1004,1005
 1477 1080 1477 1080 1249 1034 c 0,1006,1007
 1172 1017 1172 1017 1139 998 c 0,1008,1009
 1125 990 1125 990 1125 974 c 1,1010,1011
 1119 961 1119 961 1091 949 c 0,1012,1013
 1055 936 1055 936 969 917 c 1,1014,1015
 884 891 884 891 867 891 c 1,972,-1
120 1023 m 0,1016,1017
 120 1009 120 1009 182 1002 c 1,1018,-1
 238 1012 l 1,1019,1020
 232 1023 232 1023 217 1029 c 1,1021,1022
 173 1021 173 1021 172 1021 c 0,1023,1024
 127 1028 127 1028 127 1032 c 2,1025,-1
 126 1033 l 1,1026,-1
 125 1033 l 1,1027,1028
 120 1029 120 1029 120 1023 c 0,1016,1017
182 990 m 0,1029,1030
 150 995 150 995 137 997 c 0,1031,1032
 135 995 135 995 135 992 c 0,1033,1034
 135 979 135 979 186 973 c 0,1035,1036
 188 973 188 973 245 984 c 1,1037,1038
 238 993 238 993 229 999 c 1,1039,1040
 192 991 192 991 182 990 c 0,1029,1030
187 961 m 2,1041,-1
 161 964 l 1,1042,-1
 161 959 l 2,1043,1044
 161 947 161 947 195 942 c 1,1045,-1
 245 952 l 1,1046,1047
 238 962 238 962 231 969 c 1,1048,1049
 191 961 191 961 187 961 c 2,1041,-1
561 809 m 0,1050,1051
 561 801 561 801 608 662 c 1,1052,1053
 676 655 676 655 679 653 c 0,1054,1055
 707 625 707 625 709 617 c 1,1056,-1
 710 617 l 1,1057,-1
 710 655 l 1,1058,1059
 750 782 750 782 750 790 c 0,1060,1061
 750 802 750 802 735 802 c 256,1062,1063
 720 802 720 802 709 769 c 0,1064,1065
 668 672 668 672 666 669 c 0,1066,1067
 644 670 644 670 642 670 c 0,1068,1069
 607 783 607 783 598 808 c 0,1070,1071
 589 824 589 824 579 824 c 0,1072,1073
 561 824 561 824 561 809 c 0,1050,1051
607 648 m 1,1074,1075
 607 624 607 624 638 616 c 0,1076,1077
 646 614 646 614 662 612 c 1,1078,-1
 662 595 l 2,1079,1080
 662 581 662 581 666 564 c 1,1081,-1
 665 564 l 1,1082,-1
 652 564 l 1,1083,1084
 647 572 647 572 647 591 c 2,1085,-1
 647 599 l 2,1086,1087
 647 600 647 600 628 604 c 0,1088,1089
 617 608 617 608 611 612 c 1,1090,-1
 611 611 l 1,1091,1092
 628 578 628 578 628 568 c 0,1093,1094
 628 540 628 540 597 540 c 0,1095,1096
 590 540 590 540 577 546 c 1,1097,-1
 577 545 l 2,1098,1099
 577 537 577 537 565 526 c 0,1100,1101
 557 524 557 524 553 524 c 2,1102,-1
 547 524 l 2,1103,1104
 535 524 535 524 519 545 c 1,1105,-1
 519 544 l 2,1106,1107
 519 534 519 534 531 498 c 1,1108,1109
 559 473 559 473 560 471 c 2,1110,-1
 560 450 l 1,1111,1112
 564 447 564 447 585 445 c 0,1113,1114
 596 445 596 445 611 441 c 1,1115,-1
 625 441 l 2,1116,1117
 648 441 648 441 676 449 c 1,1118,-1
 676 480 l 2,1119,1120
 676 483 676 483 693 503 c 0,1121,1122
 710 530 710 530 722 556 c 1,1123,1124
 714 581 714 581 702 604 c 0,1125,1126
 689 623 689 623 670 643 c 1,1127,1128
 616 648 616 648 607 648 c 1,1074,1075
547 633 m 2,1129,-1
 547 629 l 2,1130,1131
 547 615 547 615 577 566 c 0,1132,1133
 588 554 588 554 596 554 c 2,1134,-1
 598 554 l 2,1135,1136
 613 554 613 554 613 568 c 0,1137,1138
 613 575 613 575 581 635 c 0,1139,1140
 571 647 571 647 563 647 c 0,1141,1142
 547 647 547 647 547 633 c 2,1129,-1
1140 647 m 1,1143,1144
 1045 558 1045 558 1035 526 c 0,1145,1146
 1027 508 1027 508 1027 490 c 0,1147,1148
 1027 450 1027 450 1046 439 c 0,1149,1150
 1059 427 1059 427 1099 421 c 0,1151,1152
 1151 414 1151 414 1218 414 c 2,1153,-1
 1221 414 l 2,1154,1155
 1290 414 1290 414 1392 461 c 1,1156,-1
 1392 462 l 1,1157,1158
 1343 512 1343 512 1298 545 c 0,1159,1160
 1217 605 1217 605 1159 638 c 0,1161,1162
 1147 645 1147 645 1140 647 c 1,1143,1144
1300 642 m 1,1163,1164
 1360 598 1360 598 1431 531 c 0,1165,1166
 1461 501 1461 501 1461 500 c 1,1167,1168
 1510 533 1510 533 1510 563 c 0,1169,1170
 1510 609 1510 609 1352 633 c 0,1171,1172
 1352 634 1352 634 1300 642 c 1,1163,1164
512 595 m 0,1173,1174
 512 585 512 585 539 543 c 0,1175,1176
 546 536 546 536 553 536 c 0,1177,1178
 565 536 565 536 565 549 c 0,1179,1180
 565 560 565 560 541 599 c 0,1181,1182
 534 606 534 606 525 606 c 0,1183,1184
 512 606 512 606 512 595 c 0,1173,1174
1602 189 m 2,1185,-1
 1626 189 l 2,1186,1187
 1632 189 1632 189 1650 165 c 1,1188,-1
 1650 153 l 2,1189,1190
 1650 131 1650 131 1594 81 c 1,1191,-1
 1642 81 l 2,1192,1193
 1650 80 1650 80 1650 73 c 2,1194,-1
 1650 69 l 2,1195,1196
 1650 61 1650 61 1642 61 c 2,1197,-1
 1574 61 l 2,1198,1199
 1566 61 1566 61 1566 73 c 0,1200,1201
 1566 82 1566 82 1626 141 c 0,1202,1203
 1630 148 1630 148 1630 157 c 2,1204,-1
 1630 161 l 2,1205,1206
 1630 167 1630 167 1618 173 c 1,1207,-1
 1598 173 l 1,1208,-1
 1578 149 l 1,1209,-1
 1574 149 l 2,1210,1211
 1566 149 1566 149 1566 157 c 0,1212,1213
 1576 189 1576 189 1602 189 c 2,1185,-1
1702 189 m 2,1214,-1
 1710 189 l 2,1215,1216
 1750 189 1750 189 1750 125 c 256,1217,1218
 1750 61 1750 61 1710 61 c 2,1219,-1
 1690 61 l 1,1220,1221
 1662 78 1662 78 1662 129 c 0,1222,1223
 1662 189 1662 189 1702 189 c 2,1214,-1
1814 189 m 1,1224,1225
 1822 188 1822 188 1822 181 c 2,1226,-1
 1822 69 l 2,1227,1228
 1822 61 1822 61 1814 61 c 2,1229,-1
 1810 61 l 2,1230,1231
 1802 61 1802 61 1802 69 c 2,1232,-1
 1802 153 l 1,1233,-1
 1798 153 l 1,1234,1235
 1785 145 1785 145 1774 145 c 1,1236,-1
 1774 153 l 2,1237,1238
 1775 159 1775 159 1814 189 c 1,1224,1225
1894 189 m 2,1239,-1
 1906 189 l 2,1240,1241
 1938 189 1938 189 1938 157 c 0,1242,1243
 1938 133 1938 133 1922 133 c 1,1244,-1
 1922 129 l 1,1245,1246
 1934 129 1934 129 1942 113 c 1,1247,-1
 1942 85 l 2,1248,1249
 1942 79 1942 79 1918 61 c 1,1250,-1
 1894 61 l 1,1251,1252
 1858 66 1858 66 1858 97 c 2,1253,-1
 1858 101 l 2,1254,1255
 1858 129 1858 129 1878 129 c 1,1256,1257
 1862 146 1862 146 1862 161 c 1,1258,1259
 1870 189 1870 189 1894 189 c 2,1239,-1
1682 121 m 1,1260,1261
 1686 77 1686 77 1698 77 c 2,1262,-1
 1714 77 l 2,1263,1264
 1727 77 1727 77 1730 129 c 1,1265,1266
 1726 173 1726 173 1714 173 c 2,1267,-1
 1698 173 l 2,1268,1269
 1685 173 1685 173 1682 121 c 1,1260,1261
1882 161 m 1,1270,-1
 1886 141 l 1,1271,-1
 1910 141 l 2,1272,1273
 1918 141 1918 141 1918 149 c 2,1274,-1
 1918 165 l 2,1275,1276
 1918 173 1918 173 1910 173 c 2,1277,-1
 1894 173 l 2,1278,1279
 1888 173 1888 173 1882 161 c 1,1270,-1
1878 109 m 1,1280,-1
 1878 101 l 2,1281,1282
 1881 77 1881 77 1890 77 c 2,1283,-1
 1910 77 l 2,1284,1285
 1918 79 1918 79 1926 97 c 1,1286,1287
 1918 121 1918 121 1910 121 c 2,1288,-1
 1890 121 l 2,1289,1290
 1884 121 1884 121 1878 109 c 1,1280,-1
EndSplineSet
Validated: 5
EndChar

StartChar: wancho_ca
Encoding: 107 123587 45
Width: 1338
Flags: W
LayerCount: 2
Fore
SplineSet
931 1456 m 0,0,1
 1101 1456 1101 1456 1180 1313 c 1,2,3
 1230 1231 1230 1231 1238 1180 c 1,4,-1
 1238 1172 l 2,5,6
 1238 1141 1238 1141 1198 1125 c 0,7,8
 1196 1123 1196 1123 1182 1122 c 0,9,10
 1159 1122 1159 1122 1118 1156 c 1,11,12
 1059 1190 1059 1190 997 1190 c 0,13,14
 883 1190 883 1190 795 1071 c 1,15,16
 740 979 740 979 740 883 c 2,17,-1
 740 868 l 2,18,19
 740 707 740 707 867 602 c 1,20,21
 932 559 932 559 998 559 c 0,22,23
 1030 559 1030 559 1086 574 c 1,24,-1
 1092 574 l 2,25,26
 1127 574 1127 574 1143 534 c 0,27,28
 1146 526 1146 526 1146 517 c 0,29,30
 1146 480 1146 480 1103 464 c 0,31,32
 1051 447 1051 447 1007 447 c 2,33,-1
 998 447 l 2,34,35
 831 447 831 447 713 601 c 1,36,37
 627 728 627 728 627 871 c 0,38,39
 627 1091 627 1091 794 1232 c 1,40,41
 891 1302 891 1302 1001 1302 c 0,42,43
 1024 1302 1024 1302 1052 1298 c 1,44,-1
 1052 1299 l 1,45,46
 1014 1342 1014 1342 940 1342 c 2,47,-1
 924 1342 l 2,48,49
 803 1342 803 1342 697 1177 c 1,50,51
 622 1068 622 1068 530 884 c 0,52,53
 161 139 161 139 100 19 c 1,54,55
 78 0 78 0 57 0 c 0,56,57
 15 0 15 0 2 46 c 0,58,59
 2 47 2 47 0 55 c 0,60,61
 0 73 0 73 45 158 c 0,62,63
 420 916 420 916 471 1017 c 0,64,65
 548 1166 548 1166 648 1301 c 1,66,67
 771 1456 771 1456 931 1456 c 0,0,1
EndSplineSet
Validated: 1
EndChar

StartChar: wancho_da
Encoding: 108 123588 46
Width: 848
Flags: W
LayerCount: 2
Fore
SplineSet
604 1468 m 2,0,-1
 615 1468 l 2,1,2
 745 1468 745 1468 745 1406 c 2,3,-1
 745 1395 l 2,4,5
 745 1382 745 1382 674 1259 c 0,6,7
 654 1219 654 1219 555 1040 c 1,8,9
 593 1031 593 1031 709 1021 c 1,10,11
 748 1004 748 1004 748 967 c 2,12,-1
 748 965 l 2,13,14
 748 928 748 928 704 912 c 0,15,16
 700 912 700 912 694 910 c 0,17,18
 631 910 631 910 498 937 c 1,19,20
 498 935 498 935 119 242 c 1,21,22
 163 161 163 161 279 121 c 1,23,24
 328 112 328 112 349 112 c 0,25,26
 464 112 464 112 574 202 c 1,27,28
 610 240 610 240 610 287 c 2,29,-1
 610 296 l 2,30,31
 610 365 610 365 539 428 c 1,32,33
 528 446 528 446 528 463 c 0,34,35
 538 516 538 516 582 516 c 2,36,-1
 588 516 l 2,37,38
 636 516 636 516 700 400 c 1,39,40
 722 342 722 342 722 299 c 2,41,-1
 722 279 l 2,42,43
 722 173 722 173 616 91 c 1,44,45
 484 0 484 0 349 0 c 0,46,47
 177 0 177 0 52 142 c 1,48,49
 0 212 0 212 0 245 c 0,50,51
 0 263 0 263 58 363 c 2,52,-1
 389 971 l 1,53,-1
 388 971 l 1,54,55
 222 1045 222 1045 222 1173 c 0,56,57
 222 1304 222 1304 389 1409 c 1,58,59
 499 1468 499 1468 604 1468 c 2,0,-1
334 1173 m 0,60,61
 334 1113 334 1113 445 1070 c 1,62,63
 445 1072 445 1072 600 1355 c 1,64,-1
 600 1356 l 1,65,66
 502 1356 502 1356 400 1280 c 1,67,68
 334 1222 334 1222 334 1173 c 0,60,61
EndSplineSet
Validated: 1
EndChar

StartChar: wancho_ga
Encoding: 109 123589 47
Width: 865
Flags: W
LayerCount: 2
Fore
SplineSet
695 1458 m 0,0,1
 734 1458 734 1458 749 1417 c 0,2,3
 752 1410 752 1410 752 1401 c 0,4,5
 752 1381 752 1381 697 1289 c 2,6,-1
 119 242 l 1,7,8
 146 197 146 197 206 158 c 0,9,10
 283 112 283 112 369 112 c 0,11,12
 492 112 492 112 610 199 c 1,13,14
 654 239 654 239 654 290 c 0,15,16
 654 364 654 364 574 428 c 1,17,18
 565 447 565 447 565 460 c 2,19,-1
 565 463 l 2,20,21
 565 502 565 502 612 516 c 1,22,-1
 628 516 l 2,23,24
 663 516 663 516 727 425 c 1,25,26
 765 359 765 359 765 291 c 2,27,-1
 765 287 l 2,28,29
 765 105 765 105 500 19 c 0,30,31
 435 0 435 0 369 0 c 0,32,33
 179 0 179 0 46 151 c 1,34,35
 6 204 6 204 0 237 c 1,36,-1
 0 246 l 2,37,38
 0 266 0 266 43 336 c 0,39,40
 43 338 43 338 615 1371 c 1,41,42
 655 1455 655 1455 679 1455 c 0,43,44
 685 1458 685 1458 695 1458 c 0,0,1
EndSplineSet
Validated: 1
EndChar

StartChar: wancho_ya
Encoding: 110 123590 48
Width: 898
Flags: W
LayerCount: 2
Fore
SplineSet
734 1453 m 0,0,1
 773 1453 773 1453 788 1412 c 0,2,3
 791 1405 791 1405 791 1396 c 0,4,5
 791 1378 791 1378 749 1302 c 2,6,-1
 149 116 l 2,7,8
 151 116 151 116 151 114 c 1,9,10
 338 116 338 116 430 116 c 2,11,-1
 507 116 l 1,12,13
 449 198 449 198 449 283 c 2,14,-1
 449 298 l 2,15,16
 449 376 449 376 495 447 c 1,17,18
 580 559 580 559 713 559 c 2,19,-1
 742 559 l 2,20,21
 780 559 780 559 795 519 c 0,22,23
 797 517 797 517 798 502 c 0,24,25
 789 447 789 447 743 447 c 2,26,-1
 722 447 l 2,27,28
 603 447 603 447 569 341 c 0,29,30
 561 319 561 319 561 295 c 0,31,32
 561 171 561 171 682 125 c 1,33,-1
 754 111 l 1,34,35
 791 96 791 96 791 59 c 0,36,37
 791 18 791 18 745 4 c 1,38,-1
 557 4 l 2,39,40
 407 4 407 4 151 3 c 0,41,42
 125 4 125 4 76 4 c 1,43,44
 66 0 66 0 55 0 c 0,45,46
 0 9 0 9 0 55 c 0,47,48
 0 77 0 77 34 137 c 0,49,50
 654 1364 654 1364 692 1435 c 1,51,52
 712 1453 712 1453 734 1453 c 0,0,1
EndSplineSet
Validated: 1
EndChar

StartChar: wancho_pha
Encoding: 111 123591 49
Width: 1329
Flags: W
LayerCount: 2
Fore
SplineSet
615 1453 m 0,0,1
 855 1453 855 1453 1043 1248 c 1,2,3
 1082 1301 1082 1301 1098 1345 c 0,4,5
 1108 1370 1108 1370 1124 1424 c 1,6,7
 1143 1453 1143 1453 1173 1453 c 0,8,9
 1212 1453 1212 1453 1226 1412 c 0,10,11
 1228 1410 1228 1410 1229 1396 c 0,12,13
 1229 1365 1229 1365 1185 1263 c 1,14,15
 1153 1201 1153 1201 1112 1154 c 1,16,17
 1229 956 1229 956 1229 726 c 0,18,19
 1229 446 1229 446 1061 226 c 1,20,21
 869 0 869 0 615 0 c 0,22,23
 364 0 364 0 172 222 c 1,24,25
 0 445 0 445 0 726 c 0,26,27
 0 964 0 964 124 1162 c 1,28,29
 142 1180 142 1180 164 1180 c 2,30,-1
 167 1180 l 2,31,32
 207 1180 207 1180 221 1133 c 1,33,-1
 221 1117 l 2,34,35
 221 1107 221 1107 182 1038 c 1,36,37
 113 888 113 888 113 744 c 2,38,-1
 113 708 l 2,39,40
 113 500 113 500 243 313 c 0,41,42
 341 179 341 179 501 128 c 0,43,44
 558 113 558 113 595 113 c 2,45,-1
 631 113 l 2,46,47
 781 113 781 113 928 246 c 1,48,49
 1013 337 1013 337 1040 401 c 1,50,51
 1116 553 1116 553 1116 707 c 2,52,-1
 1116 743 l 2,53,54
 1116 909 1116 909 1031 1069 c 1,55,-1
 1030 1069 l 1,56,57
 823 893 823 893 615 893 c 0,58,59
 411 893 411 893 282 1022 c 1,60,61
 221 1097 221 1097 221 1172 c 0,62,63
 221 1305 221 1305 375 1396 c 1,64,65
 485 1453 485 1453 615 1453 c 0,0,1
334 1174 m 2,66,-1
 334 1169 l 2,67,68
 334 1091 334 1091 461 1034 c 1,69,70
 543 1005 543 1005 606 1005 c 1,71,-1
 615 1007 l 1,72,-1
 625 1007 l 2,73,74
 756 1007 756 1007 897 1108 c 0,75,76
 940 1138 940 1138 967 1165 c 1,77,78
 813 1341 813 1341 613 1341 c 0,79,80
 464 1341 464 1341 370 1254 c 0,81,82
 334 1216 334 1216 334 1174 c 2,66,-1
EndSplineSet
Validated: 1
EndChar

StartChar: wancho_la
Encoding: 112 123592 50
Width: 989
Flags: W
LayerCount: 2
Fore
SplineSet
164 1453 m 2,0,1
 208 1453 208 1453 230 1389 c 1,2,3
 383 1083 383 1083 416 1013 c 1,4,5
 537 1033 537 1033 618 1090 c 0,6,7
 722 1167 722 1167 759 1292 c 0,8,9
 773 1338 773 1338 779 1415 c 1,10,11
 797 1453 797 1453 833 1453 c 0,12,13
 873 1453 873 1453 888 1408 c 0,14,15
 888 1403 888 1403 889 1398 c 0,16,17
 889 1325 889 1325 852 1216 c 0,18,19
 821 1133 821 1133 743 1050 c 1,20,21
 649 964 649 964 546 929 c 0,22,23
 505 916 505 916 470 908 c 1,24,-1
 470 907 l 1,25,26
 852 137 852 137 885 67 c 1,27,-1
 885 50 l 2,28,29
 885 18 885 18 842 1 c 0,30,31
 840 1 840 1 830 0 c 0,32,33
 785 0 785 0 762 65 c 1,34,35
 366 862 366 862 351 896 c 1,36,37
 181 896 181 896 72 995 c 0,38,39
 0 1065 0 1065 0 1166 c 2,40,-1
 0 1169 l 2,41,42
 0 1260 0 1260 75 1372 c 0,43,44
 128 1453 128 1453 158 1453 c 2,45,-1
 164 1453 l 2,0,1
154 1289 m 1,46,47
 112 1218 112 1218 112 1159 c 0,48,49
 112 1068 112 1068 245 1023 c 0,50,51
 281 1014 281 1014 291 1014 c 1,52,53
 182 1236 182 1236 154 1289 c 1,46,47
EndSplineSet
Validated: 1
EndChar

StartChar: wancho_na
Encoding: 113 123593 51
Width: 858
Flags: W
LayerCount: 2
Fore
SplineSet
612 1453 m 0,0,1
 662 1453 662 1453 668 1395 c 0,2,3
 668 1379 668 1379 624 1293 c 2,4,-1
 148 334 l 2,5,6
 151 334 151 334 151 332 c 2,7,-1
 154 334 l 1,8,-1
 585 334 l 2,9,10
 697 334 697 334 745 238 c 0,11,12
 758 209 758 209 758 179 c 2,13,-1
 758 161 l 2,14,15
 758 83 758 83 683 23 c 1,16,17
 639 0 639 0 607 0 c 0,18,19
 530 1 530 1 485 1 c 2,20,-1
 416 1 l 2,21,22
 376 1 376 1 361 40 c 0,23,24
 358 46 358 46 358 56 c 2,25,-1
 358 59 l 1,26,27
 367 113 367 113 412 113 c 2,28,-1
 537 113 l 2,29,30
 563 113 563 113 603 111 c 0,31,32
 637 111 637 111 646 167 c 1,33,-1
 646 174 l 2,34,35
 646 215 646 215 592 222 c 1,36,37
 554 220 554 220 537 220 c 2,38,-1
 58 220 l 2,39,40
 17 220 17 220 3 261 c 0,41,42
 1 263 1 263 0 277 c 0,43,44
 0 294 0 294 49 387 c 0,45,46
 545 1387 545 1387 567 1430 c 1,47,48
 587 1453 587 1453 612 1453 c 0,0,1
EndSplineSet
Validated: 1
EndChar

StartChar: wancho_pa
Encoding: 114 123594 52
Width: 877
Flags: W
LayerCount: 2
Fore
SplineSet
724 1458 m 1,0,1
 777 1448 777 1448 777 1404 c 2,2,-1
 777 54 l 2,3,4
 777 15 777 15 733 0 c 1,5,-1
 719 0 l 2,6,7
 674 0 674 0 665 55 c 1,8,-1
 665 1155 l 1,9,-1
 664 1155 l 1,10,11
 130 74 130 74 100 19 c 1,12,13
 81 0 81 0 60 0 c 2,14,-1
 54 0 l 2,15,16
 9 0 9 0 0 57 c 0,17,18
 0 73 0 73 52 172 c 0,19,20
 668 1415 668 1415 668 1417 c 0,21,22
 683 1458 683 1458 724 1458 c 1,0,1
EndSplineSet
Validated: 1
EndChar

StartChar: wancho_ta
Encoding: 115 123595 53
Width: 1132
Flags: W
LayerCount: 2
Fore
SplineSet
636 1451 m 2,0,-1
 642 1451 l 2,1,2
 682 1451 682 1451 707 1384 c 1,3,4
 1024 766 1024 766 1031 747 c 0,5,6
 1032 737 1032 737 1032 731 c 0,7,8
 1032 694 1032 694 989 678 c 0,9,10
 988 678 988 678 980 677 c 0,11,12
 408 686 408 686 355 686 c 0,13,14
 335 687 335 687 330 687 c 0,15,16
 225 664 225 664 181 616 c 0,17,18
 112 544 112 544 112 438 c 0,19,20
 112 308 112 308 204 195 c 1,21,22
 259 141 259 141 303 129 c 0,23,24
 381 111 381 111 440 111 c 0,25,26
 623 111 623 111 685 241 c 1,27,28
 695 273 695 273 695 293 c 2,29,-1
 695 308 l 2,30,31
 695 390 695 390 610 434 c 1,32,33
 570 449 570 449 531 449 c 0,34,35
 509 447 509 447 501 447 c 0,36,37
 476 447 476 447 455 481 c 1,38,39
 451 496 451 496 451 504 c 0,40,41
 451 541 451 541 492 558 c 0,42,43
 507 561 507 561 531 561 c 0,44,45
 706 561 706 561 783 413 c 0,46,47
 809 357 809 357 809 302 c 0,48,49
 809 154 809 154 665 56 c 1,50,51
 567 0 567 0 440 0 c 0,52,53
 219 0 219 0 118 125 c 0,54,55
 0 266 0 266 0 437 c 0,56,57
 0 642 0 642 172 749 c 0,58,59
 223 780 223 780 300 795 c 0,60,61
 300 796 300 796 318 799 c 2,62,-1
 883 790 l 1,63,-1
 883 792 l 1,64,65
 613 1321 613 1321 583 1384 c 0,66,67
 583 1390 583 1390 582 1396 c 0,68,69
 592 1451 592 1451 636 1451 c 2,0,-1
EndSplineSet
Validated: 1
EndChar

StartChar: wancho_tha
Encoding: 116 123596 54
Width: 1113
Flags: W
LayerCount: 2
Fore
SplineSet
625 1459 m 0,0,1
 663 1459 663 1459 679 1415 c 1,2,3
 680 1400 680 1400 680 1392 c 2,4,-1
 680 1007 l 1,5,6
 764 1016 764 1016 831 1037 c 1,7,8
 901 1071 901 1071 901 1154 c 0,9,10
 901 1256 901 1256 806 1338 c 1,11,12
 764 1362 764 1362 764 1399 c 0,13,14
 764 1435 764 1435 807 1451 c 0,15,16
 815 1453 815 1453 824 1453 c 0,17,18
 851 1453 851 1453 912 1393 c 0,19,20
 1013 1284 1013 1284 1013 1153 c 0,21,22
 1013 996 1013 996 867 931 c 1,23,24
 742 895 742 895 680 895 c 1,25,-1
 680 50 l 2,26,27
 680 18 680 18 637 1 c 0,28,29
 624 0 624 0 616 0 c 2,30,-1
 61 0 l 2,31,32
 21 0 21 0 5 35 c 0,33,34
 0 52 0 52 0 56 c 0,35,36
 10 111 10 111 54 111 c 2,37,-1
 565 111 l 2,38,39
 568 111 568 111 568 114 c 2,40,-1
 568 896 l 2,41,42
 568 899 568 899 533 905 c 1,43,44
 424 940 424 940 386 1010 c 0,45,46
 354 1063 354 1063 354 1131 c 0,47,48
 354 1268 354 1268 474 1384 c 1,49,50
 528 1429 528 1429 568 1442 c 1,51,52
 603 1459 603 1459 625 1459 c 0,0,1
466 1129 m 0,53,54
 466 1045 466 1045 555 1016 c 0,55,56
 557 1016 557 1016 568 1013 c 1,57,-1
 568 1314 l 1,58,-1
 567 1314 l 1,59,60
 503 1274 503 1274 471 1175 c 0,61,62
 466 1147 466 1147 466 1129 c 0,53,54
EndSplineSet
Validated: 1
EndChar

StartChar: wancho_fa
Encoding: 117 123597 55
Width: 1213
Flags: W
LayerCount: 2
Fore
SplineSet
621 1450 m 1,0,1
 681 1444 681 1444 758 1393 c 1,2,3
 837 1329 837 1329 864 1281 c 1,4,5
 915 1209 915 1209 952 1099 c 0,6,7
 988 999 988 999 1004 826 c 2,8,-1
 1007 783 l 1,9,-1
 1049 783 l 2,10,11
 1100 783 1100 783 1112 738 c 0,12,13
 1113 733 1113 733 1113 723 c 0,14,15
 1113 687 1113 687 1068 671 c 1,16,-1
 1009 671 l 2,17,18
 1006 671 1006 671 1006 666 c 0,19,20
 1006 535 1006 535 947 346 c 1,21,22
 911 245 911 245 850 159 c 0,23,24
 760 39 760 39 630 1 c 1,25,-1
 619 0 l 2,26,27
 580 0 580 0 564 43 c 1,28,-1
 563 58 l 2,29,30
 563 96 563 96 607 111 c 0,31,32
 659 126 659 126 707 168 c 0,33,34
 775 234 775 234 804 296 c 0,35,36
 832 349 832 349 861 447 c 1,37,38
 894 589 894 589 894 671 c 1,39,-1
 892 671 l 2,40,41
 676 671 676 671 55 672 c 0,42,43
 17 672 17 672 2 717 c 0,44,45
 2 722 2 722 0 728 c 0,46,47
 0 766 0 766 42 783 c 0,48,49
 50 784 50 784 54 784 c 2,50,-1
 894 784 l 1,51,52
 894 912 894 912 840 1081 c 0,53,54
 805 1187 805 1187 728 1272 c 1,55,56
 674 1322 674 1322 622 1336 c 1,57,58
 563 1346 563 1346 563 1393 c 2,59,-1
 563 1395 l 2,60,61
 563 1436 563 1436 609 1450 c 1,62,-1
 621 1450 l 1,0,1
EndSplineSet
Validated: 1
EndChar

StartChar: wancho_sa
Encoding: 118 123598 56
Width: 1389
Flags: W
LayerCount: 2
Fore
SplineSet
892 1478 m 2,0,-1
 898 1478 l 1,1,2
 966 1473 966 1473 1064 1417 c 1,3,4
 1155 1354 1155 1354 1209 1268 c 0,5,6
 1289 1136 1289 1136 1289 978 c 0,7,8
 1289 773 1289 773 1150 616 c 1,9,10
 1016 477 1016 477 839 477 c 0,11,12
 680 477 680 477 545 602 c 1,13,-1
 406 328 l 1,14,15
 754 116 754 116 782 95 c 1,16,17
 795 74 795 74 795 58 c 2,18,-1
 795 56 l 1,19,20
 787 1 787 1 740 1 c 2,21,-1
 739 1 l 2,22,23
 716 1 716 1 648 49 c 0,24,25
 645 49 645 49 357 228 c 1,26,27
 354 225 354 225 266 50 c 1,28,29
 210 0 210 0 155 0 c 0,30,31
 52 0 52 0 9 138 c 1,32,33
 0 182 0 182 0 210 c 0,34,35
 0 343 0 343 101 401 c 1,36,37
 142 419 142 419 179 419 c 0,38,39
 233 419 233 419 309 386 c 1,40,-1
 310 386 l 1,41,42
 469 701 469 701 469 704 c 0,43,44
 394 828 394 828 394 981 c 0,45,46
 394 1124 394 1124 464 1250 c 1,47,48
 483 1269 483 1269 506 1269 c 2,49,-1
 510 1269 l 2,50,51
 551 1269 551 1269 564 1220 c 1,52,-1
 564 1211 l 2,53,54
 564 1202 564 1202 533 1132 c 1,55,56
 506 1057 506 1057 506 980 c 0,57,58
 506 909 506 909 531 829 c 1,59,-1
 534 829 l 1,60,61
 777 1316 777 1316 852 1459 c 1,62,63
 870 1478 870 1478 892 1478 c 2,0,-1
925 1357 m 0,64,65
 600 713 600 713 600 710 c 0,66,67
 703 589 703 589 843 589 c 0,68,69
 991 589 991 589 1100 731 c 1,70,71
 1177 843 1177 843 1177 981 c 0,72,73
 1177 1174 1177 1174 1032 1301 c 0,74,75
 990 1334 990 1334 943 1353 c 0,76,77
 927 1357 927 1357 925 1357 c 0,64,65
112 210 m 0,78,79
 112 148 112 148 148 113 c 1,80,-1
 155 111 l 1,81,82
 182 120 182 120 182 135 c 1,83,84
 193 152 193 152 258 286 c 1,85,-1
 257 286 l 1,86,87
 212 305 212 305 181 307 c 0,88,89
 136 307 136 307 121 261 c 0,90,91
 115 250 115 250 112 210 c 0,78,79
EndSplineSet
Validated: 1
EndChar

StartChar: wancho_sha
Encoding: 119 123599 57
Width: 1389
Flags: W
LayerCount: 2
Fore
SplineSet
892 1478 m 2,0,-1
 898 1478 l 1,1,2
 966 1473 966 1473 1064 1417 c 1,3,4
 1155 1354 1155 1354 1209 1268 c 0,5,6
 1289 1136 1289 1136 1289 978 c 0,7,8
 1289 773 1289 773 1150 616 c 1,9,10
 1016 477 1016 477 839 477 c 0,11,12
 680 477 680 477 545 602 c 1,13,-1
 406 328 l 1,14,15
 754 116 754 116 782 95 c 1,16,17
 795 74 795 74 795 58 c 2,18,-1
 795 56 l 1,19,20
 787 1 787 1 740 1 c 2,21,-1
 739 1 l 2,22,23
 716 1 716 1 648 49 c 0,24,25
 645 49 645 49 357 228 c 1,26,27
 354 225 354 225 266 50 c 1,28,29
 210 0 210 0 155 0 c 0,30,31
 52 0 52 0 9 138 c 1,32,33
 0 182 0 182 0 210 c 0,34,35
 0 343 0 343 101 401 c 1,36,37
 142 419 142 419 179 419 c 0,38,39
 233 419 233 419 309 386 c 1,40,-1
 310 386 l 1,41,42
 469 701 469 701 469 704 c 0,43,44
 394 828 394 828 394 981 c 0,45,46
 394 1124 394 1124 464 1250 c 1,47,48
 483 1269 483 1269 506 1269 c 2,49,-1
 510 1269 l 2,50,51
 551 1269 551 1269 564 1220 c 1,52,-1
 564 1211 l 2,53,54
 564 1202 564 1202 533 1132 c 1,55,56
 506 1057 506 1057 506 980 c 0,57,58
 506 909 506 909 531 829 c 1,59,-1
 534 829 l 1,60,61
 777 1316 777 1316 852 1459 c 1,62,63
 870 1478 870 1478 892 1478 c 2,0,-1
925 1357 m 0,64,65
 600 713 600 713 600 710 c 0,66,67
 703 589 703 589 843 589 c 0,68,69
 991 589 991 589 1100 731 c 1,70,71
 1177 843 1177 843 1177 981 c 0,72,73
 1177 1174 1177 1174 1032 1301 c 0,74,75
 990 1334 990 1334 943 1353 c 0,76,77
 927 1357 927 1357 925 1357 c 0,64,65
646 467 m 0,78,79
 705 467 705 467 734 401 c 0,80,81
 739 385 739 385 739 370 c 0,82,83
 739 307 739 307 671 280 c 0,84,85
 660 277 660 277 645 276 c 0,86,87
 593 276 593 276 561 329 c 0,88,89
 552 350 552 350 552 367 c 2,90,-1
 552 376 l 2,91,92
 552 436 552 436 622 464 c 1,93,94
 642 467 642 467 646 467 c 0,78,79
112 210 m 0,95,96
 112 148 112 148 148 113 c 1,97,-1
 155 111 l 1,98,99
 182 120 182 120 182 135 c 1,100,101
 193 152 193 152 258 286 c 1,102,-1
 257 286 l 1,103,104
 212 305 212 305 181 307 c 0,105,106
 136 307 136 307 121 261 c 0,107,108
 115 250 115 250 112 210 c 0,95,96
EndSplineSet
Validated: 1
EndChar

StartChar: wancho_ja
Encoding: 120 123601 58
Width: 879
Flags: W
LayerCount: 2
Fore
SplineSet
219 1466 m 0,0,1
 353 1466 353 1466 540 1254 c 0,2,3
 607 1178 607 1178 753 998 c 1,4,5
 779 977 779 977 779 951 c 2,6,-1
 779 947 l 2,7,8
 779 909 779 909 736 895 c 2,9,-1
 728 893 l 1,10,-1
 148 905 l 1,11,12
 525 140 525 140 560 67 c 1,13,-1
 560 55 l 2,14,15
 560 8 560 8 503 0 c 1,16,17
 460 0 460 0 434 71 c 1,18,19
 7 935 7 935 2 950 c 2,20,-1
 0 963 l 1,21,22
 0 1001 0 1001 45 1019 c 1,23,-1
 51 1019 l 1,24,-1
 600 1008 l 1,25,26
 331 1354 331 1354 216 1354 c 0,27,28
 154 1354 154 1354 106 1211 c 1,29,30
 84 1183 84 1183 57 1183 c 1,31,32
 0 1193 0 1193 0 1239 c 1,33,34
 19 1329 19 1329 88 1410 c 1,35,36
 146 1466 146 1466 219 1466 c 0,0,1
497 692 m 2,37,-1
 501 692 l 2,38,39
 563 692 563 692 589 623 c 0,40,41
 592 611 592 611 594 596 c 0,42,43
 594 539 594 539 534 508 c 0,44,45
 516 502 516 502 503 502 c 2,46,-1
 495 502 l 2,47,48
 435 502 435 502 409 574 c 0,49,50
 406 591 406 591 406 598 c 0,51,52
 406 656 406 656 467 686 c 0,53,54
 482 692 482 692 497 692 c 2,37,-1
EndSplineSet
Validated: 1
EndChar

StartChar: NameMe.121
Encoding: 121 123602 59
Width: 1329
Flags: W
LayerCount: 2
Fore
SplineSet
858 1453 m 0,0,1
 963 1453 963 1453 1082 1334 c 1,2,3
 1229 1163 1229 1163 1229 834 c 0,4,5
 1229 499 1229 499 1089 179 c 1,6,7
 995 0 995 0 921 0 c 0,8,9
 884 0 884 0 868 45 c 1,10,-1
 867 58 l 2,11,12
 867 91 867 91 907 112 c 1,13,14
 952 153 952 153 991 233 c 1,15,16
 1118 531 1118 531 1118 836 c 0,17,18
 1118 1206 1118 1206 921 1321 c 0,19,20
 879 1341 879 1341 859 1341 c 0,21,22
 745 1341 745 1341 692 1019 c 1,23,24
 670 846 670 846 670 718 c 1,25,26
 663 693 663 693 640 677 c 1,27,28
 621 671 621 671 613 671 c 0,29,30
 576 671 576 671 560 715 c 1,31,32
 552 891 552 891 542 979 c 0,33,34
 519 1127 519 1127 494 1195 c 0,35,36
 440 1334 440 1334 376 1334 c 2,37,-1
 366 1334 l 2,38,39
 324 1334 324 1334 245 1268 c 1,40,41
 112 1129 112 1129 112 837 c 0,42,43
 112 553 112 553 227 264 c 0,44,45
 257 192 257 192 307 127 c 0,46,47
 316 118 316 118 351 93 c 1,48,49
 363 73 363 73 363 63 c 2,50,-1
 363 54 l 2,51,52
 363 11 363 11 310 0 c 1,53,-1
 306 0 l 2,54,55
 255 0 255 0 178 115 c 0,56,57
 132 187 132 187 85 322 c 0,58,59
 0 588 0 588 0 837 c 0,60,61
 0 1225 0 1225 210 1385 c 1,62,63
 301 1446 301 1446 363 1446 c 2,64,-1
 380 1446 l 2,65,66
 475 1446 475 1446 552 1332 c 0,67,68
 583 1280 583 1280 606 1215 c 0,69,70
 611 1191 611 1191 615 1191 c 0,71,72
 617 1223 617 1223 673 1334 c 1,73,74
 750 1453 750 1453 858 1453 c 0,0,1
EndSplineSet
Validated: 1
EndChar

StartChar: NameMe.122
Encoding: 122 123603 60
Width: 1226
Flags: W
LayerCount: 2
Fore
SplineSet
731 1453 m 2,0,-1
 734 1453 l 1,1,2
 798 1448 798 1448 894 1396 c 0,3,4
 935 1373 935 1373 1006 1299 c 1,5,6
 1126 1147 1126 1147 1126 956 c 2,7,-1
 1126 948 l 2,8,9
 1126 743 1126 743 982 583 c 1,10,11
 846 452 846 452 683 452 c 2,12,-1
 674 452 l 2,13,14
 517 452 517 452 382 577 c 1,15,16
 141 98 141 98 98 17 c 1,17,18
 77 0 77 0 57 0 c 0,19,20
 17 0 17 0 2 44 c 1,21,-1
 0 55 l 2,22,23
 0 75 0 75 55 177 c 0,24,25
 220 506 220 506 306 674 c 1,26,-1
 306 677 l 1,27,28
 231 806 231 806 231 954 c 0,29,30
 231 1096 231 1096 300 1222 c 1,31,32
 319 1244 319 1244 345 1244 c 2,33,-1
 346 1244 l 1,34,35
 401 1235 401 1235 401 1189 c 2,36,-1
 401 1187 l 2,37,38
 401 1173 401 1173 375 1119 c 1,39,40
 343 1034 343 1034 343 956 c 256,41,42
 343 878 343 878 370 804 c 1,43,-1
 372 804 l 1,44,45
 654 1367 654 1367 689 1433 c 1,46,47
 709 1453 709 1453 731 1453 c 2,0,-1
762 1330 m 1,48,49
 489 792 489 792 437 683 c 1,50,51
 542 564 542 564 682 564 c 0,52,53
 831 564 831 564 938 707 c 1,54,55
 1015 818 1015 818 1015 956 c 0,56,57
 1015 1160 1015 1160 853 1289 c 1,58,59
 785 1330 785 1330 762 1330 c 1,48,49
EndSplineSet
Validated: 1
EndChar

StartChar: NameMe.123
Encoding: 123 123604 61
Width: 806
Flags: W
LayerCount: 2
Fore
SplineSet
334 1453 m 0,0,1
 537 1453 537 1453 639 1323 c 0,2,3
 680 1266 680 1266 697 1162 c 1,4,5
 706 1082 706 1082 706 693 c 2,6,-1
 706 59 l 2,7,8
 706 15 706 15 661 1 c 1,9,-1
 651 0 l 2,10,11
 611 0 611 0 594 44 c 1,12,-1
 594 677 l 2,13,14
 594 1157 594 1157 583 1157 c 1,15,16
 583 1192 583 1192 549 1254 c 1,17,18
 485 1341 485 1341 331 1341 c 0,19,20
 181 1341 181 1341 131 1204 c 0,21,22
 112 1157 112 1157 112 1011 c 2,23,-1
 112 49 l 1,24,25
 100 0 100 0 55 0 c 1,26,27
 2 10 2 10 2 52 c 1,28,29
 0 52 0 52 0 65 c 2,30,-1
 0 1038 l 2,31,32
 0 1220 0 1220 55 1305 c 0,33,34
 147 1453 147 1453 334 1453 c 0,0,1
EndSplineSet
Validated: 1
EndChar

StartChar: NameMe.124
Encoding: 124 123605 62
Width: 1021
Flags: W
LayerCount: 2
Fore
SplineSet
554 1453 m 0,0,1
 714 1453 714 1453 839 1338 c 1,2,3
 921 1255 921 1255 921 1145 c 2,4,-1
 921 56 l 2,5,6
 921 7 921 7 862 0 c 1,7,8
 809 10 809 10 809 53 c 2,9,-1
 809 1139 l 2,10,11
 809 1275 809 1275 627 1332 c 1,12,13
 580 1341 580 1341 551 1341 c 0,14,15
 393 1341 393 1341 340 1184 c 1,16,17
 327 1129 327 1129 327 1075 c 2,18,-1
 327 1074 l 2,19,20
 327 1031 327 1031 337 947 c 1,21,-1
 337 941 l 2,22,23
 337 907 337 907 288 892 c 1,24,25
 201 893 201 893 152 893 c 2,26,-1
 66 893 l 2,27,28
 19 893 19 893 5 929 c 0,29,30
 0 946 0 946 0 948 c 0,31,32
 9 1005 9 1005 54 1005 c 2,33,-1
 218 1005 l 1,34,35
 215 1028 215 1028 215 1066 c 2,36,-1
 215 1081 l 2,37,38
 215 1308 215 1308 382 1411 c 1,39,40
 460 1453 460 1453 554 1453 c 0,0,1
EndSplineSet
Validated: 1
EndChar

StartChar: NameMe.125
Encoding: 125 123606 63
Width: 1021
Flags: W
LayerCount: 2
Fore
SplineSet
554 1453 m 0,0,1
 706 1453 706 1453 830 1347 c 1,2,3
 921 1261 921 1261 921 1142 c 2,4,-1
 921 56 l 2,5,6
 921 7 921 7 862 0 c 1,7,8
 809 10 809 10 809 53 c 2,9,-1
 809 1139 l 2,10,11
 809 1275 809 1275 627 1332 c 1,12,13
 580 1341 580 1341 551 1341 c 0,14,15
 399 1341 399 1341 345 1196 c 0,16,17
 327 1142 327 1142 327 1075 c 2,18,-1
 327 1069 l 2,19,20
 327 1030 327 1030 337 948 c 1,21,-1
 337 941 l 2,22,23
 337 910 337 910 294 893 c 0,24,25
 289 893 289 893 286 892 c 0,26,27
 207 893 207 893 158 893 c 2,28,-1
 66 893 l 2,29,30
 19 893 19 893 5 929 c 0,31,32
 0 946 0 946 0 950 c 0,33,34
 10 1005 10 1005 54 1005 c 2,35,-1
 218 1005 l 1,36,37
 215 1027 215 1027 215 1063 c 2,38,-1
 215 1081 l 2,39,40
 215 1320 215 1320 397 1418 c 0,41,42
 468 1453 468 1453 554 1453 c 0,0,1
579 1098 m 0,43,44
 640 1098 640 1098 668 1028 c 0,45,46
 671 1013 671 1013 671 1001 c 0,47,48
 671 939 671 939 607 913 c 0,49,50
 598 908 598 908 577 907 c 0,51,52
 521 907 521 907 491 968 c 0,53,54
 485 983 485 983 485 998 c 2,55,-1
 485 1007 l 2,56,57
 485 1059 485 1059 540 1089 c 0,58,59
 560 1098 560 1098 579 1098 c 0,43,44
EndSplineSet
Validated: 1
EndChar

StartChar: NameMe.126
Encoding: 126 123607 64
Width: 780
Flags: W
LayerCount: 2
Fore
SplineSet
340 1453 m 0,0,1
 492 1453 492 1453 606 1345 c 1,2,3
 680 1261 680 1261 680 1178 c 0,4,5
 674 235 674 235 674 77 c 0,6,7
 674 23 674 23 649 10 c 0,8,9
 636 0 636 0 606 0 c 2,10,-1
 75 0 l 2,11,12
 24 0 24 0 12 44 c 0,13,14
 10 53 10 53 10 56 c 0,15,16
 20 111 20 111 64 111 c 2,17,-1
 555 111 l 1,18,-1
 563 113 l 1,19,20
 563 264 563 264 568 1175 c 0,21,22
 568 1234 568 1234 498 1290 c 1,23,24
 425 1341 425 1341 339 1341 c 0,25,26
 189 1341 189 1341 131 1192 c 1,27,28
 112 1128 112 1128 112 1062 c 0,29,30
 112 1019 112 1019 124 938 c 1,31,32
 114 883 114 883 69 883 c 2,33,-1
 66 883 l 2,34,35
 17 883 17 883 9 948 c 0,36,37
 0 1013 0 1013 0 1063 c 0,38,39
 0 1295 0 1295 158 1402 c 0,40,41
 240 1453 240 1453 340 1453 c 0,0,1
EndSplineSet
EndChar

StartChar: NameMe.127
Encoding: 127 123608 65
Width: 1105
Flags: W
LayerCount: 2
Fore
SplineSet
622 1446 m 2,0,-1
 653 1446 l 2,1,2
 813 1446 813 1446 990 1353 c 0,3,4
 990 1350 990 1350 999 1338 c 0,5,6
 1005 1328 1005 1328 1005 1317 c 0,7,8
 1005 1260 1005 1260 935 1250 c 1,9,10
 860 1246 860 1246 769 1200 c 0,11,12
 694 1161 694 1161 610 1092 c 1,13,14
 506 996 506 996 484 959 c 1,15,16
 417 876 417 876 364 743 c 1,17,18
 320 618 320 618 320 521 c 2,19,-1
 320 510 l 2,20,21
 320 507 320 507 319 504 c 0,22,23
 320 502 320 502 320 498 c 2,24,-1
 320 494 l 2,25,26
 320 341 320 341 420 209 c 1,27,28
 507 112 507 112 625 112 c 0,29,30
 724 112 724 112 839 181 c 1,31,32
 886 222 886 222 886 291 c 0,33,34
 886 388 886 388 813 439 c 0,35,36
 798 446 798 446 757 451 c 1,37,38
 722 468 722 468 722 501 c 2,39,-1
 722 506 l 2,40,41
 722 544 722 544 765 558 c 0,42,43
 770 560 770 560 778 560 c 0,44,45
 898 560 898 560 969 422 c 0,46,47
 998 358 998 358 998 297 c 2,48,-1
 998 290 l 2,49,50
 998 101 998 101 790 33 c 1,51,52
 706 0 706 0 623 0 c 0,53,54
 392 0 392 0 264 248 c 1,55,56
 207 378 207 378 207 506 c 0,57,58
 207 760 207 760 381 1010 c 0,59,60
 424 1072 424 1072 514 1156 c 0,61,62
 626 1254 626 1254 701 1289 c 0,63,64
 756 1319 756 1319 762 1319 c 1,65,66
 762 1325 762 1325 681 1332 c 0,67,68
 669 1334 669 1334 644 1334 c 2,69,-1
 632 1334 l 2,70,71
 392 1334 392 1334 219 1161 c 1,72,73
 131 1052 131 1052 119 982 c 0,74,75
 107 909 107 909 93 909 c 1,76,77
 79 892 79 892 55 892 c 1,78,79
 0 902 0 902 0 947 c 0,80,81
 0 1012 0 1012 55 1124 c 1,82,83
 166 1318 166 1318 392 1404 c 1,84,85
 514 1446 514 1446 622 1446 c 2,0,-1
EndSplineSet
Validated: 1
EndChar

StartChar: NameMe.128
Encoding: 128 123609 66
Width: 1546
Flags: W
LayerCount: 2
Fore
SplineSet
721 1477 m 0,0,1
 765 1477 765 1477 788 1411 c 0,2,3
 790 1411 790 1411 957 1074 c 1,4,5
 1003 1149 1003 1149 1030 1187 c 0,6,7
 1064 1239 1064 1239 1157 1332 c 1,8,9
 1257 1421 1257 1421 1337 1459 c 0,10,11
 1376 1477 1376 1477 1390 1477 c 2,12,-1
 1391 1477 l 2,13,14
 1431 1477 1431 1477 1446 1432 c 1,15,-1
 1446 1417 l 2,16,17
 1446 1376 1446 1376 1379 1354 c 1,18,19
 1156 1235 1156 1235 1020 947 c 1,20,21
 1021 947 1021 947 1248 491 c 0,22,23
 1446 99 1446 99 1446 91 c 2,24,-1
 1446 77 l 2,25,26
 1446 31 1446 31 1384 21 c 0,27,28
 1290 0 1290 0 1222 0 c 0,29,30
 946 0 946 0 839 258 c 1,31,32
 799 370 799 370 799 498 c 0,33,34
 799 709 799 709 896 946 c 1,35,36
 724 1290 724 1290 721 1293 c 1,37,-1
 103 49 l 1,38,39
 84 24 84 24 56 24 c 1,40,41
 0 33 0 33 0 79 c 0,42,43
 0 99 0 99 29 150 c 0,44,45
 623 1349 623 1349 679 1459 c 1,46,47
 699 1477 699 1477 721 1477 c 0,0,1
963 807 m 1,48,49
 911 633 911 633 911 498 c 0,50,51
 911 257 911 257 1051 158 c 0,52,53
 1121 113 1121 113 1212 113 c 2,54,-1
 1230 113 l 2,55,56
 1277 113 1277 113 1307 121 c 1,57,-1
 966 807 l 1,58,-1
 963 807 l 1,48,49
EndSplineSet
Validated: 1
EndChar

StartChar: NameMe.129
Encoding: 129 123610 67
Width: 810
Flags: W
LayerCount: 2
Fore
SplineSet
336 1453 m 2,0,-1
 343 1453 l 2,1,2
 500 1453 500 1453 625 1341 c 1,3,4
 710 1256 710 1256 710 1153 c 2,5,-1
 710 58 l 2,6,7
 710 17 710 17 670 3 c 0,8,9
 668 1 668 1 654 0 c 0,10,11
 616 0 616 0 600 43 c 1,12,13
 592 129 592 129 574 198 c 1,14,15
 518 372 518 372 418 428 c 0,16,17
 354 465 354 465 285 465 c 0,18,19
 195 465 195 465 75 402 c 0,20,21
 69 399 69 399 58 399 c 2,22,-1
 55 399 l 2,23,24
 9 399 9 399 0 456 c 1,25,26
 0 499 0 499 72 525 c 1,27,28
 183 577 183 577 285 577 c 0,29,30
 471 577 471 577 598 408 c 1,31,-1
 598 1145 l 2,32,33
 598 1269 598 1269 425 1329 c 0,34,35
 379 1341 379 1341 337 1341 c 0,36,37
 185 1341 185 1341 130 1195 c 1,38,39
 112 1133 112 1133 112 1072 c 0,40,41
 115 1010 115 1010 124 945 c 1,42,43
 124 911 124 911 84 895 c 0,44,45
 81 893 81 893 67 892 c 0,46,47
 15 892 15 892 9 963 c 1,48,49
 0 1020 0 1020 0 1075 c 0,50,51
 0 1297 0 1297 152 1401 c 0,52,53
 235 1453 235 1453 336 1453 c 2,0,-1
EndSplineSet
Validated: 1
EndChar

StartChar: NameMe.130
Encoding: 130 123611 68
Width: 940
Flags: W
LayerCount: 2
Fore
SplineSet
339 1456 m 0,0,1
 514 1456 514 1456 631 1318 c 1,2,3
 680 1246 680 1246 680 1171 c 2,4,-1
 680 422 l 1,5,-1
 682 422 l 2,6,7
 747 422 747 422 801 352 c 1,8,9
 840 294 840 294 840 214 c 2,10,-1
 840 210 l 2,11,12
 840 79 840 79 752 17 c 0,13,14
 721 0 721 0 689 0 c 0,15,16
 631 0 631 0 580 49 c 0,17,18
 568 65 568 65 568 83 c 2,19,-1
 568 311 l 1,20,-1
 66 311 l 2,21,22
 16 311 16 311 9 370 c 1,23,24
 9 407 9 407 55 423 c 1,25,-1
 568 423 l 1,26,-1
 568 1163 l 2,27,28
 568 1282 568 1282 412 1333 c 0,29,30
 369 1344 369 1344 339 1344 c 0,31,32
 188 1344 188 1344 131 1195 c 1,33,34
 112 1131 112 1131 112 1065 c 0,35,36
 112 1021 112 1021 124 941 c 1,37,38
 114 886 114 886 69 886 c 2,39,-1
 66 886 l 2,40,41
 14 886 14 886 7 959 c 0,42,43
 0 1027 0 1027 0 1066 c 0,44,45
 0 1324 0 1324 192 1424 c 1,46,47
 264 1456 264 1456 339 1456 c 0,0,1
680 308 m 1,48,-1
 680 113 l 1,49,-1
 689 111 l 1,50,51
 711 111 711 111 727 186 c 0,52,53
 728 200 728 200 728 214 c 0,54,55
 728 286 728 286 685 308 c 1,56,-1
 680 308 l 1,48,-1
EndSplineSet
EndChar

StartChar: NameMe.131
Encoding: 131 123612 69
Width: 885
Flags: W
LayerCount: 2
Fore
SplineSet
57 1452 m 2,0,-1
 728 1452 l 2,1,2
 767 1452 767 1452 782 1411 c 0,3,4
 785 1404 785 1404 785 1395 c 0,5,6
 785 1374 785 1374 764 1350 c 1,7,8
 194 201 194 201 194 198 c 2,9,-1
 194 196 l 1,10,11
 282 112 282 112 413 112 c 2,12,-1
 434 112 l 2,13,14
 551 112 551 112 661 197 c 0,15,16
 671 207 671 207 691 236 c 1,17,18
 708 249 708 249 727 249 c 2,19,-1
 734 249 l 2,20,21
 765 249 765 249 782 209 c 0,22,23
 785 201 785 201 785 193 c 0,24,25
 785 137 785 137 661 61 c 1,26,27
 542 0 542 0 440 0 c 2,28,-1
 404 0 l 2,29,30
 279 0 279 0 161 76 c 1,31,32
 115 111 115 111 88 152 c 0,33,34
 73 178 73 178 73 194 c 2,35,-1
 73 201 l 2,36,37
 73 214 73 214 169 401 c 0,38,39
 366 800 366 800 634 1340 c 1,40,-1
 55 1340 l 2,41,42
 9 1340 9 1340 0 1397 c 1,43,44
 0 1432 0 1432 40 1449 c 0,45,46
 46 1452 46 1452 57 1452 c 2,0,-1
EndSplineSet
Validated: 1
EndChar

StartChar: NameMe.132
Encoding: 132 123613 70
Width: 1110
Flags: W
LayerCount: 2
Fore
SplineSet
536 1451 m 2,0,-1
 564 1451 l 2,1,2
 743 1451 743 1451 888 1348 c 1,3,4
 982 1275 982 1275 1009 1175 c 0,5,6
 1010 1169 1010 1169 1010 1165 c 0,7,8
 1010 1127 1010 1127 965 1111 c 1,9,-1
 955 1110 l 2,10,11
 916 1110 916 1110 900 1151 c 0,12,13
 872 1231 872 1231 785 1283 c 1,14,15
 682 1339 682 1339 551 1339 c 2,16,-1
 539 1339 l 2,17,18
 360 1339 360 1339 222 1230 c 1,19,20
 112 1134 112 1134 112 963 c 0,21,22
 112 714 112 714 343 604 c 1,23,24
 428 788 428 788 480 860 c 0,25,26
 598 1016 598 1016 737 1016 c 0,27,28
 855 1016 855 1016 934 899 c 1,29,30
 974 830 974 830 974 760 c 2,31,-1
 974 740 l 2,32,33
 974 620 974 620 871 520 c 0,34,35
 786 437 786 437 612 437 c 2,36,-1
 603 437 l 2,37,38
 507 437 507 437 400 464 c 1,39,-1
 400 462 l 1,40,41
 262 172 262 172 219 102 c 0,42,43
 171 30 171 30 103 8 c 0,44,45
 77 0 77 0 61 0 c 2,46,-1
 58 0 l 2,47,48
 12 0 12 0 3 56 c 1,49,50
 3 93 3 93 46 110 c 1,51,52
 106 110 106 110 160 226 c 0,53,54
 183 266 183 266 294 504 c 1,55,56
 262 516 262 516 204 555 c 0,57,58
 0 703 0 703 0 965 c 0,59,60
 0 1301 0 1301 343 1421 c 1,61,62
 445 1451 445 1451 536 1451 c 2,0,-1
452 566 m 1,63,64
 531 549 531 549 604 549 c 2,65,-1
 609 549 l 2,66,67
 763 549 763 549 816 625 c 1,68,69
 862 679 862 679 862 748 c 0,70,71
 862 863 862 863 764 899 c 1,72,-1
 736 904 l 1,73,74
 632 904 632 904 531 732 c 0,75,76
 503 679 503 679 451 566 c 1,77,-1
 452 566 l 1,63,64
EndSplineSet
Validated: 1
EndChar

StartChar: NameMe.133
Encoding: 133 123614 71
Width: 1316
Flags: W
LayerCount: 2
Fore
SplineSet
57 1459 m 0,0,1
 97 1459 97 1459 112 1414 c 1,2,3
 130 1133 130 1133 154 966 c 0,4,5
 175 827 175 827 209 683 c 1,6,7
 252 524 252 524 306 417 c 0,8,9
 353 322 353 322 436 238 c 1,10,11
 532 154 532 154 618 129 c 0,12,13
 668 113 668 113 709 113 c 2,14,-1
 728 113 l 2,15,16
 899 113 899 113 1012 325 c 1,17,18
 1104 518 1104 518 1104 749 c 2,19,-1
 1104 772 l 2,20,21
 1104 1028 1104 1028 997 1214 c 0,22,23
 967 1259 967 1259 924 1296 c 0,24,25
 861 1344 861 1344 806 1344 c 2,26,-1
 803 1344 l 2,27,28
 711 1344 711 1344 627 1266 c 1,29,30
 563 1193 563 1193 542 1096 c 0,31,32
 527 1027 527 1027 527 960 c 0,33,34
 527 866 527 866 558 755 c 1,35,-1
 558 750 l 2,36,37
 558 708 558 708 510 695 c 1,38,-1
 500 695 l 2,39,40
 449 695 449 695 436 781 c 1,41,42
 415 868 415 868 415 962 c 0,43,44
 415 1214 415 1214 563 1359 c 1,45,46
 640 1424 640 1424 703 1439 c 0,47,48
 767 1457 767 1457 806 1457 c 0,49,50
 883 1457 883 1457 976 1398 c 1,51,52
 1113 1297 1113 1297 1176 1077 c 0,53,54
 1216 929 1216 929 1216 778 c 2,55,-1
 1216 744 l 2,56,57
 1216 496 1216 496 1113 276 c 1,58,59
 966 0 966 0 719 0 c 0,60,61
 561 0 561 0 392 126 c 1,62,63
 294 217 294 217 278 252 c 1,64,65
 188 373 188 373 130 553 c 0,66,67
 103 635 103 635 67 804 c 0,68,69
 36 959 36 959 9 1269 c 1,70,-1
 0 1405 l 2,71,72
 0 1438 0 1438 39 1456 c 0,73,74
 49 1459 49 1459 57 1459 c 0,0,1
EndSplineSet
Validated: 1
EndChar

StartChar: NameMe.134
Encoding: 134 123615 72
Width: 1006
Flags: W
LayerCount: 2
Fore
SplineSet
248 1453 m 0,0,1
 353 1453 353 1453 428 1380 c 1,2,3
 503 1300 503 1300 503 1192 c 2,4,-1
 509 282 l 2,5,6
 509 164 509 164 598 122 c 1,7,8
 627 113 627 113 654 113 c 0,9,10
 747 113 747 113 786 216 c 1,11,12
 794 249 794 249 794 286 c 2,13,-1
 794 1398 l 2,14,15
 794 1444 794 1444 850 1453 c 1,16,17
 888 1453 888 1453 904 1410 c 0,18,19
 906 1402 906 1402 906 1395 c 2,20,-1
 906 274 l 2,21,22
 906 103 906 103 759 25 c 0,23,24
 709 1 709 1 651 1 c 2,25,-1
 642 1 l 2,26,27
 542 1 542 1 460 89 c 1,28,29
 397 171 397 171 397 276 c 2,30,-1
 391 1183 l 2,31,32
 391 1310 391 1310 278 1338 c 0,33,34
 260 1341 260 1341 249 1341 c 0,35,36
 159 1341 159 1341 122 1251 c 0,37,38
 115 1232 115 1232 112 1189 c 0,39,40
 113 1030 113 1030 113 944 c 2,41,-1
 113 64 l 2,42,43
 113 13 113 13 69 1 c 0,44,45
 63 0 63 0 57 0 c 0,46,47
 18 0 18 0 3 41 c 0,48,49
 2 44 2 44 2 47 c 0,50,51
 0 805 0 805 0 1172 c 0,52,53
 0 1301 0 1301 64 1371 c 0,54,55
 141 1453 141 1453 248 1453 c 0,0,1
EndSplineSet
Validated: 1
EndChar

StartChar: NameMe.135
Encoding: 135 123616 73
Width: 894
Flags: W
LayerCount: 2
Fore
SplineSet
243 1467 m 0,0,1
 623 1467 623 1467 748 1174 c 0,2,3
 794 1056 794 1056 794 973 c 0,4,5
 794 774 794 774 637 592 c 1,6,7
 579 535 579 535 558 522 c 1,8,9
 785 72 785 72 785 66 c 2,10,-1
 785 52 l 2,11,12
 785 17 785 17 745 2 c 0,13,14
 739 0 739 0 733 0 c 2,15,-1
 727 0 l 2,16,17
 686 0 686 0 659 72 c 1,18,-1
 463 461 l 1,19,20
 398 428 398 428 321 406 c 1,21,22
 233 388 233 388 178 339 c 1,23,24
 118 279 118 279 118 227 c 2,25,-1
 118 215 l 2,26,27
 118 149 118 149 213 99 c 1,28,29
 233 79 233 79 233 57 c 2,30,-1
 233 54 l 2,31,32
 233 15 233 15 188 0 c 1,33,-1
 170 0 l 1,34,35
 121 11 121 11 57 79 c 1,36,37
 6 146 6 146 6 211 c 2,38,-1
 6 231 l 2,39,40
 6 328 6 328 106 425 c 1,41,42
 183 491 183 491 301 518 c 0,43,44
 316 518 316 518 413 561 c 1,45,46
 2 1380 2 1380 2 1383 c 2,47,-1
 0 1397 l 1,48,49
 0 1449 0 1449 72 1455 c 1,50,51
 157 1467 157 1467 243 1467 c 0,0,1
143 1350 m 1,52,-1
 143 1349 l 1,53,-1
 506 625 l 1,54,-1
 509 625 l 1,55,56
 568 678 568 678 598 722 c 0,57,58
 682 853 682 853 682 973 c 0,59,60
 682 1052 682 1052 625 1170 c 1,61,62
 527 1355 527 1355 239 1355 c 0,63,64
 206 1355 206 1355 143 1350 c 1,52,-1
EndSplineSet
Validated: 1
EndChar

StartChar: NameMe.136
Encoding: 136 123617 74
Width: 780
Flags: W
LayerCount: 2
Fore
SplineSet
340 1453 m 0,0,1
 492 1453 492 1453 606 1345 c 1,2,3
 680 1261 680 1261 680 1178 c 0,4,5
 674 235 674 235 674 77 c 0,6,7
 674 23 674 23 649 10 c 0,8,9
 636 0 636 0 606 0 c 2,10,-1
 75 0 l 2,11,12
 24 0 24 0 12 44 c 0,13,14
 10 53 10 53 10 56 c 0,15,16
 20 111 20 111 64 111 c 2,17,-1
 555 111 l 1,18,-1
 563 113 l 1,19,20
 563 264 563 264 568 1175 c 0,21,22
 568 1234 568 1234 498 1290 c 1,23,24
 425 1341 425 1341 339 1341 c 0,25,26
 189 1341 189 1341 131 1192 c 1,27,28
 112 1128 112 1128 112 1062 c 0,29,30
 112 1019 112 1019 124 938 c 1,31,32
 114 883 114 883 69 883 c 2,33,-1
 66 883 l 2,34,35
 17 883 17 883 9 948 c 0,36,37
 0 1013 0 1013 0 1063 c 0,38,39
 0 1295 0 1295 158 1402 c 0,40,41
 240 1453 240 1453 340 1453 c 0,0,1
366 707 m 0,42,43
 426 707 426 707 454 643 c 0,44,45
 458 631 458 631 460 611 c 0,46,47
 460 548 460 548 391 520 c 1,48,-1
 366 516 l 1,49,50
 310 516 310 516 281 572 c 0,51,52
 272 592 272 592 272 613 c 0,53,54
 272 677 272 677 343 704 c 0,55,56
 356 707 356 707 366 707 c 0,42,43
EndSplineSet
Validated: 1
EndChar

StartChar: NameMe.137
Encoding: 137 123618 75
Width: 1058
Flags: W
LayerCount: 2
Fore
SplineSet
906 1461 m 2,0,1
 942 1461 942 1461 958 1415 c 1,2,-1
 958 1403 l 2,3,4
 958 1385 958 1385 918 1310 c 0,5,6
 918 1308 918 1308 745 961 c 1,7,8
 958 809 958 809 958 512 c 0,9,10
 958 172 958 172 727 46 c 1,11,12
 633 0 633 0 539 0 c 2,13,-1
 513 0 l 2,14,15
 358 0 358 0 207 103 c 1,16,17
 115 173 115 173 88 269 c 0,18,19
 85 274 85 274 85 285 c 0,20,21
 85 325 85 325 130 340 c 1,22,-1
 145 340 l 2,23,24
 188 340 188 340 203 276 c 1,25,26
 246 192 246 192 369 142 c 0,27,28
 447 112 447 112 522 112 c 2,29,-1
 527 112 l 2,30,31
 732 112 732 112 812 304 c 0,32,33
 846 392 846 392 846 515 c 0,34,35
 846 742 846 742 694 859 c 1,36,37
 546 556 546 556 500 470 c 1,38,39
 480 451 480 451 458 451 c 2,40,-1
 455 451 l 2,41,42
 406 451 406 451 340 570 c 1,43,44
 307 643 307 643 307 709 c 2,45,-1
 307 733 l 2,46,47
 307 853 307 853 398 956 c 1,48,49
 474 1027 474 1027 567 1027 c 0,50,51
 603 1027 603 1027 646 1013 c 1,52,-1
 646 1015 l 1,53,-1
 789 1303 l 1,54,-1
 788 1303 l 1,55,56
 82 1042 82 1042 63 1037 c 1,57,-1
 55 1037 l 2,58,59
 9 1037 9 1037 0 1094 c 1,60,61
 0 1132 0 1132 43 1147 c 0,62,63
 876 1456 876 1456 897 1461 c 1,64,-1
 906 1461 l 2,0,1
419 727 m 2,65,-1
 419 715 l 2,66,67
 419 665 419 665 445 610 c 1,68,-1
 446 610 l 1,69,70
 594 909 594 909 594 912 c 0,71,72
 567 915 567 915 564 915 c 0,73,74
 475 915 475 915 428 791 c 1,75,76
 419 752 419 752 419 727 c 2,65,-1
EndSplineSet
Validated: 1
EndChar

StartChar: NameMe.138
Encoding: 138 123619 76
Width: 955
Flags: W
LayerCount: 2
Fore
SplineSet
461 1468 m 2,0,-1
 470 1468 l 2,1,2
 746 1468 746 1468 839 1228 c 0,3,4
 846 1209 846 1209 849 1192 c 1,5,6
 840 1135 840 1135 794 1135 c 2,7,-1
 791 1135 l 2,8,9
 751 1135 751 1135 734 1184 c 0,10,11
 694 1292 694 1292 612 1330 c 0,12,13
 554 1356 554 1356 461 1356 c 0,14,15
 294 1356 294 1356 236 1171 c 1,16,17
 178 1024 178 1024 178 702 c 2,18,-1
 178 690 l 1,19,-1
 179 690 l 1,20,21
 314 793 314 793 509 793 c 0,22,23
 702 793 702 793 803 653 c 1,24,25
 855 571 855 571 855 420 c 2,26,-1
 855 405 l 2,27,28
 855 147 855 147 655 41 c 1,29,30
 567 0 567 0 463 0 c 0,31,32
 291 0 291 0 167 179 c 0,33,34
 132 236 132 236 115 286 c 1,35,-1
 113 286 l 1,36,-1
 113 270 l 2,37,38
 113 167 113 167 161 80 c 0,39,40
 164 70 164 70 164 62 c 0,41,42
 164 23 164 23 124 9 c 0,43,44
 116 6 116 6 107 6 c 0,45,46
 63 6 63 6 39 77 c 1,47,48
 0 168 0 168 0 282 c 0,49,50
 0 445 0 445 72 568 c 1,51,52
 66 663 66 663 66 728 c 0,53,54
 66 1188 66 1188 212 1359 c 0,55,56
 304 1468 304 1468 461 1468 c 2,0,-1
187 538 m 0,57,58
 187 249 187 249 369 135 c 1,59,60
 420 111 420 111 463 111 c 0,61,62
 647 111 647 111 713 255 c 0,63,64
 743 318 743 318 743 417 c 0,65,66
 743 595 743 595 658 641 c 1,67,68
 596 681 596 681 507 681 c 0,69,70
 304 681 304 681 192 547 c 0,71,72
 187 540 187 540 187 538 c 0,57,58
EndSplineSet
Validated: 1
EndChar

StartChar: NameMe.139
Encoding: 139 123620 77
Width: 955
Flags: W
LayerCount: 2
Fore
SplineSet
461 1468 m 2,0,-1
 470 1468 l 2,1,2
 746 1468 746 1468 839 1228 c 0,3,4
 846 1209 846 1209 849 1192 c 1,5,6
 840 1135 840 1135 794 1135 c 2,7,-1
 791 1135 l 2,8,9
 751 1135 751 1135 734 1184 c 0,10,11
 694 1292 694 1292 612 1330 c 0,12,13
 554 1356 554 1356 461 1356 c 0,14,15
 294 1356 294 1356 236 1171 c 1,16,17
 178 1024 178 1024 178 702 c 2,18,-1
 178 690 l 1,19,-1
 179 690 l 1,20,21
 314 793 314 793 509 793 c 0,22,23
 702 793 702 793 803 653 c 1,24,25
 855 571 855 571 855 420 c 2,26,-1
 855 405 l 2,27,28
 855 147 855 147 655 41 c 1,29,30
 567 0 567 0 463 0 c 0,31,32
 291 0 291 0 167 179 c 0,33,34
 132 236 132 236 115 286 c 1,35,-1
 113 286 l 1,36,-1
 113 270 l 2,37,38
 113 167 113 167 161 80 c 0,39,40
 164 70 164 70 164 62 c 0,41,42
 164 23 164 23 124 9 c 0,43,44
 116 6 116 6 107 6 c 0,45,46
 63 6 63 6 39 77 c 1,47,48
 0 168 0 168 0 282 c 0,49,50
 0 445 0 445 72 568 c 1,51,52
 66 663 66 663 66 728 c 0,53,54
 66 1188 66 1188 212 1359 c 0,55,56
 304 1468 304 1468 461 1468 c 2,0,-1
501 1110 m 2,57,-1
 503 1110 l 2,58,59
 569 1110 569 1110 594 1040 c 0,60,61
 597 1028 597 1028 597 1019 c 2,62,-1
 597 1011 l 2,63,64
 597 953 597 953 533 925 c 0,65,66
 519 920 519 920 507 920 c 2,67,-1
 500 920 l 2,68,69
 465 920 465 920 437 949 c 0,70,71
 410 976 410 976 410 1016 c 0,72,73
 410 1078 410 1078 476 1105 c 0,74,75
 488 1110 488 1110 501 1110 c 2,57,-1
187 538 m 0,76,77
 187 249 187 249 369 135 c 1,78,79
 420 111 420 111 463 111 c 0,80,81
 647 111 647 111 713 255 c 0,82,83
 743 318 743 318 743 417 c 0,84,85
 743 595 743 595 658 641 c 1,86,87
 596 681 596 681 507 681 c 0,88,89
 304 681 304 681 192 547 c 0,90,91
 187 540 187 540 187 538 c 0,76,77
EndSplineSet
Validated: 1
EndChar

StartChar: NameMe.140
Encoding: 140 123621 78
Width: 891
Flags: W
LayerCount: 2
Fore
SplineSet
382 1453 m 2,0,-1
 403 1453 l 2,1,2
 538 1453 538 1453 655 1322 c 0,3,4
 737 1229 737 1229 770 1067 c 1,5,6
 778 1067 778 1067 791 736 c 1,7,8
 779 406 779 406 773 406 c 1,9,10
 755 293 755 293 707 207 c 0,11,12
 683 161 683 161 619 94 c 1,13,14
 513 2 513 2 403 2 c 2,15,-1
 400 2 l 2,16,17
 397 2 397 2 394 0 c 0,18,19
 391 2 391 2 388 2 c 2,20,-1
 385 2 l 2,21,22
 229 2 229 2 104 167 c 1,23,24
 55 247 55 247 55 266 c 2,25,-1
 55 279 l 2,26,27
 55 312 55 312 100 327 c 0,28,29
 106 328 106 328 113 328 c 0,30,31
 153 328 153 328 178 263 c 1,32,33
 268 113 268 113 391 113 c 2,34,-1
 400 113 l 2,35,36
 519 113 519 113 610 264 c 0,37,38
 670 368 670 368 670 551 c 1,39,40
 676 617 676 617 679 736 c 1,41,42
 666 1061 666 1061 657 1061 c 1,43,44
 624 1200 624 1200 551 1271 c 0,45,46
 477 1341 477 1341 394 1341 c 0,47,48
 190 1341 190 1341 130 1173 c 1,49,50
 112 1108 112 1108 112 1047 c 0,51,52
 112 848 112 848 207 794 c 1,53,54
 248 776 248 776 284 776 c 2,55,-1
 306 776 l 2,56,57
 358 776 358 776 413 804 c 1,58,59
 427 825 427 825 454 825 c 2,60,-1
 460 825 l 2,61,62
 496 825 496 825 512 780 c 1,63,-1
 512 764 l 2,64,65
 512 710 512 710 391 676 c 0,66,67
 336 663 336 663 295 663 c 0,68,69
 107 663 107 663 33 840 c 0,70,71
 0 925 0 925 0 1046 c 0,72,73
 0 1324 0 1324 221 1422 c 1,74,75
 302 1453 302 1453 382 1453 c 2,0,-1
EndSplineSet
Validated: 1
EndChar

StartChar: NameMe.141
Encoding: 141 123622 79
Width: 1119
Flags: W
LayerCount: 2
Fore
SplineSet
294 1453 m 0,0,1
 339 1453 339 1453 360 1389 c 1,2,3
 443 1224 443 1224 548 1011 c 1,4,-1
 551 1011 l 2,5,6
 596 1011 596 1011 701 1059 c 1,7,8
 832 1131 832 1131 883 1268 c 0,9,10
 901 1321 901 1321 909 1411 c 1,11,12
 926 1450 926 1450 962 1450 c 0,13,14
 1003 1450 1003 1450 1018 1407 c 1,15,-1
 1019 1396 l 1,16,17
 1019 1292 1019 1292 962 1169 c 0,18,19
 935 1114 935 1114 873 1047 c 1,20,21
 788 968 788 968 689 931 c 0,22,23
 616 907 616 907 601 907 c 1,24,25
 628 848 628 848 1010 79 c 0,26,27
 1015 69 1015 69 1015 62 c 2,28,-1
 1015 53 l 2,29,30
 1015 10 1015 10 959 0 c 1,31,32
 935 0 935 0 895 34 c 2,33,-1
 225 537 l 1,34,-1
 224 537 l 1,35,36
 445 103 445 103 460 70 c 0,37,38
 461 62 461 62 461 56 c 0,39,40
 461 17 461 17 421 3 c 0,41,42
 413 0 413 0 404 0 c 0,43,44
 364 0 364 0 340 61 c 1,45,-1
 2 726 l 2,46,47
 0 732 0 732 0 738 c 0,48,49
 9 793 9 793 55 793 c 2,50,-1
 60 793 l 2,51,52
 79 793 79 793 113 760 c 1,53,-1
 800 246 l 1,54,-1
 801 246 l 2,55,56
 801 249 801 249 527 802 c 0,57,58
 521 812 521 812 482 893 c 1,59,60
 285 893 285 893 178 1019 c 0,61,62
 130 1081 130 1081 130 1165 c 0,63,64
 130 1280 130 1280 245 1423 c 1,65,66
 262 1453 262 1453 294 1453 c 0,0,1
242 1157 m 0,67,68
 242 1052 242 1052 406 1013 c 0,69,70
 416 1011 416 1011 422 1011 c 1,71,-1
 422 1013 l 1,72,73
 339 1179 339 1179 287 1287 c 1,74,75
 242 1220 242 1220 242 1157 c 0,67,68
EndSplineSet
Validated: 1
EndChar

StartChar: NameMe.142
Encoding: 142 123623 80
Width: 962
Flags: W
LayerCount: 2
Fore
SplineSet
330 1453 m 2,0,-1
 340 1453 l 2,1,2
 500 1453 500 1453 628 1333 c 1,3,4
 706 1250 706 1250 706 1135 c 2,5,-1
 706 561 l 1,6,-1
 791 561 l 2,7,8
 849 561 849 561 861 520 c 0,9,10
 862 512 862 512 862 507 c 2,11,-1
 862 501 l 2,12,13
 862 457 862 457 806 447 c 1,14,-1
 706 447 l 1,15,-1
 706 53 l 2,16,17
 706 13 706 13 657 0 c 1,18,-1
 588 0 l 2,19,20
 427 0 427 0 312 82 c 1,21,22
 215 161 215 161 215 267 c 2,23,-1
 215 271 l 2,24,25
 215 405 215 405 357 499 c 1,26,27
 461 561 461 561 594 561 c 1,28,-1
 594 1105 l 2,29,30
 594 1196 594 1196 573 1220 c 1,31,32
 534 1291 534 1291 421 1329 c 0,33,34
 377 1341 377 1341 331 1341 c 0,35,36
 190 1341 190 1341 133 1204 c 1,37,38
 112 1141 112 1141 112 1072 c 0,39,40
 115 1008 115 1008 124 947 c 1,41,42
 124 910 124 910 78 893 c 1,43,-1
 67 893 l 2,44,45
 17 893 17 893 9 959 c 0,46,47
 0 1029 0 1029 0 1074 c 0,48,49
 0 1333 0 1333 200 1427 c 1,50,51
 267 1453 267 1453 330 1453 c 2,0,-1
327 270 m 0,52,53
 327 163 327 163 495 122 c 0,54,55
 546 111 546 111 594 111 c 1,56,-1
 594 447 l 1,57,-1
 580 447 l 2,58,59
 445 447 445 447 363 359 c 0,60,61
 327 315 327 315 327 270 c 0,52,53
EndSplineSet
Validated: 1
EndChar

StartChar: NameMe.143
Encoding: 143 123624 81
Width: 991
Flags: W
LayerCount: 2
Fore
SplineSet
379 1453 m 0,0,1
 423 1453 423 1453 445 1392 c 1,2,3
 557 1174 557 1174 609 1066 c 1,4,5
 612 1068 612 1068 658 1165 c 2,6,-1
 791 1427 l 1,7,8
 811 1447 811 1447 833 1447 c 2,9,-1
 842 1447 l 2,10,11
 873 1447 873 1447 889 1405 c 0,12,13
 891 1399 891 1399 891 1393 c 2,14,-1
 891 1390 l 2,15,16
 891 1373 891 1373 852 1301 c 0,17,18
 851 1297 851 1297 673 941 c 1,19,20
 871 551 871 551 885 522 c 1,21,-1
 883 519 l 1,22,23
 888 512 888 512 888 499 c 2,24,-1
 888 495 l 2,25,26
 888 459 888 459 844 443 c 0,27,28
 829 441 829 441 821 441 c 2,29,-1
 819 441 l 2,30,31
 676 441 676 441 424 443 c 1,32,33
 219 29 219 29 212 22 c 0,34,35
 193 0 193 0 164 0 c 0,36,37
 114 0 114 0 51 85 c 1,38,39
 0 165 0 165 0 271 c 0,40,41
 0 464 0 464 134 517 c 0,42,43
 230 552 230 552 339 552 c 0,44,45
 360 552 360 552 360 567 c 0,46,47
 362 568 362 568 548 941 c 1,48,49
 331 1368 331 1368 325 1383 c 0,50,51
 324 1391 324 1391 324 1396 c 2,52,-1
 324 1398 l 1,53,54
 333 1453 333 1453 379 1453 c 0,0,1
743 555 m 1,55,56
 644 749 644 749 612 816 c 0,57,58
 609 816 609 816 480 555 c 1,59,-1
 743 555 l 1,55,56
112 271 m 0,60,61
 112 191 112 191 149 141 c 1,62,63
 191 228 191 228 295 437 c 1,64,-1
 294 437 l 1,65,66
 176 424 176 424 152 399 c 1,67,68
 112 371 112 371 112 271 c 0,60,61
EndSplineSet
Validated: 1
EndChar

StartChar: NameMe.144
Encoding: 144 123625 82
Width: 886
Flags: W
LayerCount: 2
Fore
SplineSet
362 1444 m 0,0,1
 497 1444 497 1444 628 1414 c 1,2,3
 714 1383 714 1383 752 1314 c 0,4,5
 783 1258 783 1258 783 1189 c 0,6,7
 783 994 783 994 543 916 c 0,8,9
 442 887 442 887 384 887 c 1,10,11
 384 886 384 886 340 883 c 1,12,-1
 340 267 l 2,13,14
 340 165 340 165 429 116 c 1,15,16
 445 113 445 113 493 111 c 0,17,18
 618 111 618 111 649 167 c 1,19,20
 674 225 674 225 674 295 c 0,21,22
 674 397 674 397 599 429 c 0,23,24
 558 447 558 447 558 483 c 1,25,26
 567 540 567 540 613 540 c 2,27,-1
 616 540 l 2,28,29
 654 540 654 540 717 483 c 1,30,31
 786 408 786 408 786 293 c 0,32,33
 786 129 786 129 696 53 c 1,34,35
 625 0 625 0 493 0 c 0,36,37
 390 0 390 0 356 29 c 1,38,39
 277 72 277 72 238 186 c 0,40,41
 228 222 228 222 228 262 c 2,42,-1
 228 881 l 1,43,44
 190 881 190 881 125 919 c 1,45,46
 0 1016 0 1016 0 1216 c 0,47,48
 0 1318 0 1318 35 1412 c 1,49,50
 54 1439 54 1439 82 1439 c 2,51,-1
 86 1439 l 2,52,53
 126 1439 126 1439 140 1392 c 1,54,-1
 140 1384 l 2,55,56
 140 1379 140 1379 119 1298 c 1,57,58
 111 1245 111 1245 111 1213 c 0,59,60
 111 1069 111 1069 193 1008 c 0,61,62
 212 998 212 998 228 995 c 1,63,-1
 228 1377 l 2,64,65
 228 1385 228 1385 226 1398 c 1,66,67
 237 1438 237 1438 267 1438 c 1,68,69
 290 1442 290 1442 362 1444 c 0,0,1
340 1330 m 1,70,-1
 340 996 l 1,71,-1
 341 996 l 2,72,73
 446 996 446 996 561 1041 c 1,74,75
 649 1087 649 1087 663 1141 c 0,76,77
 671 1173 671 1173 671 1192 c 0,78,79
 671 1271 671 1271 605 1302 c 1,80,81
 500 1332 500 1332 353 1332 c 0,82,83
 345 1330 345 1330 340 1330 c 1,70,-1
EndSplineSet
Validated: 1
EndChar

StartChar: NameMe.145
Encoding: 145 123626 83
Width: 1316
Flags: W
LayerCount: 2
Fore
SplineSet
57 1459 m 0,0,1
 97 1459 97 1459 112 1414 c 1,2,3
 130 1133 130 1133 154 966 c 0,4,5
 175 827 175 827 209 683 c 1,6,7
 252 524 252 524 306 417 c 0,8,9
 353 322 353 322 436 238 c 1,10,11
 532 154 532 154 618 129 c 0,12,13
 668 113 668 113 709 113 c 2,14,-1
 728 113 l 2,15,16
 899 113 899 113 1012 325 c 1,17,18
 1104 518 1104 518 1104 749 c 2,19,-1
 1104 772 l 2,20,21
 1104 1028 1104 1028 997 1214 c 0,22,23
 967 1259 967 1259 924 1296 c 0,24,25
 861 1344 861 1344 806 1344 c 2,26,-1
 803 1344 l 2,27,28
 711 1344 711 1344 627 1266 c 1,29,30
 563 1193 563 1193 542 1096 c 0,31,32
 527 1027 527 1027 527 960 c 0,33,34
 527 866 527 866 558 755 c 1,35,-1
 558 750 l 2,36,37
 558 708 558 708 510 695 c 1,38,-1
 500 695 l 2,39,40
 449 695 449 695 436 781 c 1,41,42
 415 868 415 868 415 962 c 0,43,44
 415 1214 415 1214 563 1359 c 1,45,46
 640 1424 640 1424 703 1439 c 0,47,48
 767 1457 767 1457 806 1457 c 0,49,50
 883 1457 883 1457 976 1398 c 1,51,52
 1113 1297 1113 1297 1176 1077 c 0,53,54
 1216 929 1216 929 1216 778 c 2,55,-1
 1216 744 l 2,56,57
 1216 496 1216 496 1113 276 c 1,58,59
 966 0 966 0 719 0 c 0,60,61
 561 0 561 0 392 126 c 1,62,63
 294 217 294 217 278 252 c 1,64,65
 188 373 188 373 130 553 c 0,66,67
 103 635 103 635 67 804 c 0,68,69
 36 959 36 959 9 1269 c 1,70,-1
 0 1405 l 2,71,72
 0 1438 0 1438 39 1456 c 0,73,74
 49 1459 49 1459 57 1459 c 0,0,1
824 829 m 0,75,76
 881 829 881 829 910 769 c 0,77,78
 916 754 916 754 918 734 c 0,79,80
 918 675 918 675 858 646 c 0,81,82
 839 638 839 638 822 638 c 0,83,84
 768 638 768 638 737 698 c 0,85,86
 733 706 733 706 730 732 c 0,87,88
 730 770 730 770 756 799 c 0,89,90
 787 829 787 829 824 829 c 0,75,76
EndSplineSet
Validated: 1
EndChar

StartChar: NameMe.146
Encoding: 146 123627 84
Width: 989
Flags: W
LayerCount: 2
Fore
SplineSet
832 1453 m 0,0,1
 868 1453 868 1453 884 1408 c 1,2,-1
 884 1390 l 2,3,4
 884 1379 884 1379 801 1214 c 0,5,6
 470 547 470 547 470 544 c 2,7,-1
 471 544 l 1,8,9
 534 531 534 531 602 501 c 0,10,11
 681 463 681 463 747 396 c 1,12,13
 841 309 841 309 878 146 c 0,14,15
 884 115 884 115 889 53 c 0,16,17
 889 19 889 19 845 1 c 0,18,19
 832 0 832 0 831 0 c 0,20,21
 777 10 777 10 777 53 c 0,22,23
 777 127 777 127 735 223 c 1,24,25
 668 358 668 358 511 417 c 1,26,27
 437 439 437 439 416 440 c 1,28,29
 297 195 297 195 205 17 c 1,30,31
 185 0 185 0 162 0 c 0,32,33
 129 0 129 0 94 55 c 1,34,35
 0 179 0 179 0 289 c 0,36,37
 0 439 0 439 161 517 c 0,38,39
 233 548 233 548 289 552 c 0,40,41
 308 555 308 555 350 558 c 1,42,43
 742 1350 742 1350 784 1432 c 1,44,45
 803 1453 803 1453 832 1453 c 0,0,1
111 291 m 0,46,47
 111 237 111 237 153 164 c 1,48,49
 189 229 189 229 290 440 c 1,50,-1
 289 440 l 1,51,52
 111 403 111 403 111 291 c 0,46,47
EndSplineSet
Validated: 1
EndChar

StartChar: NameMe.147
Encoding: 147 123628 85
Width: 1
Flags: W
LayerCount: 2
Fore
SplineSet
-535 1981 m 2,0,-1
 -523 1981 l 2,1,2
 -451 1981 -451 1981 -420 1893 c 0,3,4
 -411 1867 -411 1867 -411 1834 c 2,5,-1
 -411 1810 l 2,6,7
 -411 1687 -411 1687 -504 1653 c 1,8,9
 -532 1650 -532 1650 -535 1650 c 0,10,11
 -601 1650 -601 1650 -639 1726 c 0,12,13
 -655 1764 -655 1764 -655 1813 c 2,14,-1
 -655 1815 l 2,15,16
 -655 1939 -655 1939 -567 1977 c 0,17,18
 -549 1981 -549 1981 -535 1981 c 2,0,-1
1 1 m 1,19,20
 1 1 1 1 1 0 c 1,21,22
 1 0 1 0 1 0 c 129,-1,23
 1 0 1 0 1 0 c 1,24,25
 0 0 0 0 0 0 c 129,-1,26
 0 0 0 0 0 0 c 1,27,28
 0 1 0 1 0 1 c 129,-1,29
 0 1 0 1 1 1 c 1,30,-1
 1 1 l 1,19,20
EndSplineSet
Validated: 5
EndChar

StartChar: NameMe.148
Encoding: 148 123629 86
Width: 1
Flags: W
LayerCount: 2
Fore
SplineSet
-323 1999 m 2,0,-1
 -311 1999 l 2,1,2
 -239 1999 -239 1999 -208 1911 c 0,3,4
 -199 1885 -199 1885 -199 1852 c 2,5,-1
 -199 1828 l 2,6,7
 -199 1705 -199 1705 -292 1671 c 1,8,9
 -320 1668 -320 1668 -323 1668 c 0,10,11
 -389 1668 -389 1668 -427 1744 c 0,12,13
 -443 1782 -443 1782 -443 1831 c 2,14,-1
 -443 1833 l 2,15,16
 -443 1957 -443 1957 -355 1995 c 0,17,18
 -337 1999 -337 1999 -323 1999 c 2,0,-1
-733 1999 m 2,19,-1
 -721 1999 l 2,20,21
 -649 1999 -649 1999 -618 1911 c 0,22,23
 -609 1885 -609 1885 -609 1852 c 2,24,-1
 -609 1828 l 2,25,26
 -609 1705 -609 1705 -702 1671 c 1,27,28
 -730 1668 -730 1668 -733 1668 c 0,29,30
 -799 1668 -799 1668 -837 1744 c 0,31,32
 -853 1782 -853 1782 -853 1831 c 2,33,-1
 -853 1833 l 2,34,35
 -853 1957 -853 1957 -765 1995 c 0,36,37
 -747 1999 -747 1999 -733 1999 c 2,19,-1
1 1 m 1,38,39
 1 1 1 1 1 0 c 1,40,41
 1 0 1 0 1 0 c 129,-1,42
 1 0 1 0 1 0 c 1,43,44
 0 0 0 0 0 0 c 129,-1,45
 0 0 0 0 0 0 c 1,46,47
 0 1 0 1 0 1 c 129,-1,48
 0 1 0 1 1 1 c 1,49,-1
 1 1 l 1,38,39
EndSplineSet
Validated: 5
EndChar

StartChar: NameMe.149
Encoding: 149 123630 87
Width: 1
Flags: W
LayerCount: 2
Fore
SplineSet
-311 2366 m 1,0,1
 -254 2357 -254 2357 -254 2311 c 2,2,-1
 -254 2308 l 2,3,4
 -254 2271 -254 2271 -303 2248 c 1,5,6
 -384 2186 -384 2186 -423 2118 c 0,7,8
 -521 1953 -521 1953 -521 1733 c 1,9,-1
 -518 1656 l 2,10,11
 -518 1629 -518 1629 -554 1609 c 0,12,13
 -564 1606 -564 1606 -572 1606 c 2,14,-1
 -576 1606 l 2,15,16
 -617 1606 -617 1606 -630 1654 c 1,17,18
 -633 1717 -633 1717 -633 1732 c 0,19,20
 -633 2059 -633 2059 -449 2269 c 1,21,22
 -348 2366 -348 2366 -311 2366 c 1,0,1
1 1 m 1,23,24
 1 1 1 1 1 0 c 1,25,26
 1 0 1 0 1 0 c 129,-1,27
 1 0 1 0 1 0 c 1,28,29
 0 0 0 0 0 0 c 129,-1,30
 0 0 0 0 0 0 c 1,31,32
 0 1 0 1 0 1 c 129,-1,33
 0 1 0 1 1 1 c 1,34,-1
 1 1 l 1,23,24
EndSplineSet
Validated: 5
EndChar

StartChar: NameMe.150
Encoding: 150 123631 88
Width: 1
Flags: W
LayerCount: 2
Fore
SplineSet
-569 2417 m 0,0,1
 -530 2417 -530 2417 -514 2373 c 1,2,-1
 -512 2358 l 2,3,4
 -512 2343 -512 2343 -548 2282 c 1,5,6
 -624 2127 -624 2127 -624 1935 c 2,7,-1
 -624 1932 l 2,8,9
 -624 1807 -624 1807 -587 1668 c 1,10,-1
 -585 1662 l 1,11,12
 -595 1606 -595 1606 -639 1606 c 1,13,14
 -639 1605 -639 1605 -642 1605 c 0,15,16
 -691 1605 -691 1605 -705 1677 c 0,17,18
 -736 1805 -736 1805 -736 1929 c 2,19,-1
 -736 1941 l 2,20,21
 -736 2200 -736 2200 -611 2397 c 1,22,23
 -591 2417 -591 2417 -569 2417 c 0,0,1
-221 2366 m 1,24,25
 -164 2357 -164 2357 -164 2311 c 2,26,-1
 -164 2308 l 2,27,28
 -164 2271 -164 2271 -213 2248 c 1,29,30
 -294 2186 -294 2186 -333 2118 c 0,31,32
 -431 1953 -431 1953 -431 1733 c 1,33,-1
 -428 1656 l 2,34,35
 -428 1629 -428 1629 -464 1609 c 0,36,37
 -474 1606 -474 1606 -482 1606 c 2,38,-1
 -486 1606 l 2,39,40
 -526 1606 -526 1606 -540 1654 c 1,41,42
 -543 1717 -543 1717 -543 1732 c 0,43,44
 -543 2059 -543 2059 -359 2269 c 1,45,46
 -258 2366 -258 2366 -221 2366 c 1,24,25
1 1 m 1,47,48
 1 1 1 1 1 0 c 1,49,50
 1 0 1 0 1 0 c 129,-1,51
 1 0 1 0 1 0 c 1,52,53
 0 0 0 0 0 0 c 129,-1,54
 0 0 0 0 0 0 c 1,55,56
 0 1 0 1 0 1 c 129,-1,57
 0 1 0 1 1 1 c 1,58,-1
 1 1 l 1,47,48
EndSplineSet
Validated: 5
EndChar

StartChar: NameMe.151
Encoding: 151 123632 89
Width: 1107
Flags: W
LayerCount: 2
Fore
SplineSet
498 1453 m 0,0,1
 676 1453 676 1453 821 1296 c 0,2,3
 917 1193 917 1193 973 986 c 0,4,5
 1007 849 1007 849 1007 707 c 0,6,7
 1007 369 1007 369 815 143 c 1,8,9
 678 0 678 0 515 0 c 0,10,11
 298 0 298 0 130 228 c 1,12,13
 0 429 0 429 0 692 c 0,14,15
 0 1025 0 1025 148 1250 c 1,16,17
 295 1453 295 1453 498 1453 c 0,0,1
112 690 m 0,18,19
 112 400 112 400 285 216 c 1,20,21
 397 111 397 111 515 111 c 0,22,23
 682 111 682 111 804 322 c 1,24,25
 895 492 895 492 895 708 c 0,26,27
 895 957 895 957 788 1151 c 0,28,29
 759 1205 759 1205 695 1262 c 0,30,31
 600 1341 600 1341 498 1341 c 0,32,33
 308 1341 308 1341 187 1090 c 1,34,35
 112 910 112 910 112 690 c 0,18,19
EndSplineSet
Validated: 1
EndChar

StartChar: NameMe.152
Encoding: 152 123633 90
Width: 1107
Flags: W
LayerCount: 2
Fore
SplineSet
480 1462 m 2,0,-1
 493 1462 l 2,1,2
 634 1462 634 1462 726 1365 c 1,3,4
 774 1308 774 1308 774 1233 c 2,5,-1
 774 55 l 1,6,7
 765 0 765 0 718 0 c 2,8,-1
 717 0 l 1,9,10
 662 9 662 9 662 55 c 2,11,-1
 662 1228 l 2,12,13
 662 1310 662 1310 559 1341 c 0,14,15
 518 1350 518 1350 484 1350 c 0,16,17
 392 1350 392 1350 345 1295 c 0,18,19
 326 1267 326 1267 326 1234 c 0,20,21
 327 1213 327 1213 335 1179 c 1,22,23
 326 1122 326 1122 280 1122 c 2,24,-1
 277 1122 l 2,25,26
 214 1122 214 1122 214 1236 c 0,27,28
 214 1376 214 1376 363 1441 c 1,29,30
 425 1462 425 1462 480 1462 c 2,0,-1
1 1 m 1,31,32
 1 1 1 1 1 0 c 1,33,34
 1 0 1 0 1 0 c 129,-1,35
 1 0 1 0 1 0 c 1,36,37
 0 0 0 0 0 0 c 129,-1,38
 0 0 0 0 0 0 c 1,39,40
 0 1 0 1 0 1 c 129,-1,41
 0 1 0 1 1 1 c 1,42,-1
 1 1 l 1,31,32
EndSplineSet
Validated: 5
EndChar

StartChar: NameMe.153
Encoding: 153 123634 91
Width: 1107
Flags: W
LayerCount: 2
Fore
SplineSet
468 1456 m 0,0,1
 721 1456 721 1456 881 1223 c 1,2,3
 885 1266 885 1266 885 1317 c 2,4,-1
 885 1359 l 2,5,6
 885 1378 885 1378 883 1405 c 1,7,8
 897 1454 897 1454 931 1454 c 1,9,10
 931 1456 931 1456 943 1456 c 0,11,12
 980 1456 980 1456 995 1410 c 1,13,14
 997 1389 997 1389 997 1374 c 2,15,-1
 997 1311 l 2,16,17
 997 1169 997 1169 962 1045 c 1,18,19
 1007 907 1007 907 1007 756 c 0,20,21
 1007 465 1007 465 854 238 c 1,22,23
 785 146 785 146 699 86 c 1,24,25
 564 0 564 0 418 0 c 2,26,-1
 400 0 l 2,27,28
 280 0 280 0 148 61 c 1,29,30
 122 79 122 79 122 107 c 2,31,-1
 122 116 l 2,32,33
 122 149 122 149 164 164 c 0,34,35
 170 165 170 165 178 165 c 0,36,37
 189 165 189 165 254 138 c 1,38,39
 332 111 332 111 411 111 c 0,40,41
 654 111 654 111 801 364 c 1,42,43
 895 544 895 544 895 755 c 1,44,45
 891 872 891 872 885 872 c 1,46,47
 802 740 802 740 641 681 c 0,48,49
 535 646 535 646 433 646 c 2,50,-1
 405 646 l 2,51,52
 240 646 240 646 108 777 c 1,53,54
 0 903 0 903 0 1056 c 0,55,56
 0 1250 0 1250 167 1371 c 1,57,58
 300 1456 300 1456 468 1456 c 0,0,1
111 1054 m 0,59,60
 111 928 111 928 213 831 c 1,61,62
 303 758 303 758 411 758 c 2,63,-1
 426 758 l 2,64,65
 664 758 664 758 786 923 c 1,66,67
 834 998 834 998 845 1045 c 1,68,69
 723 1344 723 1344 466 1344 c 0,70,71
 302 1344 302 1344 191 1247 c 1,72,73
 111 1166 111 1166 111 1054 c 0,59,60
EndSplineSet
Validated: 1
EndChar

StartChar: NameMe.154
Encoding: 154 123635 92
Width: 1107
Flags: W
LayerCount: 2
Fore
SplineSet
444 1456 m 0,0,1
 629 1456 629 1456 757 1212 c 1,2,3
 856 999 856 999 856 749 c 2,4,-1
 856 727 l 2,5,6
 856 576 856 576 816 419 c 0,7,8
 813 398 813 398 813 391 c 0,9,10
 813 287 813 287 880 173 c 1,11,12
 920 119 920 119 960 110 c 1,13,14
 989 110 989 110 1005 69 c 0,15,16
 1007 63 1007 63 1007 57 c 2,17,-1
 1007 55 l 2,18,19
 1007 15 1007 15 963 0 c 1,20,-1
 954 0 l 2,21,22
 870 0 870 0 785 116 c 1,23,24
 749 175 749 175 734 225 c 1,25,26
 701 172 701 172 635 102 c 1,27,28
 519 5 519 5 374 5 c 0,29,30
 191 5 191 5 69 185 c 1,31,32
 0 298 0 298 0 397 c 0,33,34
 0 481 0 481 62 481 c 1,35,36
 113 470 113 470 113 428 c 0,37,38
 113 413 113 413 110 395 c 0,39,40
 110 320 110 320 178 222 c 1,41,42
 261 116 261 116 377 116 c 0,43,44
 477 116 477 116 562 185 c 1,45,46
 635 262 635 262 678 360 c 1,47,48
 745 530 745 530 745 731 c 2,49,-1
 745 740 l 2,50,51
 745 1003 745 1003 638 1200 c 1,52,53
 549 1344 549 1344 442 1344 c 0,54,55
 321 1344 321 1344 178 1173 c 0,56,57
 131 1114 131 1114 98 1055 c 0,58,59
 82 1034 82 1034 57 1034 c 1,60,61
 57 1033 57 1033 54 1033 c 0,62,63
 0 1043 0 1043 0 1086 c 2,64,-1
 0 1092 l 2,65,66
 0 1132 0 1132 123 1280 c 1,67,68
 284 1456 284 1456 444 1456 c 0,0,1
EndSplineSet
Validated: 1
EndChar

StartChar: NameMe.155
Encoding: 155 123636 93
Width: 1107
Flags: W
LayerCount: 2
Fore
SplineSet
953 1453 m 2,0,1
 990 1453 990 1453 1006 1408 c 0,2,3
 1007 1397 1007 1397 1007 1396 c 0,4,5
 1007 1377 1007 1377 970 1311 c 0,6,7
 525 415 525 415 509 387 c 0,8,9
 420 227 420 227 335 108 c 1,10,11
 246 0 246 0 170 0 c 0,12,13
 75 0 75 0 25 129 c 1,14,15
 0 207 0 207 0 299 c 0,16,17
 0 487 0 487 75 656 c 1,18,19
 138 777 138 777 221 777 c 0,20,21
 285 777 285 777 333 711 c 1,22,23
 339 695 339 695 339 686 c 0,24,25
 330 631 330 631 284 631 c 2,26,-1
 281 631 l 2,27,28
 255 631 255 631 226 664 c 0,29,30
 223 664 223 664 223 665 c 1,31,32
 192 654 192 654 154 556 c 1,33,34
 110 421 110 421 110 301 c 0,35,36
 110 163 110 163 163 114 c 1,37,-1
 169 111 l 1,38,39
 213 118 213 118 311 270 c 0,40,41
 435 472 435 472 524 666 c 0,42,43
 536 685 536 685 841 1302 c 1,44,45
 303 1125 303 1125 284 1122 c 2,46,-1
 281 1122 l 2,47,48
 243 1122 243 1122 227 1168 c 1,49,-1
 227 1181 l 2,50,51
 227 1229 227 1229 311 1245 c 1,52,53
 936 1453 936 1453 947 1453 c 2,54,-1
 953 1453 l 2,0,1
EndSplineSet
Validated: 1
EndChar

StartChar: NameMe.156
Encoding: 156 123637 94
Width: 1107
Flags: W
LayerCount: 2
Fore
SplineSet
501 1452 m 2,0,-1
 502 1452 l 1,1,2
 557 1444 557 1444 557 1397 c 0,3,4
 558 1390 558 1390 558 1364 c 2,5,-1
 558 1158 l 2,6,7
 558 1108 558 1108 557 1006 c 1,8,9
 669 994 669 994 779 927 c 0,10,11
 823 900 823 900 886 831 c 1,12,13
 1007 685 1007 685 1007 504 c 0,14,15
 1007 278 1007 278 824 115 c 1,16,17
 676 0 676 0 501 0 c 0,18,19
 466 0 466 0 449 43 c 0,20,21
 449 44 449 44 447 52 c 0,22,23
 446 548 446 548 446 864 c 2,24,-1
 446 889 l 1,25,26
 371 882 371 882 287 830 c 0,27,28
 180 759 180 759 132 624 c 0,29,30
 113 563 113 563 113 491 c 1,31,32
 96 448 96 448 56 448 c 0,33,34
 13 448 13 448 0 500 c 1,35,-1
 0 501 l 2,36,37
 0 715 0 715 159 871 c 0,38,39
 245 950 245 950 343 982 c 0,40,41
 419 1004 419 1004 444 1004 c 1,42,43
 446 1108 446 1108 446 1161 c 2,44,-1
 446 1374 l 2,45,46
 446 1383 446 1383 444 1398 c 0,47,48
 444 1432 444 1432 484 1449 c 0,49,50
 490 1452 490 1452 501 1452 c 2,0,-1
558 891 m 1,51,-1
 558 770 l 2,52,53
 558 533 558 533 560 118 c 1,54,55
 674 140 674 140 745 197 c 0,56,57
 894 325 894 325 894 504 c 0,58,59
 894 689 894 689 737 818 c 1,60,61
 645 880 645 880 558 891 c 1,51,-1
EndSplineSet
Validated: 1
EndChar

StartChar: NameMe.157
Encoding: 157 123638 95
Width: 1107
Flags: W
LayerCount: 2
Fore
SplineSet
474 1453 m 0,0,1
 711 1453 711 1453 885 1271 c 1,2,3
 1007 1123 1007 1123 1007 950 c 0,4,5
 1007 702 1007 702 837 541 c 1,6,7
 716 443 716 443 570 443 c 0,8,9
 544 443 544 443 461 444 c 1,10,-1
 461 55 l 2,11,12
 461 8 461 8 404 0 c 1,13,14
 368 0 368 0 352 40 c 0,15,16
 349 46 349 46 349 56 c 2,17,-1
 349 504 l 2,18,19
 349 544 349 544 392 559 c 0,20,21
 397 559 397 559 403 561 c 0,22,23
 473 555 473 555 570 555 c 0,24,25
 742 555 742 555 842 726 c 1,26,27
 895 834 895 834 895 941 c 0,28,29
 895 1160 895 1160 689 1286 c 1,30,31
 583 1341 583 1341 470 1341 c 0,32,33
 283 1341 283 1341 146 1201 c 1,34,35
 117 1165 117 1165 98 1136 c 1,36,37
 81 1119 81 1119 60 1119 c 2,38,-1
 54 1119 l 2,39,40
 9 1119 9 1119 0 1175 c 1,41,42
 9 1232 9 1232 124 1333 c 1,43,44
 281 1453 281 1453 474 1453 c 0,0,1
EndSplineSet
Validated: 1
EndChar

StartChar: NameMe.158
Encoding: 158 123639 96
Width: 1107
Flags: W
LayerCount: 2
Fore
SplineSet
58 1450 m 2,0,-1
 279 1450 l 2,1,2
 316 1450 316 1450 331 1409 c 0,3,4
 334 1403 334 1403 334 1390 c 2,5,-1
 334 293 l 1,6,-1
 336 293 l 1,7,8
 494 631 494 631 852 1326 c 0,9,10
 904 1429 904 1429 915 1438 c 0,11,12
 933 1450 933 1450 950 1450 c 2,13,-1
 952 1450 l 2,14,15
 990 1450 990 1450 1006 1407 c 1,16,-1
 1007 1392 l 2,17,18
 1007 1375 1007 1375 955 1281 c 0,19,20
 600 596 600 596 336 35 c 0,21,22
 321 10 321 10 297 0 c 1,23,24
 237 6 237 6 237 16 c 1,25,26
 221 36 221 36 221 70 c 2,27,-1
 221 1338 l 1,28,-1
 51 1338 l 2,29,30
 20 1338 20 1338 3 1378 c 0,31,32
 0 1386 0 1386 0 1395 c 0,33,34
 0 1433 0 1433 43 1448 c 0,35,36
 51 1450 51 1450 58 1450 c 2,0,-1
EndSplineSet
Validated: 1
EndChar

StartChar: NameMe.159
Encoding: 159 123640 97
Width: 1107
Flags: W
LayerCount: 2
Fore
SplineSet
686 1434 m 0,0,1
 728 1434 728 1434 742 1382 c 1,2,-1
 742 977 l 1,3,-1
 955 977 l 2,4,5
 994 977 994 977 1007 928 c 1,6,-1
 1007 921 l 2,7,8
 1007 876 1007 876 952 868 c 1,9,-1
 742 868 l 1,10,-1
 742 64 l 2,11,12
 742 28 742 28 691 22 c 0,13,14
 677 21 677 21 677 21 c 1,15,16
 633 29 633 29 633 40 c 1,17,18
 544 156 544 156 23 859 c 1,19,20
 0 883 0 883 0 907 c 0,21,22
 0 951 0 951 35 966 c 0,23,24
 46 969 46 969 49 969 c 0,25,26
 96 969 96 969 231 968 c 0,27,28
 290 968 290 968 630 974 c 1,29,-1
 631 977 l 1,30,-1
 631 1375 l 2,31,32
 631 1421 631 1421 677 1432 c 0,33,34
 685 1434 685 1434 686 1434 c 0,0,1
168 859 m 2,35,-1
 159 859 l 1,36,-1
 159 857 l 1,37,38
 566 309 566 309 631 224 c 1,39,-1
 631 865 l 1,40,41
 334 859 334 859 168 859 c 2,35,-1
EndSplineSet
Validated: 1
EndChar

StartChar: NameMe.160
Encoding: 160 123641 98
Width: 1107
Flags: W
LayerCount: 2
Fore
SplineSet
410 1450 m 2,0,-1
 411 1450 l 2,1,2
 514 1450 514 1450 555 1368 c 0,3,4
 568 1336 568 1336 568 1305 c 2,5,-1
 568 1287 l 2,6,7
 568 1123 568 1123 310 735 c 1,8,-1
 311 735 l 1,9,10
 329 746 329 746 447 769 c 1,11,12
 479 769 479 769 484 786 c 1,13,14
 558 882 558 882 643 931 c 0,15,16
 773 1007 773 1007 889 1007 c 2,17,-1
 919 1007 l 2,18,19
 1004 1007 1004 1007 1004 950 c 2,20,-1
 1004 942 l 2,21,22
 1004 909 1004 909 959 893 c 1,23,-1
 950 892 l 1,24,25
 930 895 930 895 907 895 c 2,26,-1
 899 895 l 2,27,28
 759 895 759 895 632 783 c 1,29,30
 729 783 729 783 838 731 c 1,31,32
 1007 628 1007 628 1007 416 c 0,33,34
 1007 289 1007 289 956 162 c 1,35,36
 865 0 865 0 701 0 c 0,37,38
 535 0 535 0 435 176 c 1,39,40
 383 284 383 284 383 426 c 2,41,-1
 383 429 l 2,42,43
 383 550 383 550 413 647 c 1,44,-1
 411 647 l 1,45,46
 316 634 316 634 152 508 c 1,47,-1
 80 450 l 1,48,49
 65 444 65 444 55 444 c 2,50,-1
 53 444 l 2,51,52
 16 444 16 444 1 489 c 0,53,54
 0 499 0 499 0 508 c 0,55,56
 0 533 0 533 28 555 c 1,57,58
 140 676 140 676 232 823 c 1,59,60
 447 1145 447 1145 456 1292 c 1,61,-1
 456 1302 l 2,62,63
 456 1338 456 1338 416 1338 c 2,64,-1
 405 1338 l 2,65,66
 370 1338 370 1338 286 1314 c 0,67,68
 284 1313 284 1313 277 1313 c 0,69,70
 222 1322 222 1322 222 1366 c 2,71,-1
 222 1375 l 2,72,73
 222 1421 222 1421 313 1436 c 1,74,75
 359 1450 359 1450 410 1450 c 2,0,-1
544 669 m 1,76,77
 495 578 495 578 495 425 c 0,78,79
 495 229 495 229 604 144 c 0,80,81
 650 111 650 111 702 111 c 0,82,83
 813 111 813 111 865 235 c 1,84,85
 893 334 893 334 893 402 c 2,86,-1
 893 431 l 2,87,88
 893 558 893 558 793 626 c 1,89,90
 718 671 718 671 607 671 c 2,91,-1
 596 671 l 2,92,93
 579 671 579 671 544 669 c 1,76,77
EndSplineSet
Validated: 1
EndChar

